<?xml version="1.0" standalone="no"?>
<!DOCTYPE svg PUBLIC "-//W3C//DTD SVG 20010904//EN"
 "http://www.w3.org/TR/2001/REC-SVG-20010904/DTD/svg10.dtd">
<svg version="1.0" xmlns="http://www.w3.org/2000/svg"
 width="285.000000pt" height="285.000000pt" viewBox="0 0 285.000000 285.000000"
 preserveAspectRatio="xMidYMid meet">
<metadata>
Created by potrace 1.14, written by Peter Selinger 2001-2017
</metadata>
<g transform="translate(0.000000,285.000000) scale(0.100000,-0.100000)"
fill="#000000" stroke="none">
<path d="M2261 2193 c-31 -32 -72 -80 -91 -106 -19 -27 -71 -79 -116 -116
l-81 -68 -139 2 c-171 3 -270 13 -306 32 -16 7 -28 11 -28 9 0 -3 -20 1 -45 8
-25 8 -45 12 -45 10 0 -2 -12 1 -27 7 -16 6 -55 13 -88 15 -33 2 -85 6 -115 8
-206 18 -222 18 -410 -19 -115 -22 -250 -132 -388 -315 -89 -118 -113 -149
-133 -170 -27 -29 -154 -217 -154 -229 0 -3 -10 -22 -22 -41 -18 -30 -45 -104
-48 -135 -1 -5 -5 -30 -10 -55 -17 -87 -9 -130 25 -130 6 0 8 -4 5 -10 -12
-19 57 -10 99 13 58 31 81 62 157 203 23 44 50 89 60 102 10 13 20 36 24 51 3
16 19 43 36 62 16 18 29 40 29 50 0 10 6 24 13 31 7 7 19 28 26 45 12 28 54
83 64 83 2 0 3 -19 2 -42 -2 -56 -31 -111 -95 -178 -66 -71 -78 -88 -85 -129
-3 -19 -8 -38 -11 -43 -3 -4 -1 -8 4 -8 5 0 8 -15 6 -32 -10 -117 -15 -151
-24 -169 -19 -35 -22 -110 -5 -135 8 -13 15 -30 15 -39 0 -16 12 -20 24 -8 3
4 13 8 21 10 8 2 23 5 32 6 27 6 56 53 55 89 0 18 -2 58 -3 88 -1 52 28 180
41 180 4 0 32 16 64 35 72 43 82 44 35 2 -57 -50 -56 -61 4 -189 30 -62 62
-134 72 -160 10 -26 24 -53 32 -60 8 -7 55 -13 112 -14 95 -3 99 -2 111 21 11
20 10 28 -4 50 -10 15 -26 25 -41 25 -48 0 -70 17 -103 80 -43 83 -43 128 0
181 40 49 110 100 191 140 123 59 132 65 162 118 26 45 33 50 55 45 25 -6 37
-8 120 -18 84 -9 135 -18 172 -27 20 -5 40 -8 45 -7 4 1 25 -1 45 -5 33 -7 38
-12 43 -45 3 -20 11 -48 19 -62 7 -14 17 -34 23 -45 24 -47 93 -211 93 -221 0
-5 7 -22 15 -38 15 -28 15 -81 -1 -187 -6 -42 -4 -48 21 -68 22 -16 39 -20 73
-18 40 3 49 0 73 -27 27 -30 30 -31 105 -29 92 3 116 17 95 57 -22 40 -92 61
-119 34 -13 -13 -16 -39 -4 -37 18 3 32 -2 32 -12 0 -6 -6 -9 -12 -6 -7 2 -20
1 -29 -4 -19 -9 -59 15 -59 36 0 20 -89 202 -106 215 -18 16 -20 47 -1 33 6
-6 22 -13 34 -15 19 -5 23 -1 29 36 7 40 7 40 24 -45 23 -114 49 -199 59 -199
5 0 12 7 15 16 11 30 6 53 -15 64 -11 7 -19 14 -16 16 3 3 1 22 -4 42 -11 43
-23 138 -22 167 1 29 59 295 71 326 10 26 75 89 92 89 10 0 144 100 148 112 2
4 9 8 16 8 7 0 45 17 83 38 39 20 74 38 79 39 5 2 47 16 93 33 46 17 107 32
134 35 49 3 77 22 139 90 24 27 19 59 -10 63 -12 2 -58 21 -101 43 -61 30 -88
51 -117 89 -21 28 -45 52 -54 55 -8 3 -34 22 -56 43 -23 20 -52 45 -64 55 -15
13 -19 22 -12 30 13 16 18 69 8 85 -4 7 -16 10 -27 7 -11 -4 -19 -2 -19 4 0 6
-12 11 -26 11 -19 0 -43 -16 -83 -57z m50 -322 c-14 -25 -20 -41 -13 -37 6 4
20 2 29 -3 15 -9 14 -10 -10 -9 -35 3 -65 47 -73 112 -7 49 9 66 20 21 4 -14
13 -25 22 -25 11 0 14 6 9 23 -5 17 -4 19 4 7 9 -13 12 -11 18 10 7 23 8 21
13 -15 5 -31 0 -50 -19 -84z m-1245 54 c-10 -22 -12 -22 -28 -8 -13 11 -14 18
-5 28 6 6 19 10 28 8 13 -4 14 -9 5 -28z m-186 12 c0 -8 -6 -14 -14 -14 -8 0
-12 6 -9 14 3 7 9 13 14 13 5 0 9 -6 9 -13z m81 -10 c-10 -9 -11 -8 -5 6 3 10
9 15 12 12 3 -3 0 -11 -7 -18z m262 -8 c-3 -8 3 -21 12 -29 15 -12 29 -8 31
11 1 5 2 14 3 19 2 16 41 12 41 -5 0 -8 -10 -20 -22 -26 -13 -7 -29 -19 -35
-28 -11 -14 -14 -14 -22 -1 -9 13 -12 13 -26 -1 -19 -18 -10 -49 14 -49 9 0
24 -9 34 -20 18 -21 87 -29 87 -10 0 10 -14 14 -37 11 -7 -1 -13 5 -13 14 0 8
-4 15 -8 15 -5 0 -9 7 -9 15 0 8 5 11 10 8 6 -3 16 2 24 12 7 11 13 16 13 12
0 -3 10 -3 22 2 16 6 28 3 43 -11 11 -10 28 -17 37 -15 9 3 19 -1 22 -9 3 -8
15 -14 26 -14 18 0 19 2 8 20 -7 11 -17 20 -23 20 -19 0 -95 45 -95 56 0 9 11
9 43 1 24 -7 35 -13 24 -15 -27 -6 -9 -22 24 -22 17 0 40 -5 51 -11 16 -9 23
-8 29 2 7 11 9 10 9 -3 0 -23 18 -32 34 -18 24 19 25 -12 3 -44 -12 -16 -16
-26 -9 -22 6 4 19 3 29 -2 13 -8 8 -11 -25 -17 -23 -4 -42 -11 -42 -16 0 -7
46 -12 76 -8 13 1 23 -26 18 -45 -5 -15 -2 -17 23 -12 26 6 28 4 30 -26 0 -17
8 -37 18 -44 9 -7 12 -15 6 -18 -5 -4 -12 -2 -16 3 -6 11 -31 5 -53 -12 -8 -7
-9 -13 -2 -22 18 -22 -16 -37 -88 -37 -38 0 -74 1 -78 4 -8 4 -54 4 -106 -1
-27 -2 -21 -21 6 -21 14 0 27 -3 29 -7 3 -5 -26 -8 -64 -9 -76 -1 -80 3 -49
53 19 32 19 32 -1 38 -24 8 -21 12 -43 -49 -13 -33 -21 -44 -27 -35 -4 7 -5
18 -1 24 4 5 8 20 10 33 2 16 -2 22 -17 22 -20 0 -31 -18 -31 -51 0 -19 -2
-19 -31 -4 -17 9 -40 15 -52 15 -35 -3 -39 -1 -25 14 7 8 20 11 28 7 8 -4 21
-6 28 -5 6 1 16 2 22 3 12 1 -9 51 -22 51 -4 0 -7 6 -5 13 4 20 -69 22 -77 1
-5 -13 -2 -15 19 -10 34 9 49 -1 30 -20 -8 -9 -19 -13 -24 -10 -5 4 -12 0 -14
-6 -4 -10 -8 -10 -15 1 -8 11 -15 10 -44 -3 -19 -9 -45 -15 -58 -14 -20 2 -27
-3 -36 -32 -10 -29 -17 -36 -45 -40 -39 -6 -91 -38 -83 -51 6 -11 44 -12 44
-1 0 4 11 7 24 7 18 0 24 -5 24 -22 0 -13 -6 -23 -14 -23 -7 0 -19 -9 -27 -20
-14 -20 -47 -19 -47 1 0 14 -46 10 -59 -5 -9 -11 -9 -15 1 -19 10 -4 10 -8 -2
-16 -12 -9 -10 -11 10 -11 l25 -1 -26 -14 c-14 -8 -38 -16 -52 -19 -15 -2 -54
-19 -87 -37 -33 -17 -63 -29 -67 -25 -4 3 3 20 16 36 22 30 17 40 -9 18 -8 -7
-5 -2 6 12 12 14 27 35 33 47 6 12 23 23 38 25 19 2 27 10 30 27 2 17 -1 22
-12 17 -12 -4 -13 -2 -6 12 5 9 9 36 8 59 -1 50 21 79 66 89 27 6 29 8 14 19
-21 15 -12 25 24 25 18 0 38 10 55 28 15 15 24 22 20 16 -3 -7 0 -17 8 -23 20
-17 42 12 23 31 -7 7 -12 19 -9 26 3 11 -10 17 -31 13 -5 -1 -6 3 -2 9 3 6 11
8 16 5 5 -4 9 -2 9 4 0 15 -16 22 -34 15 -10 -4 -14 -13 -11 -24 3 -11 0 -20
-10 -24 -21 -8 -19 -26 3 -26 12 -1 9 -5 -11 -16 -17 -9 -36 -12 -50 -8 -12 5
-26 7 -31 5 -5 -1 -4 4 2 12 7 8 9 17 5 20 -3 4 0 8 8 9 8 0 19 2 24 3 6 2 16
3 23 4 6 0 12 10 12 20 0 11 4 22 9 25 4 3 7 17 6 30 -2 18 3 27 17 32 11 3
17 12 15 19 -3 7 0 18 6 24 8 8 7 11 -3 11 -8 0 -1 9 15 20 17 11 39 20 50 19
11 0 14 -3 8 -6 -7 -2 -13 -12 -13 -20 0 -8 -14 -33 -31 -54 -30 -38 -30 -39
-9 -39 19 0 20 -3 10 -15 -22 -27 0 -38 27 -13 18 17 23 31 20 51 -2 20 2 31
15 38 10 5 18 20 18 33 0 17 7 25 25 28 13 3 27 3 30 0 9 -9 5 -42 -5 -42 -5
0 -10 -5 -10 -11 0 -7 10 -9 24 -7 21 4 25 1 28 -20 4 -38 53 -41 98 -6 19 15
27 24 18 21 -10 -4 -18 -2 -18 3 0 6 7 10 16 10 10 0 14 6 11 15 -4 8 -1 17 4
21 7 4 7 10 1 16 -23 23 -1 38 52 35 42 -2 52 -5 49 -18z m-179 -32 c19 -18
23 -26 14 -35 -15 -15 -31 -16 -23 -2 4 6 -1 22 -9 35 -21 31 -14 32 18 2z
m1176 -8 c0 -5 -7 -9 -15 -9 -15 0 -20 12 -9 23 8 8 24 -1 24 -14z m218 4 c-6
-7 -7 -13 -2 -13 4 0 3 -5 -4 -12 -17 -17 -15 -31 3 -24 8 3 24 -4 35 -17 l21
-21 -21 -8 c-11 -4 -20 -11 -20 -17 0 -8 -59 -41 -74 -41 -4 0 -4 16 0 35 8
42 3 43 -30 9 -14 -16 -29 -23 -36 -19 -8 5 -2 14 19 27 17 11 31 28 31 38 0
11 5 22 11 26 6 3 8 15 6 26 -4 14 -1 18 8 14 8 -3 16 -2 19 2 2 4 14 8 25 8
15 0 17 -3 9 -13z m-288 -3 c0 -5 -2 -10 -4 -10 -3 0 -8 5 -11 10 -3 6 -1 10
4 10 6 0 11 -4 11 -10z m-435 -21 c4 -5 19 -9 35 -9 16 0 32 -5 36 -12 5 -8
11 -6 19 6 12 15 13 15 19 0 3 -9 12 -14 20 -11 17 7 50 -30 34 -39 -5 -4 -14
-1 -18 7 -14 22 -40 18 -57 -8 -16 -25 -16 -27 3 -42 l21 -16 -21 -18 c-12
-10 -14 -16 -6 -12 8 4 6 -1 -4 -9 -26 -21 -34 -20 -32 2 1 14 -8 17 -47 18
-35 1 -54 7 -72 24 -33 31 -32 43 4 35 17 -3 32 -2 36 4 3 6 -2 11 -12 11 -17
1 -17 1 -1 14 13 10 15 15 6 24 -9 9 -7 12 7 12 18 0 18 1 1 13 -16 12 -16 13
3 14 11 1 23 -2 26 -8z m329 -31 c2 -25 -10 -48 -26 -48 -6 0 -7 13 -3 31 6
25 4 30 -6 25 -8 -4 -6 -1 3 7 10 8 16 16 14 19 -1 3 2 2 7 -3 5 -4 10 -18 11
-31z m96 11 c0 -14 -17 -10 -23 5 -4 10 -1 13 9 9 7 -3 14 -9 14 -14z m490
-24 c0 -7 -5 -17 -12 -21 -8 -5 -9 0 -6 14 5 19 2 22 -20 22 -20 0 -23 3 -13
9 18 12 51 -4 51 -24z m-1930 21 c0 -2 -8 -10 -17 -17 -16 -13 -17 -12 -4 4
13 16 21 21 21 13z m1244 -54 c2 -46 0 -51 -22 -55 -14 -3 -47 6 -76 19 -48
22 -49 23 -21 25 17 1 35 0 40 -1 6 -2 21 -4 35 -4 20 -1 25 4 27 24 0 14 1
31 2 39 2 33 13 -1 15 -47z m598 25 c-32 -34 -27 -40 28 -34 27 3 52 2 55 -4
4 -5 15 -9 26 -9 10 0 19 -4 19 -9 0 -4 -39 -8 -86 -7 -47 1 -88 -2 -91 -6 -2
-5 -10 -8 -16 -8 -8 0 -7 4 2 9 8 5 19 24 25 43 6 18 16 33 23 33 6 0 15 3 19
8 19 18 15 4 -4 -16z m-440 1 c-16 -21 1 -43 33 -43 23 -1 29 -5 27 -18 -2
-11 4 -17 15 -17 25 0 65 -29 57 -41 -3 -5 -9 -7 -14 -4 -5 3 -12 0 -16 -6 -3
-6 0 -15 7 -20 11 -7 10 -9 -3 -9 -10 0 -18 6 -18 14 0 19 -19 31 -31 19 -6
-6 -2 -18 11 -33 11 -13 20 -24 20 -24 0 -6 -47 1 -57 7 -8 5 -11 1 -8 -14 3
-13 0 -29 -7 -36 -9 -11 -13 -10 -23 3 -8 12 -14 14 -19 6 -4 -7 -13 -12 -19
-12 -7 0 -4 5 6 11 9 6 15 14 12 20 -10 15 -45 10 -45 -6 0 -17 -35 -21 -45
-5 -3 6 0 10 7 10 8 0 7 5 -5 17 -22 23 -30 12 -19 -28 6 -26 13 -34 32 -34
31 0 37 -21 8 -29 -23 -7 -22 -9 20 -22 7 -2 10 -9 7 -14 -5 -8 -11 -8 -19 -1
-7 6 -21 8 -33 5 -16 -4 -20 -13 -19 -35 2 -26 -10 -39 -33 -39 -4 0 -8 18 -8
40 0 27 5 40 14 40 15 0 18 26 4 34 -5 4 -12 24 -16 46 -7 43 -18 50 -35 23
-7 -11 -10 -12 -7 -4 2 8 12 19 23 25 10 6 22 15 25 19 3 5 34 8 68 8 l61 0
-3 35 c-3 19 0 37 5 40 5 3 7 12 4 20 -3 8 -1 14 4 14 6 0 10 8 10 18 0 21 8
32 23 32 6 0 6 -5 -1 -12z m127 -31 c6 -8 8 -17 4 -20 -7 -7 -4 -8 36 -12 24
-2 56 -33 45 -44 -3 -3 -9 1 -13 8 -5 7 -14 10 -21 6 -13 -8 -60 31 -60 51 0
7 -6 15 -12 17 -8 4 -9 6 -2 6 6 1 17 -5 23 -12z m55 5 c2 -4 -4 -8 -14 -8
-10 0 -16 4 -14 8 3 4 9 8 14 8 5 0 11 -4 14 -8z m491 -22 c-3 -5 -12 -10 -18
-10 -7 0 -6 4 3 10 19 12 23 12 15 0z m-745 -30 c0 -18 -47 -56 -57 -46 -3 3
2 8 11 12 10 4 16 17 16 35 0 21 4 27 15 23 8 -4 15 -14 15 -24z m695 20 c-11
-5 -27 -9 -35 -9 -9 0 -8 4 5 9 11 5 27 9 35 9 9 0 8 -4 -5 -9z m-2018 -32
c-3 -8 -6 -5 -6 6 -1 11 2 17 5 13 3 -3 4 -12 1 -19z m1213 -22 c0 -18 -48
-54 -58 -44 -13 13 -35 0 -25 -15 4 -6 6 -29 4 -51 -2 -32 0 -38 13 -33 21 8
20 -2 0 -25 -16 -17 -18 -17 -29 -1 -11 15 -14 15 -27 2 -20 -20 -33 -73 -16
-63 7 4 2 -5 -11 -19 -13 -15 -21 -33 -18 -41 4 -9 1 -16 -6 -16 -8 0 -8 -3 2
-9 9 -6 10 -11 2 -15 -6 -4 -16 -16 -22 -28 -8 -15 -8 -19 0 -14 17 11 13 -20
-4 -34 -12 -10 -15 -9 -15 7 0 10 -5 24 -11 30 -12 12 -3 37 10 29 4 -3 13 0
21 5 13 8 12 12 -4 24 -19 15 -19 16 7 43 29 30 35 47 15 37 -7 -4 -5 0 5 8
18 15 23 37 8 37 -11 0 10 62 28 83 9 12 10 21 1 37 -9 17 -7 25 16 48 21 21
36 27 70 27 24 0 44 -4 44 -9z m609 -1 c10 -11 -23 -33 -58 -39 -20 -3 -46
-15 -56 -26 -19 -21 -45 -27 -45 -10 0 6 4 10 10 10 5 0 12 11 16 25 10 39 42
57 89 50 21 -3 41 -8 44 -10z m-235 -37 c19 -38 19 -38 2 -38 -7 0 -21 12 -31
26 -14 22 -15 28 -4 35 8 5 15 9 16 9 1 0 9 -14 17 -32z m271 22 c-3 -5 -11
-10 -16 -10 -6 0 -7 5 -4 10 3 6 11 10 16 10 6 0 7 -4 4 -10z m-315 -81 c0 -5
-4 -9 -10 -9 -5 0 -10 7 -10 16 0 8 5 12 10 9 6 -3 10 -10 10 -16z m-60 -39
c0 -5 -9 -8 -20 -7 -22 1 -27 13 -7 20 14 5 27 -1 27 -13z m-1766 -90 c-17
-39 -37 -66 -53 -75 -24 -12 -26 -11 -27 11 -1 15 5 25 17 29 10 4 19 11 19
17 0 5 14 27 30 48 17 21 31 44 31 51 1 8 3 7 6 -3 2 -10 -8 -45 -23 -78z
m566 71 c0 -5 -9 -11 -19 -14 -14 -3 -18 -1 -14 9 6 15 33 19 33 5z m1096 -16
c13 -28 7 -40 -13 -24 -14 12 -18 49 -5 49 4 0 12 -11 18 -25z m-641 -25 c17
-8 16 -8 -7 -7 -16 1 -28 5 -28 9 0 10 9 9 35 -2z m-978 -32 c-3 -7 -5 -2 -5
12 0 14 2 19 5 13 2 -7 2 -19 0 -25z m1380 10 c-3 -8 -6 -5 -6 6 -1 11 2 17 5
13 3 -3 4 -12 1 -19z m239 -3 c18 -14 17 -15 -12 -13 -22 1 -30 6 -27 15 7 17
15 16 39 -2z m-856 -5 c0 -5 11 -10 24 -10 30 0 42 -15 20 -24 -9 -4 -27 1
-40 9 -25 16 -32 35 -14 35 6 0 10 -4 10 -10z m-907 -38 c-6 -13 -25 -13 -24
1 1 4 1 14 1 22 0 13 2 13 14 3 7 -7 11 -19 9 -26z m1507 -2 c0 -5 -5 -10 -11
-10 -5 0 -7 5 -4 10 3 6 8 10 11 10 2 0 4 -4 4 -10z m-1573 -65 c0 -8 -6 -16
-14 -19 -16 -7 -17 6 -1 22 15 15 15 15 15 -3z m53 -4 c0 -5 -7 -12 -16 -15
-14 -5 -15 -4 -4 9 14 17 20 19 20 6z m743 3 c24 -9 -8 -56 -54 -78 -21 -10
-48 -29 -60 -42 -13 -13 -26 -24 -31 -24 -6 0 -107 -66 -176 -115 -15 -11 -16
-139 -2 -164 5 -9 10 -13 10 -9 0 4 8 1 19 -8 11 -10 16 -24 14 -35 -4 -13 0
-19 10 -19 9 0 19 -9 22 -20 3 -11 10 -20 15 -20 4 0 7 -8 6 -17 -1 -13 8 -19
31 -21 17 -2 37 -10 43 -17 10 -12 6 -15 -26 -13 -22 1 -43 0 -49 -1 -46 -14
-82 12 -89 62 -3 21 -15 55 -25 75 -42 79 -81 172 -81 192 0 11 8 24 18 27 9
4 20 11 24 17 4 6 12 12 18 12 5 1 12 3 15 4 3 1 8 3 13 4 24 4 71 30 67 36
-3 5 10 13 29 20 47 15 178 119 172 136 -3 8 5 14 22 17 15 2 28 5 29 6 1 0 8
-2 16 -5z m-808 -81 c-10 -18 -26 -29 -41 -29 -25 -2 -25 -1 -7 18 15 16 43
34 61 37 2 1 -4 -11 -13 -26z m70 18 c-3 -6 -20 -17 -37 -26 l-32 -15 24 25
c22 24 58 36 45 16z m1488 -55 c27 -1 31 -8 27 -55 -1 -14 2 -21 9 -17 15 10
29 -25 25 -63 -2 -19 -6 -37 -9 -39 -11 -11 -36 10 -52 43 -9 20 -27 38 -39
41 -19 5 -21 10 -14 38 4 19 3 41 -3 51 -8 16 -7 17 9 10 10 -4 31 -8 47 -9z
m-1252 -66 c-13 -11 -28 -20 -35 -20 -6 0 3 9 19 20 38 25 47 25 16 0z m-82
-131 c-6 -35 -11 -92 -11 -126 -1 -34 -5 -60 -9 -57 -5 2 -6 11 -2 19 12 33
-18 12 -34 -22 -17 -38 -17 -38 -21 -10 -2 16 3 34 12 43 19 19 21 38 4 31
-12 -4 -14 24 -9 112 1 11 11 21 24 25 13 3 29 17 37 31 7 14 15 24 16 22 2
-2 -1 -32 -7 -68z m1378 -306 c-3 -10 -5 -4 -5 12 0 17 2 24 5 18 2 -7 2 -21
0 -30z"/>
<path d="M1175 1909 c-7 -10 10 -28 28 -29 12 0 8 17 -7 29 -11 9 -16 9 -21 0z"/>
<path d="M1137 1893 c-14 -13 -6 -33 13 -33 11 0 20 4 20 9 0 13 -26 32 -33
24z"/>
<path d="M1333 1853 c-9 -3 -10 -10 -3 -24 11 -20 40 -26 40 -8 0 8 4 8 14 0
9 -8 16 -8 20 -2 4 5 -4 17 -16 25 -23 16 -34 18 -55 9z"/>
<path d="M1420 1804 c0 -9 5 -14 12 -12 18 6 21 28 4 28 -9 0 -16 -7 -16 -16z"/>
<path d="M1364 1785 c-9 -23 4 -47 23 -43 19 4 27 39 10 50 -18 12 -27 10 -33
-7z"/>
<path d="M1474 1775 c-18 -14 -18 -14 9 -15 15 0 27 4 27 9 0 18 -17 20 -36 6z"/>
<path d="M1116 1772 c-7 -12 11 -27 47 -41 17 -7 27 -7 27 -1 0 6 0 13 0 18 0
4 -9 8 -20 8 -11 1 -26 7 -34 13 -8 7 -17 8 -20 3z"/>
<path d="M1020 1744 c-7 -7 -16 -11 -21 -8 -11 6 -24 -24 -15 -33 3 -4 32 -7
64 -8 46 -1 57 -4 57 -18 0 -20 41 -51 55 -42 16 10 12 28 -5 21 -11 -4 -15 2
-15 23 0 23 -5 30 -29 34 -16 3 -30 14 -33 24 -6 23 -42 27 -58 7z m15 -24 c3
-5 1 -10 -4 -10 -6 0 -11 5 -11 10 0 6 2 10 4 10 3 0 8 -4 11 -10z"/>
<path d="M1235 1749 c-10 -15 1 -23 20 -15 9 3 13 10 10 16 -8 13 -22 13 -30
-1z"/>
<path d="M891 1708 c-5 -13 -5 -27 0 -32 10 -11 20 -4 23 16 1 7 5 19 9 26 5
8 2 12 -8 12 -8 0 -20 -10 -24 -22z"/>
<path d="M1411 1711 c-7 -5 -10 -14 -6 -20 5 -9 10 -9 21 0 26 22 14 38 -15
20z"/>
<path d="M1295 1700 c-8 -12 20 -24 35 -15 6 3 8 11 5 16 -8 12 -32 12 -40 -1z"/>
<path d="M1484 1689 c-8 -14 11 -33 25 -25 11 7 4 36 -9 36 -5 0 -12 -5 -16
-11z"/>
<path d="M989 1653 c-47 -57 -47 -57 -3 -35 22 11 46 28 53 36 12 14 10 16
-11 16 -14 0 -31 -8 -39 -17z"/>
<path d="M1364 1655 c-7 -18 14 -47 27 -39 5 3 9 0 9 -5 0 -6 -7 -11 -15 -11
-8 0 -15 5 -15 10 0 6 -7 10 -15 10 -18 0 -19 -14 -5 -41 14 -25 42 -24 66 4
22 25 31 72 15 82 -6 3 -11 1 -11 -4 0 -6 -7 -11 -15 -11 -8 0 -15 5 -15 10 0
16 -20 12 -26 -5z"/>
<path d="M865 1640 c-11 -17 5 -32 21 -19 8 6 14 15 14 20 0 12 -27 11 -35 -1z"/>
<path d="M1598 1631 c-16 -9 -28 -19 -28 -23 0 -13 55 -9 68 4 28 28 -1 42
-40 19z"/>
<path d="M720 1580 c-16 -29 6 -34 40 -10 17 12 30 23 30 24 0 2 -14 3 -30 4
-20 0 -33 -6 -40 -18z"/>
<path d="M843 1583 c-18 -6 -16 -33 1 -33 19 0 31 19 20 30 -5 4 -15 5 -21 3z"/>
<path d="M1575 1571 c-3 -5 -1 -12 5 -16 12 -7 30 2 30 16 0 12 -27 12 -35 0z"/>
<path d="M1703 1749 c10 -6 30 -12 45 -15 26 -4 26 -3 8 11 -11 8 -31 15 -45
15 -23 -1 -24 -2 -8 -11z"/>
<path d="M2134 1726 c-5 -13 -9 -14 -21 -5 -20 17 -40 -4 -20 -22 16 -15 11
-50 -7 -48 -6 1 -19 1 -30 0 -16 -1 -15 -4 8 -22 16 -13 33 -18 44 -14 12 4
13 8 4 14 -9 5 -5 11 14 20 15 6 24 15 20 18 -3 4 1 16 9 29 12 19 12 24 0 34
-12 10 -16 9 -21 -4z"/>
</g>
</svg>
