<?xml version="1.0" encoding="utf-8"?>
<!-- Generator: Adobe Illustrator 26.5.0, SVG Export Plug-In . SVG Version: 6.00 Build 0)  -->
<svg version="1.1" id="Capa_1" xmlns="http://www.w3.org/2000/svg" xmlns:xlink="http://www.w3.org/1999/xlink" x="0px" y="0px"
	 viewBox="0 0 612.1 135" style="enable-background:new 0 0 612.1 135;" xml:space="preserve">
<style type="text/css">
	.st0{fill:#444A52;}
	.st1{fill:#4E7E96;}
	.st2{font-family:'AlegreyaSans-Bold';}
	.st3{font-size:50.4px;}
</style>
<g>
	<path class="st0" d="M131.2,56.7h-1.7v-6.4c0-1.5-1.2-2.7-2.7-2.7c-1.5,0-2.7,1.2-2.7,2.7v6.4h-4.6v-6.4c0-1.5-1.2-2.7-2.7-2.7
		c-1.5,0-2.7,1.2-2.7,2.7v6.4h-1.7c-1.7,0-3,1.4-3,3c0,1.5,1,2.7,2.4,3v5.7c0,2.9,2,5.3,4.7,5.8v1.5c0,1.2,0.8,2.3,1.8,2.7
		c-4.3,30.7-37.6,38.9-56.5,22.2c-0.4-0.3-1-0.3-1.4,0.1c-0.4,0.4-0.3,1,0.1,1.4l0,0c20.1,17.8,55.3,8.8,59.7-23.4l3,0
		c-1,8.4-4.1,15.7-9.1,21.7c-0.4,0.4-0.3,1,0.1,1.4c0.4,0.3,1,0.3,1.4-0.1c5-6,8.5-13.7,9.6-23.1c1.3-0.3,2.2-1.5,2.2-2.9v-1.5
		c2.7-0.6,4.7-3,4.7-5.8v-5.7c1.4-0.3,2.4-1.5,2.4-3C134.3,58,132.9,56.7,131.2,56.7L131.2,56.7z M125.9,50.3c0-0.4,0.4-0.8,0.8-0.8
		c0.4,0,0.8,0.4,0.8,0.8v6.4h-1.6V50.3z M115.8,50.3c0-0.4,0.4-0.8,0.8-0.8c0.4,0,0.8,0.4,0.8,0.8v6.4h-1.6V50.3z M125.2,75.7
		c0,0.6-0.5,1-1,1c-0.2,0-5.2,0-5,0c-0.6,0-1-0.5-1-1v-1.3h7.1V75.7z M125.8,72.5c-11.7,0-7.3,0-8.3,0c-2.2,0-4.1-1.8-4.1-4.1v-5.6
		h16.4v5.6C129.9,70.7,128.1,72.5,125.8,72.5z M131.2,60.8c-22.4,0-18.6,0-19.1,0c-0.6,0-1.1-0.5-1.1-1.1c0-0.6,0.5-1.1,1.1-1.1
		h19.1c0.6,0,1.1,0.5,1.1,1.1C132.4,60.3,131.9,60.8,131.2,60.8z"/>
	<path class="st0" d="M112.7,104.6c0.4-0.4,0.4-1,0-1.4c-0.4-0.4-1-0.4-1.4,0c-0.4,0.4-0.4,1,0,1.4
		C111.8,105,112.4,104.9,112.7,104.6L112.7,104.6z"/>
	<path class="st0" d="M109.8,107.2c0.4-0.3,0.5-0.9,0.2-1.4c-0.3-0.4-1-0.5-1.4-0.2c-14.3,11.4-35.7,11.5-50.1-1.3
		c-0.4-0.3-1-0.3-1.4,0.1c-0.4,0.4-0.3,1,0.1,1.4C72.3,119.3,94.7,119.1,109.8,107.2L109.8,107.2z"/>
	<path class="st0" d="M41.2,92.7v6.4c0,1.5,1.2,2.7,2.7,2.7c1.5,0,2.7-1.2,2.7-2.7v-6.4h4.6v6.4c0,1.5,1.2,2.7,2.7,2.7
		c1.5,0,2.7-1.2,2.7-2.7v-6.4h1.7c1.7,0,3-1.4,3-3c0-1.5-1-2.7-2.4-3V81c0-2.9-2-5.3-4.7-5.8v-1.5c0-1.2-0.8-2.3-1.8-2.7
		c4.3-30.7,37.6-38.9,56.5-22.2c0.4,0.3,1,0.3,1.4-0.1c0.4-0.4,0.3-1-0.1-1.4c0,0,0,0,0,0c-20.2-18-55.3-8.6-59.7,23.4h-3
		c1-8.4,4.1-15.7,9.1-21.7c0.3-0.4,0.3-1-0.1-1.4c-0.4-0.3-1-0.3-1.4,0.1c-5.6,6.6-8.6,14.6-9.6,23.1c-1.3,0.3-2.2,1.5-2.2,2.9v1.5
		c-2.7,0.6-4.7,3-4.7,5.8v5.7c-1.4,0.3-2.4,1.5-2.4,3c0,1.7,1.4,3,3,3L41.2,92.7L41.2,92.7z M44.7,99.1c0,0.4-0.4,0.8-0.8,0.8
		c-0.4,0-0.8-0.4-0.8-0.8v-6.4h1.6L44.7,99.1L44.7,99.1z M54.8,99.1c0,0.4-0.4,0.8-0.8,0.8c-0.4,0-0.8-0.4-0.8-0.8v-6.4h1.6
		L54.8,99.1L54.8,99.1z M45.4,73.6c0-0.6,0.5-1,1-1c0,0,5,0,5,0c0.6,0,1,0.5,1,1V75h-7.1L45.4,73.6L45.4,73.6z M44.5,76.9
		c0.3,0-0.4,0,8.6,0c2.2,0,4.1,1.8,4.1,4.1v5.6H40.7V81C40.7,78.8,42.4,77.1,44.5,76.9z M38.3,89.7c0-0.6,0.5-1.1,1.1-1.1h0.3
		c0,0,0,0,0,0c20.1,0,18.6,0,18.7,0c0.6,0,1.1,0.5,1.1,1.1c0,0.6-0.5,1.1-1.1,1.1c-16.2,0-0.2,0-19.1,0
		C38.8,90.8,38.3,90.3,38.3,89.7z"/>
	<path class="st0" d="M60.8,43.6c0.3,0.4,1,0.5,1.4,0.2C76.7,32.2,98,32.3,112.3,45c0.4,0.4,1,0.3,1.4-0.1c0.4-0.4,0.3-1-0.1-1.4
		C98.4,30.1,76,30.3,61,42.2C60.6,42.5,60.5,43.1,60.8,43.6L60.8,43.6z"/>
	<path class="st0" d="M58,44.8C58,44.8,58,44.8,58,44.8c-0.4,0.4-0.4,1,0,1.4c0.4,0.4,1,0.4,1.4,0c0,0,0,0,0,0c0.4-0.4,0.4-1,0-1.4
		C59,44.5,58.4,44.5,58,44.8z"/>
	<path class="st0" d="M93.1,80.7c-0.3,0.4-0.2,1,0.3,1.3c0.4,0.3,1.1,0.2,1.3-0.3l5.6-8.3c1.3-1.9-0.1-4.4-2.3-4.4H87.4l5.1-17.9
		c0.9-3.1-3.3-5-5-2.4L69.6,75.2c-1.3,1.9,0.1,4.4,2.3,4.4h10.7l-5.1,17.9c-0.9,3.1,3.3,5,5,2.4l7.9-11.6c0.3-0.4,0.2-1-0.3-1.3
		c-0.4-0.3-1.1-0.2-1.3,0.3l-7.9,11.6c-0.6,0.9-1.8,0.2-1.6-0.7l5.5-19.1c0.2-0.6-0.3-1.2-0.9-1.2H72c-0.7,0-1.1-0.8-0.7-1.4
		l17.8-26.3c0.6-0.9,1.9-0.2,1.6,0.8l-5.5,19.1C85,70.4,85.4,71,86.1,71H98c0.7,0,1.1,0.8,0.7,1.4L93.1,80.7z"/>
	<path class="st0" d="M92.3,83.7c-0.4-0.3-1.1-0.2-1.3,0.3c-0.3,0.4-0.2,1,0.3,1.3c0.4,0.3,1,0.2,1.3-0.3
		C92.9,84.6,92.7,84,92.3,83.7z"/>
</g>
<g>
	<g>
		<path class="st1" d="M370.9,99.3c-0.2,0-0.5,0-0.7-0.1c-0.9-0.3-1.5-1.1-1.5-2V80.2h-8c-0.8,0-1.5-0.5-1.9-1.2
			c-0.4-0.7-0.3-1.6,0.2-2.2l20.3-26.7c0.6-0.8,1.6-1,2.5-0.7c0.9,0.3,1.4,1.2,1.3,2.2l-1.7,17.4h9.1c0.8,0,1.5,0.5,1.9,1.2
			c0.4,0.7,0.3,1.6-0.2,2.2l-19.7,26.1C372.2,99,371.6,99.3,370.9,99.3L370.9,99.3z M365,75.9h5.9c1.2,0,2.1,0.9,2.1,2.1v12.7
			l13.3-17.6h-7.2c-0.6,0-1.2-0.3-1.6-0.7c-0.4-0.4-0.6-1-0.5-1.6l1.2-12.3L365,75.9z"/>
		<g>
			<path class="st1" d="M370.5,46.9c-1.2,0-2.1-0.9-2.1-2.1l0-11.7l-12.6,3.4c-1.1,0.3-2.3-0.4-2.6-1.5c-0.3-1.1,0.4-2.3,1.5-2.6
				l15.3-4.1c0.6-0.2,1.3,0,1.8,0.4c0.5,0.4,0.8,1,0.8,1.7l0,14.4C372.6,45.9,371.7,46.9,370.5,46.9
				C370.5,46.9,370.5,46.9,370.5,46.9L370.5,46.9z"/>
			<path class="st1" d="M389.6,121.3c-0.3,0-0.6-0.1-0.9-0.2l-14.1-6.5c-0.6-0.3-1.1-0.9-1.2-1.5c-0.1-0.7,0.1-1.4,0.5-1.9
				l10.3-10.9c0.8-0.9,2.2-0.9,3-0.1c0.9,0.8,0.9,2.2,0.1,3l-8.3,8.7l11.5,5.3c1.1,0.5,1.5,1.8,1,2.8
				C391.2,120.8,390.4,121.3,389.6,121.3L389.6,121.3z"/>
			<path class="st1" d="M375.5,114.7c-1.2,0-2.1-1-2.1-2.1c0-1.2,1-2.1,2.1-2.1c17,0,30.8-13.8,30.8-30.7c0-17.2-32-53.3-32.3-53.7
				c-0.8-0.9-0.7-2.2,0.2-3c0.9-0.8,2.2-0.7,3,0.2c1.4,1.5,33.4,37.8,33.4,56.5C410.5,99,394.8,114.7,375.5,114.7z"/>
			<path class="st1" d="M367.1,113.6c-0.2,0-0.4,0-0.5-0.1c-15.4-4-26.1-18-26.1-33.8c0-14.1,17.8-37.8,28.4-50.6
				c0.7-0.9,2.1-1,3-0.3c0.9,0.7,1,2.1,0.3,3c-8.3,10-27.4,34.7-27.5,47.9c0,14,9.4,26.2,22.9,29.7c1.1,0.3,1.8,1.5,1.5,2.6
				C368.9,113,368,113.6,367.1,113.6L367.1,113.6z"/>
		</g>
	</g>
</g>
<text transform="matrix(1 0 0 1 158.2723 85.9184)" class="st0 st2 st3">25 min</text>
<g>
	<text transform="matrix(1 0 0 1 435.9647 85.9184)" class="st1 st2 st3">2 min</text>
</g>
</svg>
