<?xml version="1.0" encoding="utf-8"?>
<!-- Generator: Adobe Illustrator 26.5.0, SVG Export Plug-In . SVG Version: 6.00 Build 0)  -->
<svg version="1.1" id="Capa_1" xmlns="http://www.w3.org/2000/svg" xmlns:xlink="http://www.w3.org/1999/xlink" x="0px" y="0px"
	 viewBox="0 0 515 381.6" style="enable-background:new 0 0 515 381.6;" xml:space="preserve">
<style type="text/css">
	.st0{fill:#483537;}
	.st1{fill:#543E41;}
	.st2{fill:#5D4548;}
	.st3{fill:#E2C23D;}
	.st4{fill:#DB9840;}
	.st5{fill:#E2C247;}
	.st6{fill:#9C7C21;}
	.st7{fill:#E5CA5E;}
	.st8{fill:#B99029;}
	.st9{fill:#C4A83D;}
	.st10{fill:#DCAB31;}
	.st11{fill:#F8F1CC;}
	.st12{fill:#CB9E2D;}
	.st13{fill:#806153;}
	.st14{fill:#6C514A;}
	.st15{fill:#3D3C3F;}
	.st16{fill:#615F62;}
</style>
<g>
	<g>
		<path class="st0" d="M192.3,248.9c0,25.8-18.3,36.3-40.8,23.3s-40.8-44.5-40.8-70.4s18.3-36.3,40.8-23.3S192.3,223.1,192.3,248.9z
			"/>
	</g>
	<polygon class="st0" points="180,275.3 150.4,292.4 91.2,193.9 123.8,175 	"/>
	<g>
		<path class="st1" d="M162.5,266.1c0,25.8-18.3,36.3-40.8,23.3c-22.5-13-40.8-44.5-40.8-70.4s18.3-36.3,40.8-23.3
			C144.2,208.8,162.5,240.3,162.5,266.1z"/>
		
			<ellipse transform="matrix(0.8633 -0.5047 0.5047 0.8633 -105.7841 94.585)" class="st2" cx="121.7" cy="242.6" rx="29.9" ry="51.8"/>
		<path class="st1" d="M150,258.9c0,17.9-12.7,25.1-28.3,16.1c-15.6-9-28.3-30.8-28.3-48.8s12.7-25.1,28.3-16.1
			C137.3,219.1,150,241,150,258.9z"/>
		<path class="st3" d="M144,255.4c0,14.1-10,19.8-22.3,12.7c-12.3-7.1-22.3-24.3-22.3-38.5c0-14.1,10-19.8,22.3-12.7
			C134,224.1,144,241.3,144,255.4z"/>
		<path class="st4" d="M139.8,253c0,11.5-8.1,16.1-18.1,10.3c-10-5.8-18.1-19.8-18.1-31.3c0-11.5,8.1-16.1,18.1-10.3
			C131.7,227.5,139.8,241.5,139.8,253z"/>
		<path class="st3" d="M133.6,249.4c0,7.5-5.3,10.6-11.9,6.8c-6.6-3.8-11.9-13-11.9-20.5c0-7.5,5.3-10.6,11.9-6.8
			C128.3,232.7,133.6,241.9,133.6,249.4z"/>
	</g>
	<g>
		<g>
			<path class="st0" d="M450.4,245.7c0,25.8-18.3,36.3-40.8,23.3c-22.5-13-40.8-44.5-40.8-70.4s18.3-36.3,40.8-23.3
				C432.2,188.4,450.4,219.9,450.4,245.7z"/>
		</g>
		<g>
			<path class="st0" d="M324.1,172.8c0,25.8-18.3,36.3-40.8,23.3c-22.5-13-40.8-44.5-40.8-70.4c0-25.8,18.3-36.3,40.8-23.3
				C305.8,115.5,324.1,147,324.1,172.8z"/>
		</g>
		<g>
			<path class="st1" d="M420.7,262.9c0,25.8-18.3,36.3-40.8,23.3c-22.5-13-40.8-44.5-40.8-70.4s18.3-36.3,40.8-23.3
				C402.4,205.6,420.7,237.1,420.7,262.9z"/>
			<path class="st2" d="M416.6,260.6c0,23.3-16.4,32.7-36.7,20.9c-20.3-11.7-36.7-40.1-36.7-63.4s16.4-32.7,36.7-20.9
				C400.2,208.9,416.6,237.3,416.6,260.6z"/>
			<path class="st1" d="M408.1,255.7c0,17.9-12.7,25.1-28.3,16.1c-15.6-9-28.3-30.8-28.3-48.8s12.7-25.1,28.3-16.1
				C395.5,216,408.1,237.8,408.1,255.7z"/>
			<path class="st3" d="M402.2,252.3c0,14.1-10,19.8-22.3,12.7c-12.3-7.1-22.3-24.3-22.3-38.5c0-14.1,10-19.8,22.3-12.7
				C392.2,220.9,402.2,238.1,402.2,252.3z"/>
			<path class="st4" d="M398,249.9c0,11.5-8.1,16.1-18.1,10.3c-10-5.8-18.1-19.8-18.1-31.3c0-11.5,8.1-16.1,18.1-10.3
				C389.9,224.3,398,238.4,398,249.9z"/>
			<path class="st3" d="M391.7,246.2c0,7.5-5.3,10.6-11.9,6.8c-6.6-3.8-11.9-13-11.9-20.5c0-7.5,5.3-10.6,11.9-6.8
				C386.4,229.5,391.7,238.7,391.7,246.2z"/>
		</g>
		<g>
			<path class="st1" d="M294.3,190c0,25.8-18.3,36.3-40.8,23.3c-22.5-13-40.8-44.5-40.8-70.4c0-25.8,18.3-36.3,40.8-23.3
				C276.1,132.6,294.3,164.1,294.3,190z"/>
			<path class="st2" d="M290.3,187.7c0,23.3-16.4,32.7-36.7,20.9c-20.3-11.7-36.7-40.1-36.7-63.4s16.4-32.7,36.7-20.9
				C273.8,136,290.3,164.4,290.3,187.7z"/>
			<path class="st1" d="M281.8,182.8c0,17.9-12.7,25.1-28.3,16.1c-15.6-9-28.3-30.8-28.3-48.8s12.7-25.1,28.3-16.1
				S281.8,164.9,281.8,182.8z"/>
			<path class="st3" d="M275.9,179.3c0,14.1-10,19.8-22.3,12.7c-12.3-7.1-22.3-24.3-22.3-38.5s10-19.8,22.3-12.7
				C265.9,148,275.9,165.2,275.9,179.3z"/>
			<path class="st4" d="M271.7,176.9c0,11.5-8.1,16.1-18.1,10.3c-10-5.8-18.1-19.8-18.1-31.3c0-11.5,8.1-16.1,18.1-10.3
				C263.6,151.4,271.7,165.4,271.7,176.9z"/>
			<path class="st3" d="M265.4,173.3c0,7.5-5.3,10.6-11.9,6.8c-6.6-3.8-11.9-13-11.9-20.5c0-7.5,5.3-10.6,11.9-6.8
				C260.1,156.6,265.4,165.8,265.4,173.3z"/>
		</g>
	</g>
	<polygon class="st5" points="194.6,34.4 41.5,122.8 167.8,229.6 320.9,141.2 	"/>
	<polygon class="st6" points="289.3,114.2 217.7,164.4 187.2,240.8 289.3,181.8 	"/>
	<polygon class="st7" points="434.3,197.4 339.1,142.4 237,201.3 332.3,256.3 	"/>
	<polygon class="st8" points="426.1,266.1 450.8,280.3 450.8,263.1 426.1,248.9 	"/>
	<polygon class="st7" points="426.1,248.9 460.7,268.8 473.5,261.5 438.9,241.5 	"/>
	<g>
		<polygon class="st8" points="429.3,199.1 406.5,186 343.9,149.8 334.1,151.6 337.9,160.5 346,159.1 410.8,196.5 418.7,216 
			434.3,225.1 434.3,202 		"/>
		<polygon class="st5" points="343.9,149.8 434.3,202 464.1,184.9 373.7,132.7 		"/>
		<polygon class="st9" points="343.9,149.8 334.1,151.6 363.9,134.4 373.7,132.7 		"/>
		<polygon class="st10" points="434.3,220 434.3,202 464.1,184.9 464.1,202.8 		"/>
		<polygon class="st11" points="436.9,203.5 461.6,189.3 461.6,201.3 436.9,215.6 		"/>
	</g>
	<g>
		<polygon class="st8" points="362.4,51.8 353.7,71 257.6,15.5 208.5,8.5 203.1,29.5 329.4,136.3 348.8,147.5 379.3,71.1 
			461.3,113.3 461.3,108.9 		"/>
	</g>
	<polygon class="st5" points="249.1,20.4 199.9,13.5 208.5,8.5 257.6,15.5 	"/>
	<polygon class="st7" points="249.1,20.4 348,77.5 356.5,72.6 257.6,15.5 	"/>
	<polygon class="st7" points="429.3,199.1 406.5,186 343.9,149.8 334.1,151.6 337.9,160.5 346,159.1 410.8,196.5 418.7,216 
		434.3,225.1 434.3,202 	"/>
	<g>
		<polygon class="st10" points="353.9,56.7 345.2,75.9 249.1,20.4 199.9,13.5 194.6,34.4 320.9,141.2 340.3,152.4 370.8,76 
			452.8,118.2 452.8,113.8 		"/>
		<g>
			<polygon class="st5" points="339.6,89.6 339.3,90.3 337.7,94.5 336.3,98.5 328.2,120.3 325.6,127.1 214.1,33.5 226.9,35.4 
				227,35.4 237.9,36.9 249.7,38.6 251.8,38.9 			"/>
			<polygon class="st12" points="339.6,89.6 339.3,90.3 337.7,94.5 336.3,98.5 328.2,120.3 226.9,35.4 226.9,35.3 227,35.4 
				237.9,36.9 249.7,38.6 251.8,38.9 			"/>
			<polygon class="st5" points="338.7,92 337.7,94.5 237.9,36.9 244.9,37.9 			"/>
			<polygon class="st10" points="337.7,94.5 336.3,98.5 227,35.4 237.9,36.9 			"/>
		</g>
	</g>
	<polygon class="st13" points="205.7,29.4 52.5,117.8 101.3,132.7 254.4,44.3 	"/>
	<polygon class="st14" points="286.7,65.1 133.6,153.5 101.3,132.7 254.4,44.3 	"/>
	<polygon class="st13" points="286.7,65.1 133.6,153.5 195.6,171 348.7,82.6 	"/>
	<polygon class="st8" points="332.3,256.3 237,201.3 237,268.9 332.3,323.9 	"/>
	<polygon class="st10" points="434.3,197.4 332.3,256.3 332.3,323.9 434.3,265 	"/>
	<g>
		<polygon class="st8" points="356.3,230.9 271,181.7 271,166.9 356.3,216.1 		"/>
		<polygon class="st15" points="356.3,216.1 296.1,181.4 296.1,142.5 346.7,171.7 		"/>
		<polygon class="st15" points="271,166.9 296.1,181.4 296.1,142.5 283.6,135.2 		"/>
	</g>
	<g>
		<path class="st0" d="M318.6,321.9c0,25.8-18.3,36.3-40.8,23.3c-22.5-13-40.8-44.5-40.8-70.4c0-25.8,18.3-36.3,40.8-23.3
			C300.3,264.5,318.6,296,318.6,321.9z"/>
	</g>
	<polygon class="st0" points="306.3,348.2 276.7,365.3 217.5,266.8 250.2,247.9 	"/>
	<g>
		<path class="st1" d="M288.8,339c0,25.8-18.3,36.3-40.8,23.3c-22.5-13-40.8-44.5-40.8-70.4s18.3-36.3,40.8-23.3
			C270.6,281.7,288.8,313.2,288.8,339z"/>
		<path class="st2" d="M284.8,336.7c0,23.3-16.4,32.7-36.7,20.9c-20.3-11.7-36.7-40.1-36.7-63.4s16.4-32.7,36.7-20.9
			C268.3,285.1,284.8,313.4,284.8,336.7z"/>
		<path class="st1" d="M276.3,331.8c0,17.9-12.7,25.1-28.3,16.1s-28.3-30.8-28.3-48.8c0-17.9,12.7-25.1,28.3-16.1
			C263.6,292.1,276.3,313.9,276.3,331.8z"/>
		<path class="st3" d="M270.3,328.4c0,14.1-10,19.8-22.3,12.7c-12.3-7.1-22.3-24.3-22.3-38.5c0-14.1,10-19.8,22.3-12.7
			C260.4,297,270.3,314.2,270.3,328.4z"/>
		<path class="st4" d="M266.2,326c0,11.5-8.1,16.1-18.1,10.3c-10-5.8-18.1-19.8-18.1-31.3c0-11.5,8.1-16.1,18.1-10.3
			C258,300.5,266.2,314.5,266.2,326z"/>
		<path class="st3" d="M259.9,322.4c0,7.5-5.3,10.6-11.9,6.8c-6.6-3.8-11.9-13-11.9-20.5c0-7.5,5.3-10.6,11.9-6.8
			C254.6,305.7,259.9,314.8,259.9,322.4z"/>
	</g>
	<polygon class="st8" points="345,316.6 361.5,326.1 361.5,258.5 345,249 	"/>
	<polygon class="st8" points="327.2,258.1 304.5,244.9 241.9,208.8 232,210.5 235.9,219.5 244,218 308.7,255.4 316.6,275 332.3,284 
		332.3,261 	"/>
	<polygon class="st5" points="96,108.8 46.8,101.8 55.4,96.9 104.5,103.9 	"/>
	<polygon class="st7" points="96,108.8 194.9,165.9 203.4,161 104.5,103.9 	"/>
	<g>
		<polygon class="st10" points="200.8,145.1 192.1,164.3 96,108.8 46.8,101.8 41.5,122.8 167.8,229.6 187.2,240.8 217.7,164.4 
			299.7,206.6 299.7,202.2 		"/>
		<g>
			<polygon class="st5" points="186.5,177.9 186.2,178.7 184.6,182.9 183.2,186.9 175.1,208.6 172.5,215.5 61,121.9 73.8,123.7 
				73.9,123.7 84.8,125.3 96.6,127 98.7,127.3 			"/>
			<polygon class="st12" points="186.5,177.9 186.2,178.7 184.6,182.9 183.2,186.9 175.1,208.6 73.8,123.7 73.8,123.7 73.9,123.7 
				84.8,125.3 96.6,127 98.7,127.3 			"/>
			<polygon class="st5" points="185.6,180.4 184.6,182.9 84.8,125.3 91.8,126.3 			"/>
			<polygon class="st10" points="184.6,182.9 183.2,186.9 73.9,123.7 84.8,125.3 			"/>
		</g>
	</g>
	<polygon class="st7" points="311.3,315.2 336,329.4 348.7,322 324.1,307.8 	"/>
	<polygon class="st10" points="311.3,332.4 345.9,352.4 345.9,335.1 311.3,315.2 	"/>
	<g>
		<polygon class="st10" points="415.9,196.6 356.3,230.9 356.3,216.1 415.9,181.8 		"/>
		<polygon class="st16" points="415.9,181.8 356.3,216.1 346.7,171.7 406.2,137.3 		"/>
		<polygon class="st8" points="346.7,171.7 283.6,135.2 343.1,100.9 406.2,137.3 		"/>
	</g>
	<polygon class="st7" points="345,249 361.5,258.5 438,214.3 421.6,204.8 	"/>
	<polygon class="st10" points="361.5,326.1 438,281.9 438,214.3 361.5,258.5 	"/>
	<polygon class="st0" points="365.7,260.9 433.8,221.6 433.8,279.4 365.7,318.7 	"/>
	<polygon class="st10" points="473.5,278.7 345.9,352.4 345.9,335.1 473.5,261.5 	"/>
	<polygon class="st7" points="345.9,335.1 336,329.4 463.6,255.7 473.5,261.5 	"/>
	<g>
		<polygon class="st8" points="297.5,275.3 274.7,262.1 212.1,226 202.3,227.7 206.1,236.6 214.2,235.2 278.9,272.6 286.8,287.1 
			302.5,296.1 302.5,278.2 		"/>
		<polygon class="st5" points="212.1,226 302.5,278.2 332.3,261 241.9,208.8 		"/>
		<polygon class="st7" points="200.8,145.1 299.7,202.2 461.3,108.9 362.4,51.8 		"/>
		<polygon class="st10" points="299.7,206.6 299.7,202.2 461.3,108.9 461.3,113.3 		"/>
		<polygon class="st9" points="212.1,226 202.3,227.7 232,210.5 241.9,208.8 		"/>
		<polygon class="st10" points="302.5,296.1 302.5,278.2 332.3,261 332.3,278.9 		"/>
		<polygon class="st11" points="305.1,279.6 329.7,265.4 329.7,277.4 305.1,291.7 		"/>
	</g>
</g>
</svg>
