<?xml version="1.0" encoding="utf-8"?>
<!-- Generator: Adobe Illustrator 26.5.0, SVG Export Plug-In . SVG Version: 6.00 Build 0)  -->
<svg version="1.1" id="Capa_1" xmlns="http://www.w3.org/2000/svg" xmlns:xlink="http://www.w3.org/1999/xlink" x="0px" y="0px"
	 viewBox="0 0 515 381.6" style="enable-background:new 0 0 515 381.6;" xml:space="preserve">
<style type="text/css">
	.st0{fill:#313230;}
	.st1{fill:#424240;}
	.st2{fill:#50504E;}
	.st3{fill:#1C1E21;}
	.st4{fill:#141213;}
	.st5{fill:#232528;}
	.st6{fill:#779E68;}
	.st7{fill:#F0EBEF;}
	.st8{fill:#82B058;}
	.st9{fill:#4C6D3F;}
	.st10{fill:#7B827E;}
	.st11{fill:#D5D2D8;}
	.st12{fill:#3A3A3A;}
	.st13{fill:#D8E4D2;}
	.st14{fill:#1F1E25;}
	.st15{fill:#26282B;}
	.st16{fill:#B3B1B6;}
	.st17{fill:#8E8E94;}
	.st18{fill:#AEA7AD;}
	.st19{fill:#ACA7A8;}
	.st20{fill:#25262F;}
	.st21{fill:#96251D;}
	.st22{fill:#FCFCFB;}
	.st23{fill:#514140;}
	.st24{fill:#182514;}
	.st25{fill:#1F321C;}
	.st26{fill:#AEAAB7;}
	.st27{fill:#B3AFBB;}
	.st28{fill:#262624;}
	.st29{fill:#292927;}
	.st30{fill:#26262F;}
	.st31{fill:#2B2B35;}
	.st32{fill:#2F2F39;}
	.st33{fill:#212121;}
	.st34{fill:#3F622F;}
	.st35{fill:#F5F2F7;}
	.st36{fill:#464644;}
	.st37{fill:#BFBBC6;}
	.st38{fill:#CCC9D1;}
	.st39{fill:#C4C0CA;}
	.st40{fill:#507342;}
	.st41{fill:#57794B;}
	.st42{fill:#E2E1E5;}
	.st43{fill:#A7454A;}
	.st44{fill:#ADA8B5;}
	.st45{fill:#5A645E;}
	.st46{fill:#D79F62;}
	.st47{fill:#B37B45;}
	.st48{fill:#D09855;}
	.st49{fill:#E7BF69;}
	.st50{fill:#81391D;}
	.st51{fill:#393131;}
	.st52{fill:#9E4448;}
	.st53{fill:#953034;}
	.st54{fill:#F1EFEC;}
	.st55{fill:#605151;}
	.st56{fill:#2B2A29;}
	.st57{fill:#2D2D2B;}
	.st58{fill:#B5B3B3;}
	.st59{fill:#2C2C2A;}
	.st60{fill:#908A8F;}
	.st61{fill:#A6A1A6;}
	.st62{fill:#B8B3B6;}
	.st63{fill:#C5D6B8;}
	.st64{fill:#CB695D;}
	.st65{fill:#E8E5E0;}
	.st66{fill:#C8C2B9;}
	.st67{fill:#BE7033;}
	.st68{fill:#D99340;}
	.st69{fill:#BD6C37;}
	.st70{fill:#AEA699;}
	.st71{fill:#505057;}
	.st72{fill:#262523;}
	.st73{fill:#1F1F1E;}
	.st74{fill:#858093;}
	.st75{fill:#BABAB9;}
	.st76{fill:#DBDBD9;}
	.st77{fill:#1B1A19;}
	.st78{fill:#6B647C;}
	.st79{fill:#A1A0A5;}
	.st80{fill:#B3B2B6;}
	.st81{fill:#57575F;}
	.st82{fill:#76757C;}
	.st83{fill:#D5D1D2;}
	.st84{fill:#C4BFC0;}
</style>
<g>
	<g>
		<polygon class="st0" points="43,311.8 42.4,314.9 42.4,304.9 43,301.8 		"/>
		<polygon class="st1" points="48.2,297.6 50.6,298.9 43.8,302.8 44.4,299.8 		"/>
		<polygon class="st2" points="43,301.8 42.4,304.9 43.8,302.8 44.4,299.8 		"/>
		<path class="st3" d="M227.2,264.5v11.7c0,2.5-22.2,12-20,13.3l10.2,20.6c0.7,0.4,31.4-17.9,32-18.4c0.5-0.4,0.8-0.9,0.8-1.6v-11.7
			c0-2.5-1.4-4.9-3.5-6.1l-16.5-9.5C228.9,262,227.2,263,227.2,264.5z"/>
		<path class="st4" d="M196,282.5v11.7c0,2.5,1.4,4.9,3.5,6.1l16.5,9.5c1.3,0.8,3-0.2,3-1.7v-11.7c0-2.5-1.4-4.9-3.5-6.1l-16.5-9.5
			C197.7,280,196,281,196,282.5z"/>
		<polygon class="st5" points="219.1,308.1 250.3,290.1 250.3,278.5 219.1,296.5 		"/>
		<polygon class="st6" points="347.8,13.8 350.6,15.5 357,22.8 368.2,108.1 331.4,122.3 317,31.6 		"/>
		<path class="st7" d="M429.6,193.9l30.3-17.5L429.6,193.9z"/>
		<polygon class="st8" points="354.5,30.2 362.6,26 373.8,111.3 336.9,125.5 323.7,48 		"/>
		<polygon class="st9" points="350.6,15.5 359.8,24.4 371,109.7 334.1,123.9 319.8,33.2 		"/>
		<g>
			<polygon class="st7" points="423.2,70.8 425,69.8 425,51 423.2,52 			"/>
			<polygon class="st7" points="416.9,48.4 418.7,47.4 425,51 423.2,52 			"/>
			<polygon class="st10" points="423.2,70.8 416.9,67.2 416.9,48.4 423.2,52 			"/>
			<polygon class="st7" points="367.6,38.8 369.4,37.7 369.4,18.9 367.6,20 			"/>
			<g>
				<rect x="364.1" y="30.7" class="st11" width="1.7" height="15.6"/>
			</g>
			<polygon class="st10" points="367.6,38.8 361.4,35.2 361.4,16.4 367.6,20 			"/>
			<g>
				<path class="st12" d="M364.5,27.6v15.6V27.6z"/>
				<path class="st11" d="M364.5,43.2L364.5,43.2c0.5,0,0.8-0.4,0.8-0.8v-14c0-0.5-0.4-0.8-0.8-0.8l0,0c-0.5,0-0.8,0.4-0.8,0.8v14
					C363.7,42.8,364.1,43.2,364.5,43.2z"/>
			</g>
			<polygon class="st7" points="361.4,16.4 363.2,15.3 369.4,18.9 367.6,20 			"/>
			<polygon class="st13" points="319.8,39.9 351,30.8 386.5,73.6 382.9,126.2 354,142.9 327.7,132.4 			"/>
			<polygon class="st14" points="239,190.9 303.8,153.5 303.8,177.9 239,215.3 			"/>
			<polygon class="st15" points="330,141 116.7,264.1 116.7,243.3 330,120.1 			"/>
			<polygon class="st7" points="138.7,131.6 156.3,121.4 156.3,226.6 138.7,236.7 			"/>
			<g>
				<polygon class="st15" points="85.2,287 85.2,301.5 47.7,323.2 47.7,308.7 				"/>
				<polygon class="st14" points="47.7,319.6 85.2,297.9 85.2,301.5 47.7,323.2 				"/>
				<polygon class="st11" points="54.7,207.2 58.5,202.6 111.4,172 115,172.3 116.5,214.9 116.5,243.4 93.6,256.6 86.2,286.5 
					47.7,308.7 47.7,296.6 45.7,296.1 45.7,262.8 47.7,260 				"/>
				<polygon class="st12" points="86.2,286.5 89,284.8 95.1,262.5 120.8,247.6 127.2,245.7 132.1,252.2 132.1,262.4 134.9,260.8 
					134.9,247.3 128.1,238.8 120.8,240.9 93.6,256.6 				"/>
				<path class="st4" d="M89.9,294.1c0,12.2,8.6,17.1,19.2,11c10.6-6.1,19.2-21,19.2-33.2c0-12.2-8.6-17.1-19.2-11
					C98.5,267,89.9,281.9,89.9,294.1z"/>
				<g>
					<path class="st16" d="M96.4,290.3c0,8.1,5.7,11.3,12.7,7.3c7-4.1,12.7-13.9,12.7-22s-5.7-11.3-12.7-7.3
						C102.1,272.4,96.4,282.3,96.4,290.3z"/>
					<path class="st17" d="M97.2,289.9c0,7.6,5.3,10.6,11.9,6.8c6.6-3.8,11.9-13,11.9-20.6c0-7.6-5.3-10.6-11.9-6.8
						C102.6,273.1,97.2,282.3,97.2,289.9z"/>
					<path class="st18" d="M100.5,288c0,5.5,3.9,7.7,8.7,5c4.8-2.8,8.7-9.5,8.7-15c0-5.5-3.9-7.7-8.7-5
						C104.4,275.8,100.5,282.5,100.5,288z"/>
					<path class="st4" d="M105.6,285c0,2.2,1.6,3.2,3.5,2c2-1.1,3.5-3.9,3.5-6.1s-1.6-3.2-3.5-2C107.2,280,105.6,282.8,105.6,285z"
						/>
					<path class="st4" d="M113.3,273.7c0,0.7-0.5,1.5-1.1,1.8c-0.6,0.3-1.1,0.1-1.1-0.6c0-0.7,0.5-1.5,1.1-1.8
						C112.8,272.8,113.3,273,113.3,273.7z"/>
					<path class="st4" d="M107.8,275.5c0.4,0.2,0.4,1,0,1.7c-0.4,0.7-1.1,1.1-1.5,0.9c-0.4-0.2-0.4-1,0-1.7
						C106.7,275.7,107.4,275.3,107.8,275.5z"/>
					<path class="st4" d="M103.1,281.7c0.6-0.3,1.1-0.1,1.1,0.6c0,0.7-0.5,1.5-1.1,1.8c-0.6,0.3-1.1,0.1-1.1-0.6
						S102.6,282.1,103.1,281.7z"/>
					<path class="st4" d="M102,288.7c0.4-0.7,1.1-1.1,1.5-0.9c0.4,0.2,0.4,1,0,1.7c-0.4,0.7-1.1,1.1-1.5,0.9
						C101.6,290.1,101.6,289.4,102,288.7z"/>
					<path class="st4" d="M105,292.3c0-0.7,0.5-1.5,1.1-1.8c0.6-0.3,1.1-0.1,1.1,0.6c0,0.7-0.5,1.5-1.1,1.8
						C105.5,293.2,105,292.9,105,292.3z"/>
					<path class="st4" d="M110.5,290.4c-0.4-0.2-0.4-1,0-1.7c0.4-0.7,1.1-1.1,1.5-0.9c0.4,0.2,0.4,1,0,1.7
						C111.6,290.3,110.9,290.7,110.5,290.4z"/>
					<path class="st4" d="M115.2,284.3c-0.6,0.3-1.1,0.1-1.1-0.6c0-0.7,0.5-1.5,1.1-1.8c0.6-0.3,1.1-0.1,1.1,0.6
						S115.8,283.9,115.2,284.3z"/>
					<path class="st4" d="M116.3,277.3c-0.4,0.7-1.1,1.1-1.5,0.9c-0.4-0.2-0.4-1,0-1.7c0.4-0.7,1.1-1.1,1.5-0.9
						C116.7,275.8,116.7,276.6,116.3,277.3z"/>
					<path class="st4" d="M106.8,272.5c0.2,0.4-0.3,1.3-1,2c-0.7,0.7-1.4,0.9-1.5,0.6c-0.2-0.4,0.3-1.3,1-2
						C105.9,272.4,106.6,272.1,106.8,272.5z"/>
					<path class="st4" d="M100.2,281.8c0.4,0,0.5,0.7,0.2,1.7s-0.9,1.7-1.3,1.8c-0.4,0-0.5-0.7-0.2-1.7
						C99.2,282.6,99.8,281.8,100.2,281.8z"/>
					<path class="st4" d="M98.8,291.7c0.4-0.4,1-0.2,1.2,0.4c0.3,0.6,0.1,1.5-0.3,1.9c-0.4,0.4-1,0.2-1.2-0.4
						C98.3,293,98.4,292.1,98.8,291.7z"/>
					<path class="st4" d="M103.6,296.5c0.2-0.6,0.9-1.1,1.6-1.1c0.7,0,1.1,0.4,0.9,1c-0.2,0.6-0.9,1.1-1.6,1.1
						C103.8,297.6,103.4,297.1,103.6,296.5z"/>
					<path class="st4" d="M111.6,293.4c-0.2-0.4,0.3-1.3,1-2s1.4-0.9,1.5-0.6c0.2,0.4-0.3,1.3-1,2
						C112.4,293.6,111.7,293.8,111.6,293.4z"/>
					<path class="st4" d="M118.1,284.2c-0.4,0-0.5-0.7-0.2-1.7c0.3-1,0.9-1.7,1.3-1.8c0.4,0,0.5,0.7,0.2,1.7
						C119.1,283.4,118.6,284.2,118.1,284.2z"/>
					<path class="st4" d="M119.5,274.3c-0.4,0.4-1,0.2-1.2-0.4c-0.3-0.6-0.1-1.5,0.3-1.9c0.4-0.4,1-0.2,1.2,0.4
						C120,273,119.9,273.8,119.5,274.3z"/>
					<path class="st4" d="M114.7,269.4c-0.2,0.6-0.9,1.1-1.6,1.1c-0.7,0-1.1-0.4-0.9-1c0.2-0.6,0.9-1.1,1.6-1.1
						C114.5,268.4,114.9,268.9,114.7,269.4z"/>
				</g>
				
					<ellipse transform="matrix(0.5047 -0.8633 0.8633 0.5047 -49.8158 315.9796)" class="st4" cx="250.5" cy="201.4" rx="27.1" ry="15.7"/>
				<g>
					<path class="st16" d="M237.7,208.8c0,8.1,5.7,11.3,12.7,7.3c7-4.1,12.7-13.9,12.7-22c0-8.1-5.7-11.3-12.7-7.3
						C243.4,190.8,237.7,200.7,237.7,208.8z"/>
					<path class="st17" d="M238.5,208.3c0,7.6,5.3,10.6,11.9,6.8c6.6-3.8,11.9-13,11.9-20.6c0-7.6-5.3-10.6-11.9-6.8
						C243.9,191.5,238.5,200.7,238.5,208.3z"/>
					<path class="st16" d="M239.8,207.5c0,6.7,4.8,9.5,10.6,6.1s10.6-11.6,10.6-18.3c0-6.7-4.8-9.5-10.6-6.1
						C244.6,192.6,239.8,200.8,239.8,207.5z"/>
					<path class="st19" d="M240.8,207c0,6.1,4.3,8.6,9.7,5.5c5.4-3.1,9.7-10.6,9.7-16.7c0-6.1-4.3-8.6-9.7-5.5
						C245.1,193.4,240.8,200.9,240.8,207z"/>
					<path class="st4" d="M245.9,204c0,2.9,2,4,4.5,2.6s4.5-5,4.5-7.8c0-2.9-2-4-4.5-2.6S245.9,201.1,245.9,204z"/>
					<path class="st20" d="M255,191.9c0,0.9-0.7,2.1-1.5,2.5c-0.8,0.5-1.5,0.1-1.5-0.8c0-0.9,0.7-2.1,1.5-2.5
						C254.3,190.6,255,190.9,255,191.9z"/>
					<path class="st20" d="M249.4,193.4c0.6,0.3,0.6,1.4,0,2.4c-0.6,1-1.5,1.5-2.1,1.2c-0.6-0.3-0.6-1.4,0-2.4
						C247.9,193.6,248.8,193.1,249.4,193.4z"/>
					<path class="st20" d="M244.4,199.7c0.8-0.5,1.5-0.1,1.5,0.8c0,0.9-0.7,2.1-1.5,2.5c-0.8,0.5-1.5,0.1-1.5-0.8
						S243.6,200.1,244.4,199.7z"/>
					<path class="st20" d="M243,206.9c0.6-1,1.5-1.5,2.1-1.2c0.6,0.3,0.6,1.4,0,2.4c-0.6,1-1.5,1.5-2.1,1.2
						C242.4,209,242.4,207.9,243,206.9z"/>
					<path class="st20" d="M245.9,210.9c0-0.9,0.7-2.1,1.5-2.5c0.8-0.5,1.5-0.1,1.5,0.8c0,0.9-0.7,2.1-1.5,2.5
						C246.6,212.2,245.9,211.9,245.9,210.9z"/>
					<path class="st20" d="M251.5,209.4c-0.6-0.3-0.6-1.4,0-2.4c0.6-1,1.5-1.5,2.1-1.2c0.6,0.3,0.6,1.4,0,2.4
						C253,209.2,252.1,209.7,251.5,209.4z"/>
					<path class="st20" d="M256.5,203.1c-0.8,0.5-1.5,0.1-1.5-0.8c0-0.9,0.7-2.1,1.5-2.5c0.8-0.5,1.5-0.1,1.5,0.8
						C257.9,201.5,257.3,202.7,256.5,203.1z"/>
					<path class="st20" d="M257.9,195.9c-0.6,1-1.5,1.5-2.1,1.2c-0.6-0.3-0.6-1.4,0-2.4c0.6-1,1.5-1.5,2.1-1.2
						C258.5,193.8,258.5,194.9,257.9,195.9z"/>
				</g>
				
					<ellipse transform="matrix(0.5047 -0.8633 0.8633 0.5047 -5.4821 341.7362)" class="st4" cx="295.1" cy="175.6" rx="27.1" ry="15.7"/>
				<g>
					<path class="st16" d="M282.3,183c0,8.1,5.7,11.3,12.7,7.3c7-4.1,12.7-13.9,12.7-22c0-8.1-5.7-11.3-12.7-7.3
						C288,165.1,282.3,174.9,282.3,183z"/>
					<path class="st17" d="M283.1,182.5c0,7.6,5.3,10.6,11.9,6.8c6.6-3.8,11.9-13,11.9-20.6c0-7.6-5.3-10.6-11.9-6.8
						C288.5,165.8,283.1,175,283.1,182.5z"/>
					<path class="st16" d="M284.4,181.8c0,6.7,4.8,9.5,10.6,6.1c5.9-3.4,10.6-11.6,10.6-18.3c0-6.7-4.8-9.5-10.6-6.1
						C289.2,166.8,284.4,175,284.4,181.8z"/>
					<path class="st19" d="M285.4,181.2c0,6.1,4.3,8.6,9.7,5.5c5.4-3.1,9.7-10.6,9.7-16.7c0-6.1-4.3-8.6-9.7-5.5
						C289.7,167.6,285.4,175.1,285.4,181.2z"/>
					<path class="st4" d="M290.5,178.3c0,2.9,2,4,4.5,2.6c2.5-1.4,4.5-5,4.5-7.8c0-2.9-2-4-4.5-2.6
						C292.6,171.9,290.5,175.4,290.5,178.3z"/>
					<path class="st20" d="M299.6,166.1c0,0.9-0.7,2.1-1.5,2.5c-0.8,0.5-1.5,0.1-1.5-0.8c0-0.9,0.7-2.1,1.5-2.5
						C299,164.8,299.6,165.2,299.6,166.1z"/>
					<path class="st20" d="M294,167.7c0.6,0.3,0.6,1.4,0,2.4s-1.5,1.5-2.1,1.2c-0.6-0.3-0.6-1.4,0-2.4
						C292.5,167.9,293.5,167.4,294,167.7z"/>
					<path class="st20" d="M289.1,173.9c0.8-0.5,1.5-0.1,1.5,0.8c0,0.9-0.7,2.1-1.5,2.5c-0.8,0.5-1.5,0.1-1.5-0.8
						S288.2,174.4,289.1,173.9z"/>
					<path class="st20" d="M287.6,181.1c0.6-1,1.5-1.5,2.1-1.2c0.6,0.3,0.6,1.4,0,2.4c-0.6,1-1.5,1.5-2.1,1.2
						C287,183.2,287,182.1,287.6,181.1z"/>
					<path class="st20" d="M290.5,185.2c0-0.9,0.7-2.1,1.5-2.5c0.8-0.5,1.5-0.1,1.5,0.8c0,0.9-0.7,2.1-1.5,2.5
						C291.2,186.5,290.5,186.1,290.5,185.2z"/>
					<path class="st20" d="M296.1,183.6c-0.6-0.3-0.6-1.4,0-2.4c0.6-1,1.5-1.5,2.1-1.2c0.6,0.3,0.6,1.4,0,2.4
						S296.7,183.9,296.1,183.6z"/>
					<path class="st20" d="M301.1,177.4c-0.8,0.5-1.5,0.1-1.5-0.8c0-0.9,0.7-2.1,1.5-2.5c0.8-0.5,1.5-0.1,1.5,0.8
						C302.6,175.8,301.9,176.9,301.1,177.4z"/>
					<path class="st20" d="M302.5,170.1c-0.6,1-1.5,1.5-2.1,1.2c-0.6-0.3-0.6-1.4,0-2.4c0.6-1,1.5-1.5,2.1-1.2
						C303.1,168.1,303.1,169.2,302.5,170.1z"/>
				</g>
				<polygon class="st0" points="86.2,286.5 89,284.8 95.1,262.5 120.8,247.6 127.2,245.7 132.1,252.2 132.1,262.4 134.9,260.8 
					134.9,247.3 128.1,238.8 120.8,240.9 93.6,256.6 				"/>
				<path class="st10" d="M107.8,217.2l-2.5,1.4c-1.5,0.9-2.8-0.1-2.8-2.1v-27c0-2,1.2-4.4,2.8-5.3l2.5-1.4c1.5-0.9,2.8,0.1,2.8,2.1
					v27C110.6,214,109.4,216.4,107.8,217.2z"/>
				<path class="st10" d="M71,276.6l-6.6,3.8c-1.5,0.9-2.8-0.1-2.8-2.1v-16.4c0-2,1.2-4.4,2.8-5.3l6.6-3.8c1.5-0.9,2.8,0.1,2.8,2.1
					v16.4C73.8,273.4,72.5,275.7,71,276.6z"/>
				<polygon class="st21" points="78,286.5 81.6,284.4 81.6,282 78,284.1 				"/>
				<path class="st21" d="M116.7,234c0,5.5,3.9,7.8,8.7,5c4.8-2.8,8.7-9.5,8.7-15.1c0-5.5-3.9-7.8-8.7-5
					C120.6,221.7,116.7,228.5,116.7,234z"/>
			</g>
			<path class="st4" d="M192.7,228.1c0,6.3,4.4,8.8,9.9,5.7c5.5-3.2,9.9-10.8,9.9-17.1c0-6.3-4.4-8.8-9.9-5.7
				C197.2,214.1,192.7,221.8,192.7,228.1z"/>
			<polygon class="st7" points="171.4,250.6 140.2,268.6 140.2,253 171.4,235 			"/>
			<g>
				<path class="st0" d="M328.1,171.9l0.2-1.5c-0.5-0.1-0.9-0.3-1.3-0.8c-3.4-4.5-1.6-23.3-0.6-30.2l-1.5-0.2
					c-0.2,1-3.6,25.4,0.9,31.4C326.4,171.3,327.2,171.8,328.1,171.9z"/>
			</g>
			<g>
				<path class="st0" d="M136.8,282.4l0.2-1.5c-4.6-0.6-5.4-18.4-4.7-29.5l-1.5-0.1C130.5,254.4,129.2,281.4,136.8,282.4z"/>
			</g>
			<path class="st7" d="M219.3,191l5.7,37.8L219.3,191z"/>
			<polygon class="st7" points="166.8,218 187.1,206.3 187.1,199 166.8,210.8 			"/>
			<g>
				<path class="st10" d="M57.9,252.8l3.4-46.4l0-0.2l36.6-21.1l1.5,35.4V250l-7.5,4.2l-7.6,32.4l0,0.2L57.9,302V252.8z M91.2,253.7
					l7.4-4.2v-29l-1.5-34.1L62,206.6l-3.3,46.2v47.8l24.8-14.3L91.2,253.7z"/>
			</g>
			<polygon class="st22" points="45.7,262.8 46.9,265.6 54.9,274.1 101.7,301.1 116.3,305.7 119.9,305.7 121.8,302.8 127,296.7 
				52.8,253.9 47.9,258.1 			"/>
			<polygon class="st23" points="47.7,260 48.9,262.8 56.9,271.3 103.6,298.3 118.2,302.8 121.8,302.8 123.8,299.9 123.3,291.5 
				54.8,251 49.6,257.1 			"/>
			<polygon class="st7" points="351,30.8 425.2,73.7 393.9,82.8 319.8,39.9 			"/>
			<polygon class="st11" points="370.6,133.4 374.7,131 379.2,142.6 375,145 			"/>
			<polygon class="st11" points="358.7,140.2 362.9,137.8 367.3,149.4 363.1,151.8 			"/>
			<g>
				<path class="st0" d="M275,180.6c2.8-11.9,11.3-24,20.7-29.5c5-2.9,9.8-3.6,13.5-2.1c3.1,1.3,5.2,4,6.3,7.9l2.2-0.6
					c-1.3-4.6-3.9-7.9-7.6-9.5c-4.4-1.8-9.9-1-15.6,2.3c-10.1,5.8-18.8,18.3-21.8,31L275,180.6z"/>
			</g>
			<g>
				<path class="st0" d="M229.2,207c2.8-11.9,11.3-24.1,20.7-29.5c5-2.9,9.8-3.6,13.5-2.1c3.1,1.3,5.2,4,6.3,7.9l2.2-0.6
					c-1.3-4.6-3.9-7.9-7.6-9.5c-4.4-1.8-9.9-1-15.6,2.3c-10.1,5.8-18.8,18.2-21.8,31L229.2,207z"/>
			</g>
			<polygon class="st6" points="395.6,71.3 374.7,83.4 294.9,37.3 315.9,25.2 			"/>
			<g>
				<path class="st12" d="M419.6,58v15.6V58z"/>
				<path class="st11" d="M419.6,73.7L419.6,73.7c0.5,0,0.8-0.4,0.8-0.8v-14c0-0.5-0.4-0.8-0.8-0.8l0,0c-0.5,0-0.8,0.4-0.8,0.8v14
					C418.7,73.3,419.1,73.7,419.6,73.7z"/>
			</g>
		</g>
		<g>
			<polygon class="st24" points="412.5,207.8 314.3,150 391.7,172.8 			"/>
			<polygon class="st25" points="391.7,172.8 412.5,207.8 443.9,189.7 450.9,168.9 450.9,118.9 438.1,101.7 445.2,152.5 
				408.3,166.7 			"/>
			<polygon class="st26" points="443.2,201.8 429.6,193.9 429.6,196.1 443.2,204 			"/>
			<polygon class="st26" points="473.5,184.3 443.2,201.8 443.2,204 473.5,186.5 			"/>
			<polygon class="st7" points="429.6,193.9 443.2,201.8 473.5,184.3 459.9,176.4 			"/>
			<polygon class="st27" points="442.2,174.7 444.7,176.2 449.2,187.8 446.7,186.4 			"/>
			<polygon class="st27" points="430.4,181.6 432.9,183 437.3,194.7 434.8,193.2 			"/>
			<polygon class="st14" points="313.2,233.7 378,196.3 378,220.7 313.2,258.1 			"/>
			<polygon class="st15" points="404.2,183.8 190.9,306.9 190.9,286.1 404.2,162.9 			"/>
			<path class="st28" d="M195.5,311c0.5,4.1,1.6,7,3.5,7.3l10.9,6.6c-1.1-1.3-3-3.8-3.3-6.9c-1.2-10.7,0.6-28.6,0.6-28.6l-10.7-7.6
				C196.5,281.8,194.1,300.4,195.5,311z"/>
			<path class="st29" d="M195.5,311c0.5,4.1,1.6,7,3.5,7.3l10.9,6.6c-1.1-1.3-2.7-4.3-3-7.3L195.5,311z"/>
			<path class="st30" d="M150.2,329c0,12.2,8.6,17.1,19.2,11c10.6-6.1,19.2-21,19.2-33.2c0-12.2-8.6-17.1-19.2-11
				C158.8,302,150.2,316.8,150.2,329z"/>
			<polygon class="st30" points="169.7,349.4 154.9,340.8 184.3,295.4 197.6,303 			"/>
			<path class="st31" d="M163.9,337c0,12.2,8.6,17.1,19.2,11c10.6-6.1,19.2-21,19.2-33.2c0-12.2-8.6-17.1-19.2-11
				C172.5,309.9,163.9,324.8,163.9,337z"/>
			
				<ellipse transform="matrix(0.5047 -0.8633 0.8633 0.5047 -190.6137 319.4707)" class="st32" cx="183.1" cy="325.8" rx="25.1" ry="14.5"/>
			
				<ellipse transform="matrix(0.5047 -0.8633 0.8633 0.5047 -5.6545 411.2154)" class="st30" cx="355.5" cy="210.5" rx="27.1" ry="15.7"/>
			<polygon class="st30" points="355.9,242.1 341,233.4 370.5,188 383.7,195.6 			"/>
			<path class="st31" d="M350,229.6c0,12.2,8.6,17.1,19.2,11c10.6-6.1,19.2-21,19.2-33.2s-8.6-17.1-19.2-11
				C358.6,202.5,350,217.4,350,229.6z"/>
			
				<ellipse transform="matrix(0.5047 -0.8633 0.8633 0.5047 -5.7127 426.976)" class="st32" cx="369.2" cy="218.5" rx="25.1" ry="14.5"/>
			<path class="st30" d="M291.7,247.4c0,12.2,8.6,17.1,19.2,11c10.6-6.1,19.2-21,19.2-33.2c0-12.2-8.6-17.1-19.2-11
				C300.3,220.4,291.7,235.2,291.7,247.4z"/>
			<polygon class="st30" points="311.3,267.8 296.4,259.1 325.9,213.8 339.1,221.3 			"/>
			<path class="st31" d="M305.4,255.3c0,12.2,8.6,17.1,19.2,11c10.6-6.1,19.2-21,19.2-33.2s-8.6-17.1-19.2-11
				C314,228.3,305.4,243.1,305.4,255.3z"/>
			<path class="st32" d="M306.8,254.5c0,11.3,8,15.8,17.8,10.2c9.8-5.7,17.8-19.4,17.8-30.7c0-11.3-8-15.8-17.8-10.2
				C314.8,229.5,306.8,243.2,306.8,254.5z"/>
			<path class="st29" d="M401.3,176.8c0,0-4.5,35.6,2.5,36.5l-1.4,0.7l-1.5-0.9l-9.6-7.4c-7-0.9-2.5-36.5-2.5-36.5L401.3,176.8z"/>
			<path class="st0" d="M402.4,214l-1.6-1C401.3,213.5,401.8,213.9,402.4,214z"/>
			<path class="st0" d="M386.4,199.1c0.5,4.1,1.6,7,3.5,7.3l10.9,6.6c-1.1-1.3-1.7-3.7-2-6.8c-1.2-10.7,1.1-28.8,1.1-28.8l-12.5-7.6
				C387.4,169.9,385,188.4,386.4,199.1z"/>
			<path class="st29" d="M386.4,199.1c0.5,4.1,1.6,7,3.5,7.3l10.9,6.6c-1.1-1.3-1.7-3.7-2-6.8L386.4,199.1z"/>
			<g>
				<path class="st33" d="M271.4,281.9l-13.9-24.2l25.3-14l0,0c1.8-1.2,4.4-1.2,7.3,0.5c5.5,3.2,9.9,10.8,9.9,17.1
					c0,3.1-1.1,5.2-2.8,6.3l0,0l-0.1,0.1c0,0-0.1,0-0.1,0.1L271.4,281.9z"/>
				<path class="st4" d="M254.3,264.1c0,6.3,4.4,13.9,9.9,17.1c5.5,3.2,9.9,0.6,9.9-5.7c0-6.3-4.4-13.9-9.9-17.1
					C258.8,255.3,254.3,257.8,254.3,264.1z"/>
			</g>
			<polygon class="st34" points="390.9,184.7 311.2,138.7 294.9,37.3 374.7,83.4 			"/>
			<polygon class="st22" points="299,44 373.1,86.8 168.9,232.2 156.3,126.4 			"/>
			<polygon class="st35" points="156.3,126.4 299,44 323.5,55.6 174.2,135 			"/>
			<polygon class="st35" points="196.9,154.1 347.8,69.7 373.1,86.8 230.5,169.2 			"/>
			<polygon class="st22" points="177.6,137 323.5,55.6 347.8,69.7 198.8,148.9 			"/>
			<g>
				<path class="st0" d="M346.9,222.9c2.8-11.9,12-23.4,21.4-28.9c5-2.9,3.6-2.9,4.7-2.9l6.8-0.8c-0.8-2.8,8,2,6.3,0.2
					c-0.3-0.3-9-5-9.4-5.2c-0.9-0.7-1.9-1.3-3-1.8c-4.4-1.8-9.9-1-15.6,2.3c-10.1,5.8-18.8,18.3-21.8,31L346.9,222.9z"/>
			</g>
			<g>
				<path class="st36" d="M349.1,223.4c2.8-11.9,11.3-24.1,20.7-29.5c5-2.9,9.8-3.7,13.5-2.1c3.1,1.3,5.2,4,6.3,7.9l2.2-0.6
					c-1.3-4.6-3.9-7.9-7.6-9.5c-4.4-1.8-9.9-1-15.6,2.3c-10.1,5.8-18.8,18.2-21.8,31L349.1,223.4z"/>
			</g>
			<g>
				<path class="st0" d="M301.1,249.3c2.8-11.9,10.5-20.3,18.1-26.5c4.5-3.7,4.1-4.6,6.2-4.6c3.3,0.1,4.7-2.1,8.2-1.7l6.6,0.4
					c0,0-8-4.7-11.2-6.4c-0.4-0.2-0.7-0.4-1.1-0.5c-4.4-1.8-9.9-1-15.6,2.3c-10.1,5.8-18.8,18.3-21.8,31L301.1,249.3z"/>
			</g>
			<g>
				<path class="st36" d="M303.3,249.8c2.8-11.9,11.3-24.1,20.7-29.5c5-2.9,9.8-3.7,13.5-2.1c3.1,1.3,5.2,4,6.3,7.9l2.2-0.6
					c-1.3-4.6-3.9-7.9-7.6-9.5c-4.4-1.8-9.9-1-15.6,2.3c-10.1,5.8-18.8,18.2-21.8,31L303.3,249.8z"/>
			</g>
			<polygon class="st37" points="373.1,86.8 387.9,181.4 230.5,272.3 230.5,169.2 			"/>
			<polygon class="st11" points="393.9,82.8 425.2,73.7 460.6,116.4 457,169.1 428.2,185.7 401.8,175.2 			"/>
			<polygon class="st38" points="378.5,168.6 239.4,248.9 239.4,170.9 367.5,97 			"/>
			<polygon class="st39" points="369.3,161.5 360.9,104.9 242,173.6 242,235 			"/>
			<polygon class="st26" points="435.2,94.2 454.9,123.1 451.9,165.8 427.5,179.8 415.2,169.9 399.9,75.8 412.6,68.4 			"/>
			<polygon class="st10" points="447.7,163.9 450.7,121.3 431,92.4 410.9,69.4 412.6,68.4 435.2,94.2 454.9,123.1 451.9,165.8 
				427.5,179.8 424.4,177.3 			"/>
			<path class="st7" d="M293.4,233.8l5.7,37.8L293.4,233.8z"/>
			<polygon class="st10" points="240.9,260.8 261.3,249.1 261.3,241.9 240.9,253.6 			"/>
			<path class="st10" d="M199.6,186.2c0,2.6,1.8,3.7,4.1,2.4c2.3-1.3,4.1-4.5,4.1-7.1s-1.8-3.7-4.1-2.4S199.6,183.5,199.6,186.2z"/>
			<path class="st10" d="M198.8,192.2c0,3.1,2.2,4.4,4.9,2.8s4.9-5.4,4.9-8.5c0-3.1-2.2-4.4-4.9-2.8
				C201,185.3,198.8,189.1,198.8,192.2z"/>
			<path class="st10" d="M198.8,194c0,3.1,2.2,4.4,4.9,2.8c2.7-1.6,4.9-5.4,4.9-8.5c0-3.1-2.2-4.4-4.9-2.8
				C201,187,198.8,190.8,198.8,194z"/>
			<polygon class="st6" points="422,56.7 424.8,58.3 442.4,150.9 405.5,165.1 391.2,74.5 			"/>
			<polygon class="st9" points="424.8,58.3 434,67.3 445.2,152.5 408.3,166.7 393.9,76.1 			"/>
			<g>
				<path class="st7" d="M460.5,115.8l1.3-1.9c1-1.5,1.2-3.2,0.5-4.2l-5.6-7.9c-0.3-0.5-0.8-0.7-1.4-0.7c0,0,0,0-0.1,0
					c-0.8,0-1.8,0.5-2.5,1.4l-1.6,2l1.2,1l1.6-2c0.5-0.6,1.1-0.9,1.3-0.9c0.1,0,0.1,0,0.2,0.1l5.6,7.9c0.2,0.3,0.2,1.4-0.5,2.4
					l-1.3,1.9L460.5,115.8z"/>
			</g>
			<polygon class="st11" points="444.7,176.2 448.9,173.8 453.3,185.4 449.2,187.8 			"/>
			<polygon class="st11" points="432.9,183 437,180.6 441.5,192.3 437.3,194.7 			"/>
			<polygon class="st40" points="411.9,172.6 390.9,184.7 374.7,83.4 395.6,71.3 			"/>
			<path class="st40" d="M402.4,214l-1.6-1C401.3,213.5,401.8,213.9,402.4,214z"/>
			<g>
				<path class="st41" d="M458.4,182h1.5v-6.3c0-1.7,0.9-3.4,2.5-4.2l1.7-1c2-1.1,3.2-3.3,3.2-5.6v-38.1c0-2.3-1.2-4.3-3.1-5.5
					c-2.1-1.2-4.7-1.2-7,0.2l-15.7,9l0.8,1.3l15.7-9c1.8-1,3.8-1.1,5.4-0.2c1.5,0.9,2.4,2.4,2.4,4.1v38.1c0,1.7-0.9,3.4-2.5,4.2
					l-1.7,1c-2,1.1-3.2,3.3-3.2,5.6V182z"/>
			</g>
		</g>
		<g>
			<g>
				<path class="st39" d="M152.5,147c0,0,0,34.9,0,43.5c0,18.5,3.8,36,3.8,36l74.2,42.8c0,0,3.8-13.1,3.8-31.6c0-8.6,0-43.5,0-43.5
					l-3.8-30l0,0c-0.7-0.6-23-18.6-26.9-20.8c-6.6-3.8-13.7-7.9-20.3-11.7c-3.9-2.3-26.2-10-26.9-10.2l0,0l-2.4,16L152.5,147z"/>
			</g>
			<path class="st42" d="M134.9,157.2c0,0,0,0.3,0,0.9v42.6c0,18.5,3.8,36,3.8,36l74.2,42.8c0,0,3.8-13.1,3.8-31.6v-40.3
				c0-2,0-3.2,0-3.2l-3.8-30c0,0-22.9-18.5-26.9-20.9c-6.6-3.8-13.7-7.9-20.3-11.7c-4-2.3-26.9-10.3-26.9-10.3L134.9,157.2z"/>
			<path class="st11" d="M212,278.8c0.8-3.2,3.6-15.1,3.6-30.6v-43.5l-3.8-29.6c-2.3-1.9-22.9-18.5-26.6-20.6l-20.3-11.7
				c-3.5-2-22-8.5-26-9.9l-3.7,24.8l0,43.4c0,16.9,3.3,33.2,3.7,35.6L212,278.8z"/>
			<path class="st38" d="M140.9,162.1v42.6c-6,14.5-2.2,32-2.2,32l74.2,42.8c0,0,3.8-13.1,3.8-31.6v-40.3L140.9,162.1z"/>
			<polygon class="st43" points="192.9,282.1 118.7,239.2 132,218.6 206,261.3 			"/>
			<path class="st2" d="M144.6,139c0,1.4-1,1.9-2.2,1.2c-1.2-0.7-2.2-2.4-2.2-3.7c0-1.4,1-1.9,2.2-1.2
				C143.7,136,144.6,137.6,144.6,139z"/>
			<path class="st21" d="M140.9,136.6c0,1.1,0.8,2.4,1.7,3c0.9,0.5,1.7,0.1,1.7-1c0-1.1-0.8-2.4-1.7-3
				C141.7,135.1,140.9,135.5,140.9,136.6z"/>
		</g>
		<g>
			<path class="st44" d="M137.6,176.3h3.9v23.4c0,0.3-0.2,0.6-0.6,0.8c-0.8,0.4-2,0.4-2.7,0c-0.4-0.2-0.6-0.5-0.6-0.8h0V176.3z"/>
			<g>
				<g>
					<path class="st45" d="M132.7,175.7v-3.7h4.7c1.5-0.3,3-0.3,4.5,0h4.6v3.7h0c0,1-0.7,2-2,2.8c-2.7,1.6-7,1.6-9.7,0
						C133.3,177.7,132.6,176.7,132.7,175.7z"/>
					<path class="st10" d="M134.7,169.1c2.7-1.6,7-1.6,9.7,0c2.7,1.5,2.7,4.1,0,5.6c-2.7,1.6-7,1.6-9.7,0
						C132,173.2,132,170.7,134.7,169.1z"/>
					<polygon class="st46" points="144.7,160 146,171.7 133.1,171.7 134.4,160 					"/>
					<path class="st47" d="M134.9,174.3c2.5,1.5,6.6,1.4,9.2,0c2.5-1.5,2.6-3.8,0-5.3c-2.5-1.5-6.6-1.4-9.2,0
						S132.4,172.9,134.9,174.3z"/>
					<path class="st48" d="M135.9,158.1c2-1.2,5.3-1.2,7.3,0c2,1.2,2,3,0,4.2c-2,1.2-5.3,1.2-7.3,0
						C133.9,161.2,133.9,159.3,135.9,158.1z"/>
					<path class="st49" d="M136.2,158.1c1.9-1.1,4.9-1.1,6.7,0c1.9,1.1,1.8,2.8,0,3.9c-1.9,1.1-4.9,1.1-6.7,0
						C134.3,160.9,134.3,159.1,136.2,158.1z"/>
					<path class="st48" d="M135.3,173.9c2.3,1.3,6.1,1.3,8.5,0c2.4-1.4,2.4-3.6,0-4.9c-2.3-1.3-6.1-1.3-8.5,0
						C132.9,170.3,132.9,172.5,135.3,173.9z"/>
				</g>
				<path class="st50" d="M134.7,161.8c0,0,0.4,0.9,2.1,1.4c-0.3,2.5-0.5,11.5-0.5,11.5s-2.3-0.8-2.7-2
					C133.7,171.3,134.7,161.8,134.7,161.8z"/>
			</g>
		</g>
		<path class="st22" d="M165.6,141.8l20.3,11.7l17.6-10.2c-6.6-3.8-13.7-7.9-20.3-11.7L165.6,141.8z"/>
		<path class="st22" d="M138.7,131.6l15.2,5.8l11.7,4.5l17.6-10.2c-3.9-2.3-26.2-10-26.9-10.2l0,0L138.7,131.6z"/>
		<path class="st22" d="M185.9,153.5l26.9,20.8l17.6-10.2l0,0c-0.7-0.6-23-18.6-26.9-20.8L185.9,153.5z"/>
		<polygon class="st39" points="212.9,174.4 230.5,164.2 234.3,194.2 216.7,204.4 		"/>
		<polygon class="st39" points="216.7,247.9 234.3,237.8 234.3,194.2 216.7,204.4 		"/>
		<polygon class="st39" points="212.9,279.5 216.7,247.9 216.7,247.9 216.7,247.9 234.3,237.8 230.5,269.4 220,275.5 220,275.5 		
			"/>
		<g>
			<g>
				<polygon class="st33" points="151.8,324.1 164.7,332 173.1,305.9 195,290.5 201.4,288.5 206.6,284.3 193.7,276.4 186.4,278.5 
					159.2,294.2 				"/>
				<polygon class="st37" points="128.9,250 132.6,245.4 185.6,214.8 189.2,215.2 190.7,257.7 190.7,286.2 167.8,299.4 160.4,329.3 
					121.8,351.5 121.8,339.4 119.9,339 119.9,305.7 121.8,302.8 128.4,253.5 				"/>
				<polygon class="st22" points="119.9,305.7 126.4,299.9 127,297.5 121.8,302.8 				"/>
				<polygon class="st15" points="159.4,329.8 159.4,344.4 121.8,366 121.8,351.5 				"/>
				<polygon class="st14" points="121.8,362.5 159.4,340.8 159.4,344.4 121.8,366 				"/>
				<path class="st23" d="M121.8,302.8l4.2-3.6c0.4-0.4,0.8-0.9,0.9-1.5l0.1-0.2l0-0.1c0-0.1,0-0.2,0-0.3l0.2-1.9l0.1-1.1l4.5-37.1
					c0.2-2.1-1.5-3.8-3.6-3.5l-4.8,36L121.8,302.8z"/>
				<path class="st0" d="M182,260.1l-2.5,1.4c-1.5,0.9-2.8-0.1-2.8-2.1v-27c0-2,1.2-4.4,2.8-5.3l2.5-1.4c1.5-0.9,2.8,0.1,2.8,2.1v27
					C184.8,256.8,183.5,259.2,182,260.1z"/>
				<path class="st51" d="M178.4,261c0.2,0,0.4-0.1,0.7-0.2l2.5-1.4c1.3-0.7,2.3-2.8,2.3-4.5v-27c0-0.7-0.2-1.6-0.8-1.6
					c-0.2,0-0.4,0.1-0.7,0.2l-2.5,1.4c-1.3,0.7-2.3,2.8-2.3,4.5v27c0,0.5,0.1,1,0.3,1.3C178.1,261,178.3,261,178.4,261L178.4,261z"
					/>
				<path class="st0" d="M140.2,249.9l25.7-14.8c1.5-0.8,2.7-0.2,2.7,1.5v28.3c0,1.7-1.2,3.7-2.7,4.6l-10.1,5.8
					c-1.5,0.8-2.7,2.9-2.7,4.6l0,0c0,1.7-1.2,3.7-2.7,4.6l-12.1,7c-1.5,0.8-2.7,0.2-2.7-1.5v-7.7c0-0.1,0-0.2,0-0.3l1.7-27.7
					C137.7,252.5,138.8,250.6,140.2,249.9z"/>
				<path class="st51" d="M137.3,290.8c0.2,0,0.4,0,0.8-0.3l12.1-7c1.2-0.7,2.2-2.5,2.2-3.9c0-2,1.3-4.3,3.1-5.3l10.1-5.8
					c1.2-0.7,2.2-2.5,2.2-3.9v-28.3c0-0.4-0.1-1-0.6-1c-0.2,0-0.4,0-0.8,0.3l-25.7,14.8c-1.1,0.7-2.1,2.3-2.2,3.6l-1.7,27.6
					c0,0.1,0,0.2,0,0.2v7.7c0,0.4,0.1,0.7,0.2,0.9C136.9,290.7,137,290.8,137.3,290.8L137.3,290.8z"/>
				<path class="st0" d="M145.2,319.4l-6.6,3.8c-1.5,0.9-2.8-0.1-2.8-2.1v-16.4c0-2,1.2-4.4,2.8-5.3l6.6-3.8
					c1.5-0.9,2.8,0.1,2.8,2.1v16.4C147.9,316.2,146.7,318.5,145.2,319.4z"/>
				<path class="st51" d="M137.5,322.7c0.2,0,0.4-0.1,0.7-0.2l6.6-3.8c1.3-0.7,2.3-2.8,2.3-4.5v-16.4c0-0.7-0.2-1.6-0.8-1.6
					c-0.2,0-0.4,0.1-0.7,0.2l-6.6,3.8c-1.3,0.7-2.3,2.8-2.3,4.5v16.4c0,0.5,0.1,1,0.3,1.3C137.1,322.7,137.3,322.7,137.5,322.7
					L137.5,322.7z"/>
				<polygon class="st21" points="152.2,329.3 155.8,327.2 155.8,324.8 152.2,326.9 				"/>
				<path class="st52" d="M190.9,276.8c0,5.5,3.9,7.8,8.7,5c4.8-2.8,8.7-9.5,8.7-15.1s-3.9-7.8-8.7-5
					C194.8,264.6,190.9,271.3,190.9,276.8z"/>
				<path class="st53" d="M192.6,277.2c0,5,3.5,7,7.9,4.5c4.4-2.5,7.9-8.6,7.9-13.7c0-5-3.5-7-7.9-4.5
					C196.2,266.1,192.6,272.2,192.6,277.2z"/>
			</g>
			<g>
				<path class="st0" d="M210.9,325.2l0.2-1.5c-4.6-0.6-5.4-18.4-4-33l-1.5-0.1C204.7,297.2,203.4,324.2,210.9,325.2z"/>
			</g>
			<polygon class="st4" points="210.6,307.9 193.2,296.1 200.5,288.7 208,290.5 210.6,297.7 			"/>
			<g>
				<path class="st10" d="M132.1,295.6l3.4-46.4l0-0.2l36.6-21.1l1.5,35.4v29.5L166,297l-7.6,32.4l0,0.2l-26.3,15.2V295.6z
					 M165.3,296.5l7.4-4.2v-29l-1.5-34.1l-35.1,20.3l-3.3,46.2v47.8l24.8-14.3L165.3,296.5z"/>
			</g>
		</g>
		<polygon class="st22" points="111.4,172 185.6,214.8 132.6,245.4 58.5,202.6 		"/>
		<path class="st2" d="M211.2,177.4c0,1.4-1,1.9-2.2,1.2c-1.2-0.7-2.2-2.4-2.2-3.7c0-1.4,1-1.9,2.2-1.2
			C210.3,174.4,211.2,176.1,211.2,177.4z"/>
		<path class="st21" d="M210.9,177c0,1.1-0.8,1.5-1.7,1c-0.9-0.5-1.7-1.9-1.7-3c0-1.1,0.8-1.5,1.7-1
			C210.1,174.6,210.9,175.9,210.9,177z"/>
		<polygon class="st54" points="111.4,172 185.6,214.8 189.2,215.2 115,172.3 		"/>
		<polygon class="st54" points="54.7,207.2 128.9,250 132.6,245.4 58.5,202.6 		"/>
		<polygon class="st11" points="128.9,250 128.4,253.5 54.2,210.7 54.7,207.2 		"/>
		<polygon class="st23" points="47.7,260 121.8,302.8 128.4,253.5 86.7,229.4 63.1,215.8 54.2,210.7 		"/>
		<path class="st55" d="M47.7,260l1.3,2.8l8,8.5l46.8,27l14.6,4.5h3.6l4.2-3.6c0.4-0.4,0.8-0.9,0.9-1.5l0.1-0.2l0-0.1l0.3-2.2
			l0.1-1.1l0,0l-2.5-4l-1.3-0.6l-8.8-4.3L63,254.9h-7.4L47.7,260z"/>
		<polygon class="st22" points="54.2,210.7 58.3,208.4 52.8,253.9 47.7,260 		"/>
		<path class="st22" d="M61.6,239.3v7.7c0,1.7,1.2,2.4,2.7,1.5l12.1-7c0.7-0.4,1.4-1.1,1.9-2c0.5-0.8,0.8-1.8,0.8-2.6
			c0-1.7,1.2-3.7,2.7-4.6l5-2.9l-23.6-13.6L61.6,239C61.6,239.1,61.6,239.2,61.6,239.3z"/>
		<polygon class="st11" points="119.9,305.7 119.9,339 116.3,339 101.6,334.4 54.9,307.4 46.9,298.9 45.7,296.1 45.7,262.8 
			46.9,265.6 54.9,274.1 101.7,301.1 116.3,305.7 		"/>
		<polygon class="st39" points="121.8,339.4 121.8,351.5 118.2,351.5 103.5,346.9 56.9,320 48.9,311.5 47.7,308.7 47.7,296.6 
			48.9,299.4 56.9,307.9 103.6,334.9 119.9,339 		"/>
		<polygon class="st56" points="49.6,302.5 49.6,300.2 56.9,307.9 58,308.5 58.3,308.8 102.3,334.2 102.7,334.3 103.6,334.9 
			119.4,338.8 119.4,342.2 118.2,342.2 103.3,337.8 58.3,311.8 		"/>
		<polygon class="st0" points="119.9,315.7 119.9,339 116.3,339 101.6,334.4 54.9,307.4 46.9,298.9 45.7,296.1 45.7,272.9 
			46.9,275.7 54.9,284.1 101.6,311.1 116.3,315.7 		"/>
		<polygon class="st57" points="54.9,284.1 101.6,311.1 116.3,315.7 119.9,315.7 119.9,316.7 116.3,316.7 101.6,312.1 54.9,285.2 
			46.9,276.7 45.7,273.9 45.7,272.9 46.9,275.7 		"/>
		<path class="st58" d="M131.4,246.9c0,0-2.2,6.5-2,6.6c0.3,0.1-2,8.3-2,8.3S96.4,251.5,94.1,250c-2.3-1.5-28.3-16.6-32.4-19.6
			c-4.1-3.1-8.8-9.5-8.8-9.5l1.4-10.1L131.4,246.9z"/>
		<path class="st59" d="M131.2,245.6l0.2,1.3c0,0-4.4,4-4.5,4.2c0,0.2-4.6,5.9-4.6,5.9h-1.1C121.3,257,124.1,245.5,131.2,245.6z"/>
		<path class="st2" d="M57,202.8l-5.4,4.8c0,0-3.1,3.9-4.5,6.5l14.8,13.2l32.5,18.8l26.9,10.8c1.4-2.6,4.5-6.5,4.5-6.5l5.4-4.8
			L57,202.8z"/>
		<path class="st36" d="M57,202.8l72.7,42c-1,1.3-2.9,3.8-3.9,5.7l-26.9-10.8l-32.5-18.8l-14.8-13.2L57,202.8z"/>
		<polygon class="st36" points="51.6,207.7 125.8,250.5 131.2,245.6 57,202.8 		"/>
		<polygon class="st0" points="164.7,332 167.5,330.3 173.6,308 199.3,293.1 205.7,291.2 210.6,297.7 210.6,307.9 213.4,306.2 
			213.4,292.8 206.6,284.3 199.3,286.4 172.1,302.1 		"/>
		<polygon class="st60" points="242,173.6 239.4,170.9 239.4,248.9 242,235 		"/>
		<polygon class="st61" points="360.9,104.9 367.5,97 239.4,170.9 242,173.6 		"/>
		<polygon class="st62" points="360.9,104.9 369.3,161.5 378.5,168.6 367.5,97 		"/>
		<g>
			<path class="st6" d="M317,181.4c0.3,0.4,0.3,1,0.1,1.6c-0.1,0.2-0.1,0.3-0.2,0.3l-15.1,8.7v-12.4l9.5-5.5L317,181.4z"/>
			<path class="st6" d="M285.6,187.7l-10.4,6c-0.8,0.4-1.4,0.5-1.9,0.2l5.9-14.2l9.1,1.4L285.6,187.7z"/>
			<path class="st6" d="M297.9,167.2l-13.2,11l-2.9-13.4l3.5,0.5l5.4-12.9c1-2.4,2.7-4.5,4.6-5.5l9.8-5.7l-10.7,25.5L297.9,167.2z"
				/>
			<path class="st6" d="M299.3,157.4l5-12.2c0.4-1,1-1.7,1.7-2.1c0,0,0,0,0.1,0c0.1-0.1,0.3-0.1,0.3-0.1l7.6,9.4l-9.1,11.9
				L299.3,157.4z"/>
			<path class="st6" d="M307.3,176l2.9-16.8l13.2-4.2l-3.5,4.5l3.7,4.5c1.1,1.3,1.1,3.7,0.2,6.2l-4.4,11.7l-8.6-10.5L307.3,176z"/>
			<path class="st6" d="M290.4,186.2v-4.7l9.5,5.4l-9.5,16.4v-4.7l-9.5,5.5c-1.9,1.1-3.6,0.9-4.5-0.5l-4.5-6.8L290.4,186.2z"/>
		</g>
		<g>
			<polygon class="st63" points="376.3,178.8 272.5,238.7 272.5,242.1 376.3,182.1 			"/>
			<g>
				<polygon class="st64" points="370.5,182.1 373.9,180.2 376.3,182.1 372.9,184.1 				"/>
				<polygon class="st64" points="361.6,187.3 365,185.3 367.4,187.2 364,189.2 				"/>
				<polygon class="st64" points="352.7,192.4 356.1,190.5 358.5,192.4 355.1,194.3 				"/>
				<polygon class="st64" points="343.7,197.6 347.1,195.6 349.6,197.5 346.2,199.5 				"/>
				<polygon class="st64" points="334.8,202.7 338.2,200.7 340.7,202.7 337.3,204.6 				"/>
				<polygon class="st64" points="325.9,207.8 329.3,205.9 331.8,207.8 328.4,209.8 				"/>
				<polygon class="st64" points="317,213 320.4,211 322.9,213 319.5,214.9 				"/>
				<polygon class="st64" points="308.1,218.1 311.5,216.2 313.9,218.1 310.5,220.1 				"/>
				<polygon class="st64" points="299.2,223.3 302.6,221.3 305,223.3 301.6,225.2 				"/>
				<polygon class="st64" points="290.3,228.4 293.7,226.5 296.1,228.4 292.7,230.4 				"/>
				<polygon class="st64" points="281.4,233.6 284.8,231.6 287.2,233.5 283.8,235.5 				"/>
				<polygon class="st64" points="272.5,238.7 275.9,236.8 278.3,238.7 274.9,240.6 				"/>
			</g>
		</g>
		<g>
			<g>
				<polygon class="st65" points="128.5,243.1 180.7,213 179.9,212.5 128.3,243.1 				"/>
				<polygon class="st22" points="128.3,242.9 180.4,212.7 179.6,212.2 127.4,242.4 				"/>
				<polygon class="st65" points="128.3,242.9 128.3,243.1 127.4,242.7 127.4,242.4 				"/>
				<polygon class="st66" points="128.3,243.1 180.4,213 180.4,212.7 128.3,242.9 				"/>
			</g>
			<g>
				<polygon class="st65" points="119.2,237.7 171.3,207.5 170.5,207.1 118.9,237.7 				"/>
				<polygon class="st22" points="118.9,237.4 171,207.3 170.2,206.8 118.1,237 				"/>
				<polygon class="st65" points="118.9,237.4 118.9,237.7 118.1,237.2 118.1,237 				"/>
				<polygon class="st66" points="118.9,237.7 171,207.5 171,207.3 118.9,237.4 				"/>
			</g>
			<g>
				<polygon class="st65" points="109.8,232.3 161.9,202.1 161.1,201.6 109.5,232.3 				"/>
				<polygon class="st22" points="109.5,232 161.7,201.8 160.8,201.4 108.7,231.5 				"/>
				<polygon class="st65" points="109.5,232 109.5,232.3 108.7,231.8 108.7,231.5 				"/>
				<polygon class="st66" points="109.5,232.3 161.7,202.1 161.7,201.8 109.5,232 				"/>
			</g>
			<g>
				<polygon class="st65" points="100.4,226.9 152.6,196.7 151.7,196.2 100.1,226.9 				"/>
				<polygon class="st22" points="100.1,226.6 152.3,196.4 151.4,196 99.3,226.1 				"/>
				<polygon class="st65" points="100.1,226.6 100.1,226.9 99.3,226.4 99.3,226.1 				"/>
				<polygon class="st66" points="100.1,226.9 152.3,196.7 152.3,196.4 100.1,226.6 				"/>
			</g>
			<g>
				<polygon class="st65" points="91,221.4 143.2,191.3 142.3,190.8 90.7,221.4 				"/>
				<polygon class="st22" points="90.7,221.2 142.9,191 142.1,190.5 89.9,220.7 				"/>
				<polygon class="st65" points="90.7,221.2 90.7,221.4 89.9,221 89.9,220.7 				"/>
				<polygon class="st66" points="90.7,221.4 142.9,191.3 142.9,191 90.7,221.2 				"/>
			</g>
			<g>
				<polygon class="st65" points="81.6,216 133.8,185.9 133,185.4 81.3,216 				"/>
				<polygon class="st22" points="81.3,215.8 133.5,185.6 132.7,185.1 80.5,215.3 				"/>
				<polygon class="st65" points="81.3,215.8 81.3,216 80.5,215.6 80.5,215.3 				"/>
				<polygon class="st66" points="81.3,216 133.5,185.9 133.5,185.6 81.3,215.8 				"/>
			</g>
			<g>
				<polygon class="st65" points="72.2,210.6 124.4,180.4 123.6,180 71.9,210.6 				"/>
				<polygon class="st22" points="71.9,210.3 124.1,180.2 123.3,179.7 71.1,209.9 				"/>
				<polygon class="st65" points="71.9,210.3 71.9,210.6 71.1,210.1 71.1,209.9 				"/>
				<polygon class="st66" points="71.9,210.6 124.1,180.4 124.1,180.2 71.9,210.3 				"/>
			</g>
			<g>
				<polygon class="st65" points="62.8,205.2 115,175 114.2,174.5 62.5,205.2 				"/>
				<polygon class="st22" points="62.5,204.9 114.7,174.7 113.9,174.3 61.7,204.4 				"/>
				<polygon class="st65" points="62.5,204.9 62.5,205.2 61.7,204.7 61.7,204.4 				"/>
				<polygon class="st66" points="62.5,205.2 114.7,175 114.7,174.7 62.5,204.9 				"/>
			</g>
		</g>
		<g>
			<g>
				<polygon class="st65" points="107.9,228.7 110.7,227.1 108.5,225.8 106.3,228.7 				"/>
				<polygon class="st67" points="106.3,228.7 104.1,227.4 104.1,226.3 106.3,227.6 				"/>
				<polygon class="st68" points="106.3,227.6 109.1,226 106.9,224.7 104.1,226.3 				"/>
				<polygon class="st69" points="106.3,227.6 109.1,226 109.1,227.1 106.3,228.7 				"/>
			</g>
			<g>
				<polygon class="st65" points="96.9,222.2 99.7,220.6 97.5,219.3 95.3,222.2 				"/>
				<polygon class="st67" points="95.3,222.2 93.1,220.9 93.1,219.8 95.3,221.1 				"/>
				<polygon class="st68" points="95.3,221.1 98.1,219.5 95.9,218.2 93.1,219.8 				"/>
				<polygon class="st69" points="95.3,221.1 98.1,219.5 98.1,220.6 95.3,222.2 				"/>
			</g>
			<g>
				<polygon class="st65" points="85.9,215.7 88.7,214.1 86.5,212.8 84.4,215.7 				"/>
				<polygon class="st67" points="84.4,215.7 82.2,214.3 82.2,213.3 84.4,214.6 				"/>
				<polygon class="st68" points="84.4,214.6 87.1,213 85,211.7 82.2,213.3 				"/>
				<polygon class="st69" points="84.4,214.6 87.1,213 87.1,214.1 84.4,215.7 				"/>
			</g>
		</g>
		<g>
			<g>
				<polygon class="st70" points="127.8,322 130.5,320.4 130.5,317.3 129.7,314.8 126.3,320.7 				"/>
			</g>
			<polygon class="st71" points="125.9,321.3 130.1,318.9 130.1,314.2 125.9,316.5 			"/>
			<polygon class="st68" points="126.3,320.7 130.8,316.2 129.7,314.8 126.3,316.7 			"/>
			<polygon class="st69" points="128.1,320.9 130.8,319.3 130.8,316.2 128.1,317.8 			"/>
			<polygon class="st67" points="126.3,316.7 128.1,317.8 128.1,320.9 126.3,320.7 			"/>
		</g>
		<polygon class="st56" points="55.2,334 101.9,360.9 116.6,365.5 120.2,365.5 121.6,368.6 118,368.6 103.3,364 56.7,337.1 
			48.7,328.6 47.4,325.8 46,322.7 47.3,325.5 		"/>
		<polygon class="st56" points="46,314.1 46,322.7 47.3,325.5 55.2,334 101.9,360.9 116.6,365.5 120.2,365.5 125.4,365.2 
			125.4,356.6 120.2,356.9 116.6,356.9 101.9,352.3 55.2,325.4 47.3,316.9 		"/>
		<polygon class="st72" points="46,314.1 46,317.9 46,320.5 52.8,327.8 101.9,356.2 116.6,360.7 120.2,360.7 125.4,360.4 
			125.4,356.6 120.2,356.9 116.6,356.9 101.9,352.3 55.2,325.4 47.3,316.9 		"/>
		<polygon class="st73" points="118,358.2 123.3,357.9 121.8,343.4 118,345.7 116.5,347.7 116.5,357.7 		"/>
		<polygon class="st73" points="123.3,357.9 131.9,352.9 131.9,340.3 123.3,345.3 121.8,347.4 121.8,357.4 		"/>
		<polygon class="st73" points="126.9,368.3 131.9,365.4 131.9,352.9 125.4,356.6 125.4,365.2 		"/>
		<polygon class="st73" points="51.6,326.2 98.3,353.1 113,357.7 116.5,357.7 118,358.2 114.4,358.2 99.7,353.6 53.1,326.7 
			45.1,318.2 43.8,315.4 42.4,314.9 43.6,317.7 		"/>
		<polygon class="st2" points="53.1,314.1 99.7,341.1 114.4,345.7 118,345.7 116.5,347.7 113,347.7 98.3,343.1 51.6,316.2 
			43.6,307.7 42.4,304.9 43.8,302.8 45.1,305.6 		"/>
		<polygon class="st1" points="56.9,311.9 103.5,338.8 118.2,343.4 121.8,343.4 118,345.7 114.4,345.7 99.7,341.1 53.1,314.1 
			45.1,305.6 43.8,302.8 47.7,300.6 48.9,303.4 		"/>
		<polygon class="st0" points="51.6,316.2 98.3,343.1 113,347.7 116.5,347.7 116.5,357.7 113,357.7 98.3,353.1 51.6,326.2 
			43.6,317.7 42.4,314.9 42.4,304.9 43.6,307.7 		"/>
		<polygon class="st1" points="129.5,339 131.9,340.3 123.3,345.3 118,345.7 		"/>
		<polygon class="st2" points="116.5,347.7 121.8,347.4 123.3,345.3 118,345.7 		"/>
		<polygon class="st0" points="116.5,357.7 121.8,357.4 121.8,347.4 116.5,347.7 		"/>
		<polygon class="st56" points="126.9,368.3 121.6,368.6 120.2,365.5 125.4,365.2 		"/>
		<polygon class="st73" points="112.1,348.3 99.1,344.2 99.1,352.5 112.1,356.6 		"/>
		<polygon class="st1" points="112.1,356.6 112.1,354.8 101.7,351.1 99.1,352.5 		"/>
		<polygon class="st74" points="101.1,344.9 100.7,345.2 111.7,355.8 112.1,355.5 112.1,348.3 		"/>
		<polygon class="st2" points="44.5,309.8 44.5,317.3 50.8,324.1 50.8,316.5 45.3,310.6 45.1,310.5 		"/>
		<polygon class="st73" points="44.5,317.3 45.7,316.8 50.8,321.7 50.8,324.1 		"/>
		<polygon class="st75" points="101,345.4 101,351 111.7,354.9 111.7,348.7 		"/>
		<polygon class="st75" points="100.7,345.2 100.7,351.8 111.7,355.8 111.7,348.7 101.4,345.4 		"/>
		<polygon class="st76" points="102.6,345.8 102.6,350.9 111.7,354.2 111.7,348.7 		"/>
		<polygon class="st75" points="45.3,310.6 46.2,316.8 50.8,322.2 50.8,316.5 		"/>
		<polygon class="st75" points="45.1,310.5 45.1,317.1 50.8,322.4 50.8,316.5 45.7,311.1 45.3,310.6 		"/>
		<polygon class="st76" points="46.6,312 46.6,316.8 50.8,320.8 50.8,316.5 		"/>
		<g>
			<g>
				<polygon class="st73" points="116.6,333.7 116.6,335.1 113.2,334.8 101.7,331.1 54.7,304.7 47.7,297 46.6,294.6 46.6,293.2 
					47.7,295.6 54.7,303.3 101.7,329.7 113.3,333.4 				"/>
			</g>
		</g>
		<g>
			<g>
				<polygon class="st73" points="116.6,330.6 116.6,332 113.2,331.7 101.7,328.1 54.7,301.6 47.7,293.9 46.6,291.5 46.6,290.1 
					47.7,292.5 54.7,300.2 101.7,326.7 113.3,330.3 				"/>
			</g>
		</g>
		<g>
			<g>
				<polygon class="st73" points="116.6,327.5 116.6,328.9 113.2,328.7 101.7,325 54.7,298.5 47.7,290.8 46.6,288.4 46.6,287.1 
					47.7,289.4 54.7,297.1 101.7,323.6 113.3,327.3 				"/>
			</g>
		</g>
		<g>
			<g>
				<polygon class="st73" points="116.6,324.4 116.6,325.8 113.2,325.6 101.7,321.9 54.7,295.4 47.7,287.8 46.6,285.4 46.6,284 
					47.7,286.4 54.7,294.1 101.7,320.5 113.3,324.2 				"/>
			</g>
		</g>
		<g>
			<g>
				<polygon class="st73" points="116.6,321.4 116.6,322.8 113.2,322.5 101.7,318.8 54.7,292.4 47.7,284.7 46.6,282.3 46.6,280.9 
					47.7,283.3 54.7,291 101.7,317.4 113.3,321.1 				"/>
			</g>
		</g>
		<g>
			<g>
				<polygon class="st73" points="116.6,318.3 116.6,319.7 113.2,319.4 101.7,315.8 54.7,289.3 47.7,281.6 46.6,279.2 46.6,277.8 
					47.7,280.2 54.7,287.9 101.7,314.4 113.3,318 				"/>
			</g>
		</g>
		<path class="st77" d="M76.8,307.6l3,1.6c0,0,0.6,0.9,0.6,1.5v3.2c0,0.7-0.7,1.1-1.3,0.8l-2.8-1.7c-0.2-0.1-0.4-0.4-0.5-0.6
			l-0.3-0.8v-3.2C75.4,307.6,76.2,307.2,76.8,307.6z"/>
		<path class="st26" d="M76.4,306.9l2.7,1.6c0.5,0.3,0.8,0.8,0.8,1.4v3.1c0,0.7-0.7,1.1-1.3,0.7l-2.7-1.6c-0.5-0.3-0.8-0.8-0.8-1.4
			v-3.1C75.2,307,75.9,306.6,76.4,306.9z"/>
		<path class="st11" d="M76.3,307.4l2.4,1.4c0.4,0.3,0.7,0.7,0.7,1.2v2.7c0,0.6-0.6,0.9-1.1,0.7l-2.4-1.4c-0.4-0.3-0.7-0.7-0.7-1.2
			v-2.7C75.2,307.5,75.8,307.2,76.3,307.4z"/>
		<polygon class="st78" points="100.7,345.9 111.7,349.5 111.7,348.7 100.7,345.2 		"/>
		<polygon class="st78" points="45.1,311.1 50.8,317.3 50.8,316.5 45.1,310.5 		"/>
	</g>
	<g>
		<path class="st11" d="M356.5,225.8c0,8.1,5.7,11.3,12.7,7.3c7-4.1,12.7-13.9,12.7-22c0-8.1-5.7-11.3-12.7-7.3
			S356.5,217.7,356.5,225.8z"/>
		<path class="st17" d="M357.3,225.4c0,0.3,0,0.5,0,0.7c0.3,7,5.5,9.7,11.9,6.1c6.6-3.8,11.9-13,11.9-20.6c0-7.2-4.9-10.3-11-7.3
			c-0.3,0.1-0.6,0.3-0.9,0.5c-1.6,0.9-3.1,2.2-4.5,3.6c-0.2,0.2-0.3,0.3-0.4,0.5c-0.5,0.6-1.1,1.2-1.5,1.8v0
			c-0.2,0.2-0.3,0.4-0.5,0.7c-0.7,1-1.3,2-1.8,3h0c-0.1,0.2-0.2,0.5-0.4,0.7c-0.4,0.8-0.8,1.7-1.1,2.5c-0.1,0.2-0.1,0.3-0.2,0.5
			C357.8,220.5,357.3,223,357.3,225.4z"/>
		<path class="st79" d="M365.9,230.5c6.6-3.8,11.9-13,11.9-20.6c0-3-0.8-5.3-2.3-6.7c3.4,0.5,5.6,3.5,5.6,8.4
			c0,7.6-5.3,16.8-11.9,20.6c-4,2.3-7.5,2.1-9.7-0.1C361.4,232.3,363.5,231.8,365.9,230.5z"/>
		<path class="st80" d="M357.3,225.4c0,0.3,0,0.5,0,0.7c0.1,2.6,0.9,4.6,2.1,5.9c2.1,1.2,5,1,8.3-0.9c6.5-3.7,11.7-12.7,11.7-20.2
			c0-4-1.5-6.7-3.9-7.7c0,0,0,0,0,0c-1.6-0.2-3.4,0.1-5.4,1.1c-0.3,0.1-0.6,0.3-0.9,0.5c-1.6,0.9-3.1,2.2-4.5,3.6
			c-0.2,0.2-0.3,0.3-0.4,0.5c-0.5,0.6-1.1,1.2-1.5,1.8v0c-0.2,0.2-0.3,0.4-0.5,0.7c-0.7,1-1.3,2-1.8,3h0c-0.1,0.2-0.2,0.5-0.4,0.7
			c-0.4,0.8-0.8,1.7-1.1,2.5c-0.1,0.2-0.1,0.3-0.2,0.5C357.8,220.5,357.3,223,357.3,225.4z"/>
		<path class="st11" d="M365.4,230.1c6.5-3.7,11.7-12.7,11.7-20.2c0-3.1-0.9-5.4-2.4-6.8c0.3,0,0.6,0,0.8,0c0,0,0,0,0,0
			c2.4,1.1,3.9,3.8,3.9,7.7c0,7.4-5.2,16.5-11.7,20.2c-3.2,1.9-6.1,2.1-8.3,0.9c-0.1-0.1-0.2-0.2-0.3-0.3
			C361,231.9,363.1,231.4,365.4,230.1z"/>
		<path class="st79" d="M357.3,225.4c0,0.3,0,0.5,0,0.7c1.6,2.4,4.7,2.9,8.2,0.8c5.1-3,9.3-10.2,9.3-16.1c0-4-1.9-6.3-4.7-6.6
			c-0.3,0.1-0.6,0.3-0.9,0.5c-1.6,0.9-3.1,2.2-4.5,3.6c-0.2,0.2-0.3,0.3-0.4,0.5c-0.5,0.6-1.1,1.2-1.5,1.8v0
			c-0.2,0.2-0.3,0.4-0.5,0.7c-0.7,1-1.3,2-1.8,3h0c-0.1,0.2-0.2,0.5-0.4,0.7c-0.4,0.8-0.8,1.7-1.1,2.5c-0.1,0.2-0.1,0.3-0.2,0.5
			C357.8,220.5,357.3,223,357.3,225.4z"/>
		<path class="st20" d="M370.3,206.8c0,0.9-0.7,2.1-1.5,2.5c-0.8,0.5-1.5,0.1-1.5-0.8c0-0.9,0.7-2.1,1.5-2.5
			C369.6,205.5,370.3,205.9,370.3,206.8z"/>
		<path class="st20" d="M362.2,211.4c0.1,0.2,0.2,0.4,0.4,0.5c0.6,0.3,1.5-0.2,2.1-1.2c0.6-1,0.6-2,0-2.4c-0.2,0.2-0.3,0.3-0.4,0.5
			c-0.5,0.6-1.1,1.2-1.5,1.8v0C362.6,211,362.4,211.2,362.2,211.4z"/>
		<path class="st20" d="M358.7,218.1c0.3,0.1,0.6,0.1,1-0.1c0.8-0.5,1.5-1.6,1.5-2.5c0-0.7-0.3-1-0.8-1h0c-0.1,0.2-0.2,0.5-0.4,0.7
			c-0.4,0.8-0.8,1.7-1.1,2.5C358.8,217.8,358.8,217.9,358.7,218.1z"/>
		<path class="st81" d="M358.9,217.6c0.2,0.3,0.6,0.4,1,0.1c0.6-0.4,1.1-1.2,1.1-1.9c0-0.7-0.4-0.9-1-0.7
			C359.6,215.9,359.2,216.7,358.9,217.6z"/>
		<path class="st81" d="M362.7,210.9c0,0.7,0.5,1,1.1,0.6c0.6-0.3,1.1-1.2,1.1-1.9c0-0.5-0.3-0.8-0.7-0.8c-0.5,0.6-1.1,1.2-1.5,1.8
			v0C362.7,210.8,362.7,210.9,362.7,210.9z"/>
		<path class="st81" d="M369,206.5c0.6-0.4,1.1-0.1,1.1,0.6s-0.5,1.6-1.1,1.9c-0.6,0.4-1.1,0.1-1.1-0.6S368.4,206.9,369,206.5z"/>
		<path class="st20" d="M358.3,221.8c0.6-1,1.5-1.5,2.1-1.2c0.6,0.3,0.6,1.4,0,2.4c-0.6,1-1.5,1.5-2.1,1.2
			C357.7,223.9,357.7,222.8,358.3,221.8z"/>
		<path class="st20" d="M361.2,225.9c0-0.9,0.7-2.1,1.5-2.5c0.8-0.5,1.5-0.1,1.5,0.8c0,0.9-0.7,2.1-1.5,2.5
			C361.8,227.2,361.2,226.8,361.2,225.9z"/>
		<path class="st20" d="M366.8,224.3c-0.6-0.3-0.6-1.4,0-2.4c0.6-1,1.5-1.5,2.1-1.2c0.6,0.3,0.6,1.4,0,2.4
			C368.3,224.1,367.3,224.6,366.8,224.3z"/>
		<path class="st20" d="M371.7,218.1c-0.8,0.5-1.5,0.1-1.5-0.8s0.7-2.1,1.5-2.5c0.8-0.5,1.5-0.1,1.5,0.8
			C373.2,216.5,372.6,217.6,371.7,218.1z"/>
		<path class="st20" d="M373.2,210.8c-0.6,1-1.5,1.5-2.1,1.2c-0.6-0.3-0.6-1.4,0-2.4s1.5-1.5,2.1-1.2
			C373.8,208.8,373.8,209.8,373.2,210.8z"/>
		<path class="st20" d="M362.7,218.8c0,2.1,1.5,3,3.3,1.9s3.3-3.7,3.3-5.8c0-2.1-1.5-3-3.3-1.9C364.2,214.1,362.7,216.7,362.7,218.8
			z"/>
		<path class="st81" d="M364.3,219.2c0,1.8,1.3,2.5,2.8,1.6c1.6-0.9,2.8-3.1,2.8-4.9c0-1.8-1.3-2.5-2.8-1.6
			C365.6,215.2,364.3,217.4,364.3,219.2z"/>
		<path class="st81" d="M372.3,209.1c0.6-0.4,1.1-0.1,1.1,0.6s-0.5,1.6-1.1,1.9c-0.6,0.4-1.1,0.1-1.1-0.6S371.7,209.5,372.3,209.1z"
			/>
		<path class="st81" d="M371.9,215.3c0.6-0.4,1.1-0.1,1.1,0.6s-0.5,1.6-1.1,1.9c-0.6,0.4-1.1,0.1-1.1-0.6S371.3,215.6,371.9,215.3z"
			/>
		<path class="st81" d="M368,221.4c0.6-0.4,1.1-0.1,1.1,0.6s-0.5,1.6-1.1,1.9c-0.6,0.4-1.1,0.1-1.1-0.6S367.4,221.7,368,221.4z"/>
		<path class="st81" d="M362.8,223.9c0.6-0.4,1.1-0.1,1.1,0.6s-0.5,1.6-1.1,1.9c-0.6,0.4-1.1,0.1-1.1-0.6S362.2,224.2,362.8,223.9z"
			/>
		<path class="st81" d="M359.5,221.3c0.6-0.4,1.1-0.1,1.1,0.6s-0.5,1.6-1.1,1.9c-0.6,0.4-1.1,0.1-1.1-0.6
			C358.4,222.5,358.9,221.6,359.5,221.3z"/>
	</g>
	<g>
		<path class="st11" d="M311.9,251.6c0,8.1,5.7,11.3,12.7,7.3c7-4.1,12.7-13.9,12.7-22c0-8.1-5.7-11.3-12.7-7.3
			C317.6,233.7,311.9,243.5,311.9,251.6z"/>
		<path class="st17" d="M312.7,251.1c0,0.3,0,0.5,0,0.7c0.3,7,5.5,9.7,11.9,6.1c6.6-3.8,11.9-13,11.9-20.6c0-7.2-4.9-10.3-11-7.3
			c-0.3,0.1-0.6,0.3-0.9,0.5c-1.6,0.9-3.1,2.2-4.5,3.6c-0.2,0.2-0.3,0.3-0.4,0.5c-0.5,0.6-1.1,1.2-1.5,1.8v0
			c-0.2,0.2-0.3,0.4-0.5,0.7c-0.7,1-1.3,2-1.8,3h0c-0.1,0.2-0.2,0.5-0.4,0.7c-0.4,0.8-0.8,1.7-1.1,2.5c-0.1,0.2-0.1,0.3-0.2,0.5
			C313.2,246.3,312.7,248.8,312.7,251.1z"/>
		<path class="st79" d="M321.2,256.2c6.6-3.8,11.9-13,11.9-20.6c0-3-0.8-5.3-2.3-6.7c3.4,0.5,5.6,3.5,5.6,8.4
			c0,7.6-5.3,16.8-11.9,20.6c-4,2.3-7.5,2.1-9.7-0.1C316.8,258.1,318.9,257.6,321.2,256.2z"/>
		<path class="st80" d="M312.7,251.1c0,0.3,0,0.5,0,0.7c0.1,2.6,0.9,4.6,2.1,5.9c2.1,1.2,5,1,8.3-0.9c6.5-3.7,11.7-12.7,11.7-20.2
			c0-4-1.5-6.7-3.9-7.7c0,0,0,0,0,0c-1.6-0.2-3.4,0.1-5.4,1.1c-0.3,0.1-0.6,0.3-0.9,0.5c-1.6,0.9-3.1,2.2-4.5,3.6
			c-0.2,0.2-0.3,0.3-0.4,0.5c-0.5,0.6-1.1,1.2-1.5,1.8v0c-0.2,0.2-0.3,0.4-0.5,0.7c-0.7,1-1.3,2-1.8,3h0c-0.1,0.2-0.2,0.5-0.4,0.7
			c-0.4,0.8-0.8,1.7-1.1,2.5c-0.1,0.2-0.1,0.3-0.2,0.5C313.2,246.3,312.7,248.8,312.7,251.1z"/>
		<path class="st11" d="M320.8,255.9c6.5-3.7,11.7-12.7,11.7-20.2c0-3.1-0.9-5.4-2.4-6.8c0.3,0,0.6,0,0.8,0c0,0,0,0,0,0
			c2.4,1.1,3.9,3.8,3.9,7.7c0,7.4-5.2,16.5-11.7,20.2c-3.2,1.9-6.1,2.1-8.3,0.9c-0.1-0.1-0.2-0.2-0.3-0.3
			C316.4,257.6,318.5,257.2,320.8,255.9z"/>
		<path class="st79" d="M312.7,251.1c0,0.3,0,0.5,0,0.7c1.6,2.4,4.7,2.9,8.2,0.8c5.1-3,9.3-10.2,9.3-16.1c0-4-1.9-6.3-4.7-6.6
			c-0.3,0.1-0.6,0.3-0.9,0.5c-1.6,0.9-3.1,2.2-4.5,3.6c-0.2,0.2-0.3,0.3-0.4,0.5c-0.5,0.6-1.1,1.2-1.5,1.8v0
			c-0.2,0.2-0.3,0.4-0.5,0.7c-0.7,1-1.3,2-1.8,3h0c-0.1,0.2-0.2,0.5-0.4,0.7c-0.4,0.8-0.8,1.7-1.1,2.5c-0.1,0.2-0.1,0.3-0.2,0.5
			C313.2,246.3,312.7,248.8,312.7,251.1z"/>
		<path class="st20" d="M325.7,232.6c0,0.9-0.7,2.1-1.5,2.5s-1.5,0.1-1.5-0.8c0-0.9,0.7-2.1,1.5-2.5
			C325,231.3,325.7,231.6,325.7,232.6z"/>
		<path class="st20" d="M317.6,237.2c0.1,0.2,0.2,0.4,0.4,0.5c0.6,0.3,1.5-0.2,2.1-1.2c0.6-1,0.6-2,0-2.4c-0.2,0.2-0.3,0.3-0.4,0.5
			c-0.5,0.6-1.1,1.2-1.5,1.8v0C317.9,236.7,317.8,236.9,317.6,237.2z"/>
		<path class="st20" d="M314.1,243.8c0.3,0.1,0.6,0.1,1-0.1c0.8-0.5,1.5-1.6,1.5-2.5c0-0.7-0.3-1-0.8-1h0c-0.1,0.2-0.2,0.5-0.4,0.7
			c-0.4,0.8-0.8,1.7-1.1,2.5C314.2,243.5,314.2,243.7,314.1,243.8z"/>
		<path class="st81" d="M314.3,243.3c0.2,0.3,0.6,0.4,1,0.1c0.6-0.4,1.1-1.2,1.1-1.9c0-0.7-0.4-0.9-1-0.7
			C315,241.7,314.6,242.5,314.3,243.3z"/>
		<path class="st81" d="M318.1,236.7c0,0.7,0.5,1,1.1,0.6c0.6-0.3,1.1-1.2,1.1-1.9c0-0.5-0.3-0.8-0.7-0.8c-0.5,0.6-1.1,1.2-1.5,1.8
			v0C318.1,236.6,318.1,236.6,318.1,236.7z"/>
		<path class="st81" d="M324.4,232.3c0.6-0.4,1.1-0.1,1.1,0.6s-0.5,1.6-1.1,1.9c-0.6,0.4-1.1,0.1-1.1-0.6S323.7,232.6,324.4,232.3z"
			/>
		<path class="st20" d="M313.7,247.6c0.6-1,1.5-1.5,2.1-1.2c0.6,0.3,0.6,1.4,0,2.4c-0.6,1-1.5,1.5-2.1,1.2
			C313.1,249.7,313.1,248.6,313.7,247.6z"/>
		<path class="st20" d="M316.6,251.6c0-0.9,0.7-2.1,1.5-2.5c0.8-0.5,1.5-0.1,1.5,0.8c0,0.9-0.7,2.1-1.5,2.5
			C317.2,252.9,316.6,252.5,316.6,251.6z"/>
		<path class="st20" d="M322.2,250.1c-0.6-0.3-0.6-1.4,0-2.4c0.6-1,1.5-1.5,2.1-1.2c0.6,0.3,0.6,1.4,0,2.4
			C323.7,249.8,322.7,250.4,322.2,250.1z"/>
		<path class="st20" d="M327.1,243.8c-0.8,0.5-1.5,0.1-1.5-0.8c0-0.9,0.7-2.1,1.5-2.5c0.8-0.5,1.5-0.1,1.5,0.8
			C328.6,242.2,327.9,243.4,327.1,243.8z"/>
		<path class="st20" d="M328.6,236.6c-0.6,1-1.5,1.5-2.1,1.2c-0.6-0.3-0.6-1.4,0-2.4c0.6-1,1.5-1.5,2.1-1.2
			C329.2,234.5,329.2,235.6,328.6,236.6z"/>
		<path class="st20" d="M318.1,244.6c0,2.1,1.5,3,3.3,1.9s3.3-3.7,3.3-5.8c0-2.1-1.5-3-3.3-1.9S318.1,242.5,318.1,244.6z"/>
		<path class="st81" d="M319.7,245c0,1.8,1.3,2.5,2.8,1.6c1.6-0.9,2.8-3.1,2.8-4.9c0-1.8-1.3-2.5-2.8-1.6
			C321,241,319.7,243.2,319.7,245z"/>
		<path class="st81" d="M327.7,234.9c0.6-0.4,1.1-0.1,1.1,0.6s-0.5,1.6-1.1,1.9c-0.6,0.4-1.1,0.1-1.1-0.6
			C326.6,236.1,327.1,235.2,327.7,234.9z"/>
		<path class="st81" d="M327.3,241c0.6-0.4,1.1-0.1,1.1,0.6s-0.5,1.6-1.1,1.9c-0.6,0.4-1.1,0.1-1.1-0.6S326.7,241.4,327.3,241z"/>
		<path class="st81" d="M323.4,247.1c0.6-0.4,1.1-0.1,1.1,0.6s-0.5,1.6-1.1,1.9c-0.6,0.4-1.1,0.1-1.1-0.6
			C322.2,248.3,322.7,247.5,323.4,247.1z"/>
		<path class="st81" d="M318.2,249.6c0.6-0.4,1.1-0.1,1.1,0.6s-0.5,1.6-1.1,1.9c-0.6,0.4-1.1,0.1-1.1-0.6S317.6,250,318.2,249.6z"/>
		<path class="st81" d="M314.9,247.1c0.6-0.4,1.1-0.1,1.1,0.6c0,0.7-0.5,1.6-1.1,1.9c-0.6,0.4-1.1,0.1-1.1-0.6
			S314.2,247.4,314.9,247.1z"/>
	</g>
	<g>
		<g>
			<path class="st16" d="M170.6,333.2c0,8.1,5.7,11.3,12.7,7.3c7-4.1,12.7-13.9,12.7-22c0-8.1-5.7-11.3-12.7-7.3
				C176.3,315.2,170.6,325.1,170.6,333.2z"/>
			<path class="st17" d="M171.4,332.7c0,7.6,5.3,10.6,11.9,6.8c6.6-3.8,11.9-13,11.9-20.6c0-7.6-5.3-10.6-11.9-6.8
				C176.7,315.9,171.4,325.1,171.4,332.7z"/>
			<path class="st79" d="M172.2,332.6c0,7.2,5.1,10.1,11.4,6.5s11.4-12.4,11.4-19.7c0-7.2-5.1-10.1-11.4-6.5
				C177.3,316.6,172.2,325.4,172.2,332.6z"/>
			<path class="st82" d="M174.8,333.8c0,5.8,4.1,8.2,9.2,5.2c5.1-2.9,9.2-10,9.2-15.9c0-5.8-4.1-8.2-9.2-5.2
				C178.9,320.8,174.8,327.9,174.8,333.8z"/>
			<path class="st4" d="M180.7,315.7c0.2,0.4-0.3,1.2-0.9,1.9c-0.7,0.7-1.3,0.9-1.5,0.5c-0.2-0.4,0.3-1.2,0.9-1.9
				C179.9,315.6,180.6,315.3,180.7,315.7z"/>
			<path class="st4" d="M174.4,324.6c0.4,0,0.5,0.7,0.2,1.6c-0.3,0.9-0.9,1.7-1.3,1.7c-0.4,0-0.5-0.7-0.2-1.6
				C173.4,325.4,174,324.7,174.4,324.6z"/>
			<path class="st4" d="M172.7,334.7c0.3-0.5,0.9-0.5,1.3,0.1c0.4,0.5,0.5,1.4,0.2,1.9c-0.3,0.5-0.9,0.5-1.3-0.1
				C172.5,336.1,172.4,335.2,172.7,334.7z"/>
			<path class="st4" d="M177.6,339.8c0.2-0.6,0.9-1,1.5-1.1c0.7,0,1,0.4,0.9,1c-0.2,0.6-0.9,1-1.5,1.1
				C177.9,340.8,177.5,340.4,177.6,339.8z"/>
			<path class="st4" d="M185.6,335.9c-0.2-0.4,0.3-1.2,0.9-1.9c0.7-0.7,1.3-0.9,1.5-0.5s-0.3,1.2-0.9,1.9
				C186.5,336.1,185.8,336.3,185.6,335.9z"/>
			<path class="st4" d="M192.3,326.8c-0.4,0-0.5-0.7-0.2-1.6c0.3-0.9,0.9-1.7,1.3-1.7c0.4,0,0.5,0.7,0.2,1.6
				C193.3,326,192.7,326.8,192.3,326.8z"/>
			<path class="st4" d="M193.6,317.2c-0.4,0.4-0.9,0.2-1.2-0.4s-0.1-1.5,0.3-1.9c0.4-0.4,0.9-0.2,1.2,0.4
				C194.1,315.9,194,316.8,193.6,317.2z"/>
			<path class="st4" d="M188.5,312.7c-0.2,0.6-0.9,1-1.5,1.1s-1-0.4-0.9-1c0.2-0.6,0.9-1,1.5-1.1
				C188.3,311.7,188.6,312.2,188.5,312.7z"/>
		</g>
		<path class="st83" d="M174.1,331.6c0,5.8,4.1,8.2,9.2,5.2c5.1-2.9,9.2-10,9.2-15.9c0-5.8-4.1-8.2-9.2-5.2
			C178.2,318.7,174.1,325.8,174.1,331.6z"/>
		<path class="st84" d="M175.8,332.1c0,5.5,3.9,7.7,8.7,5c4.8-2.8,8.7-9.5,8.7-15c0-5.5-3.9-7.7-8.7-5
			C179.7,319.9,175.8,326.6,175.8,332.1z"/>
		<path class="st11" d="M176.3,332.2c0,5.3,3.7,7.4,8.4,4.8c4.6-2.7,8.4-9.1,8.4-14.4c0-5.3-3.7-7.4-8.4-4.8
			C180,320.4,176.3,326.9,176.3,332.2z"/>
		<path class="st4" d="M181.1,329.4c0,2.2,1.6,3.2,3.5,2c2-1.1,3.5-3.9,3.5-6.1c0-2.2-1.6-3.2-3.5-2
			C182.7,324.4,181.1,327.2,181.1,329.4z"/>
		<path class="st17" d="M182.9,330c1.7-1,3.1-3.3,3.1-5.3c0-0.8-0.2-1.4-0.6-1.7c1.6-0.6,2.9,0.4,2.9,2.3c0,2.2-1.6,5-3.5,6.1
			c-1.6,0.9-3,0.5-3.4-1.1C181.7,330.5,182.3,330.3,182.9,330z"/>
		<path class="st4" d="M188.8,318.1c0,0.7-0.5,1.5-1.1,1.8c-0.6,0.3-1.1,0.1-1.1-0.6c0-0.7,0.5-1.5,1.1-1.8
			C188.3,317.1,188.8,317.4,188.8,318.1z"/>
		<path class="st4" d="M183.3,319.9c0.4,0.2,0.4,1,0,1.7c-0.4,0.7-1.1,1.1-1.5,0.9c-0.4-0.2-0.4-1,0-1.7
			C182.2,320.1,182.9,319.7,183.3,319.9z"/>
		<path class="st4" d="M178.6,326.1c0.6-0.3,1.1-0.1,1.1,0.6c0,0.7-0.5,1.5-1.1,1.8c-0.6,0.3-1.1,0.1-1.1-0.6
			C177.6,327.3,178,326.4,178.6,326.1z"/>
		<path class="st81" d="M178.4,326.4c0.4-0.2,0.7,0,0.7,0.4c0,0.4-0.3,0.9-0.7,1.2s-0.7,0-0.7-0.4
			C177.7,327.2,178,326.6,178.4,326.4z"/>
		<path class="st4" d="M177.5,333c0.4-0.7,1.1-1.1,1.5-0.9c0.4,0.2,0.4,1,0,1.7c-0.4,0.7-1.1,1.1-1.5,0.9
			C177,334.5,177,333.7,177.5,333z"/>
		<path class="st4" d="M180.5,336.7c0-0.7,0.5-1.5,1.1-1.8c0.6-0.3,1.1-0.1,1.1,0.6c0,0.7-0.5,1.5-1.1,1.8
			C181,337.6,180.5,337.3,180.5,336.7z"/>
		<path class="st4" d="M186,334.8c-0.4-0.2-0.4-1,0-1.7c0.4-0.7,1.1-1.1,1.5-0.9c0.4,0.2,0.4,1,0,1.7
			C187,334.7,186.4,335.1,186,334.8z"/>
		<path class="st4" d="M190.6,328.6c-0.6,0.3-1.1,0.1-1.1-0.6c0-0.7,0.5-1.5,1.1-1.8c0.6-0.3,1.1-0.1,1.1,0.6
			C191.7,327.5,191.2,328.3,190.6,328.6z"/>
		<path class="st4" d="M191.8,321.7c-0.4,0.7-1.1,1.1-1.5,0.9c-0.4-0.2-0.4-1,0-1.7c0.4-0.7,1.1-1.1,1.5-0.9
			C192.2,320.2,192.2,321,191.8,321.7z"/>
		<path class="st81" d="M184,325c1-0.6,1.8-0.1,1.8,1c0,1.1-0.8,2.5-1.8,3.1c-1,0.6-1.8,0.1-1.8-1C182.2,327,183,325.6,184,325z"/>
		<path class="st81" d="M177.9,332.6c0.4-0.2,0.7,0,0.7,0.4s-0.3,0.9-0.7,1.2c-0.4,0.2-0.7,0-0.7-0.4S177.6,332.8,177.9,332.6z"/>
		<path class="st81" d="M181.3,335.2c0.4-0.2,0.7,0,0.7,0.4s-0.3,0.9-0.7,1.2s-0.7,0-0.7-0.4S180.9,335.4,181.3,335.2z"/>
		<path class="st81" d="M186.4,332.7c0.4-0.2,0.7,0,0.7,0.4c0,0.4-0.3,0.9-0.7,1.2c-0.4,0.2-0.7,0-0.7-0.4
			C185.8,333.4,186.1,332.9,186.4,332.7z"/>
		<path class="st81" d="M190.4,326.5c0.4-0.2,0.7,0,0.7,0.4c0,0.4-0.3,0.9-0.7,1.2c-0.4,0.2-0.7,0-0.7-0.4
			C189.7,327.3,190,326.8,190.4,326.5z"/>
		<path class="st81" d="M190.8,320.4c0.4-0.2,0.7,0,0.7,0.4s-0.3,0.9-0.7,1.2c-0.4,0.2-0.7,0-0.7-0.4S190.4,320.6,190.8,320.4z"/>
		<path class="st81" d="M187.4,317.8c0.4-0.2,0.7,0,0.7,0.4c0,0.4-0.3,0.9-0.7,1.2c-0.4,0.2-0.7,0-0.7-0.4
			C186.8,318.5,187.1,318,187.4,317.8z"/>
		<path class="st81" d="M182.3,320.3c0.4-0.2,0.7,0,0.7,0.4c0,0.4-0.3,0.9-0.7,1.2c-0.4,0.2-0.7,0-0.7-0.4
			C181.6,321,181.9,320.5,182.3,320.3z"/>
	</g>
</g>
</svg>
