<?xml version="1.0" encoding="utf-8"?>
<!-- Generator: Adobe Illustrator 26.5.0, SVG Export Plug-In . SVG Version: 6.00 Build 0)  -->
<svg version="1.1" id="Capa_1" xmlns="http://www.w3.org/2000/svg" xmlns:xlink="http://www.w3.org/1999/xlink" x="0px" y="0px"
	 viewBox="0 0 515 381.6" style="enable-background:new 0 0 515 381.6;" xml:space="preserve">
<style type="text/css">
	.st0{fill:#8E4D1D;}
	.st1{fill:#464543;}
	.st2{enable-background:new    ;}
	.st3{fill:#050006;}
	.st4{fill:#272827;}
	.st5{fill:#110F11;}
	.st6{fill:#686766;}
	.st7{fill:#303130;}
	.st8{fill:#262725;}
	.st9{fill:#2F302E;}
	.st10{fill:#0E0C0E;}
	.st11{fill:#535352;}
	.st12{fill:#808080;}
	.st13{fill:#0F0D0F;}
	.st14{fill:#656565;}
	.st15{clip-path:url(#SVGID_00000061433381750657975760000012932520372394341771_);}
	.st16{fill:#171616;}
	.st17{clip-path:url(#SVGID_00000026135881691037702740000000282801615388471458_);}
	.st18{fill:#21211F;}
	.st19{fill:#464243;}
	.st20{fill:#262324;}
	.st21{fill:#3E3B3C;}
	.st22{fill:#E7C352;}
	.st23{fill:#5E5858;}
	.st24{fill:#57585A;}
	.st25{fill:#716A6C;}
	.st26{fill:#313233;}
	.st27{fill:#DEA24B;}
	.st28{fill:#737476;}
	.st29{fill:#3C3D3D;}
	.st30{fill:#8E99A4;}
	.st31{fill:#181415;}
	.st32{fill:#333435;}
	.st33{fill:#5C1E39;}
	.st34{fill:#808082;}
	.st35{clip-path:url(#SVGID_00000015331446578966597350000011818260028871874231_);}
	.st36{fill:#5D7495;}
	.st37{opacity:0.6;fill:#5D7495;}
	.st38{fill:#EBCA9C;}
	.st39{fill:#812B1D;}
	.st40{fill:#C13F2E;}
	.st41{opacity:0.47;fill:#812B1D;}
	.st42{fill:#464F50;}
	.st43{fill:#CD7432;}
	.st44{fill:#2F2C2C;}
	.st45{fill:#494546;}
	.st46{fill:#5D3D19;}
	.st47{clip-path:url(#SVGID_00000035511621690178838610000012847565665131570111_);}
	.st48{clip-path:url(#SVGID_00000003822641752558182650000018072237236316329870_);}
	.st49{fill:#D79048;}
	.st50{fill:#C2453A;}
	.st51{opacity:0.42;fill:#FFFFFF;}
	.st52{fill:#9E392F;}
	.st53{fill:#0D0B0E;}
	.st54{fill:#6B6A6A;}
	.st55{fill:#212122;}
	.st56{fill:#AA814E;}
	.st57{fill:#C9975B;}
	.st58{fill:#D4B694;}
	.st59{fill:#FFFFFF;}
	.st60{fill:#82633A;}
</style>
<g>
	<polygon class="st0" points="167.8,300.2 171.4,305.9 208.4,286.9 201.5,266.2 167.8,254.8 	"/>
	<g>
		<path class="st1" d="M191.8,308l-9-14.4l17.6-9.9c0.4-0.2,0.7-0.4,1.1-0.6l0.5-0.3l0,0.1c5.6-2.6,13.1-1.9,21.3,2.8
			c17.5,10,31.7,34.3,31.6,54.2c0,9.2-3.1,15.8-8.1,19.3l0,0l-0.5,0.3c-0.6,0.4-1.2,0.7-1.9,1l-14.9,8.3l-7.1-11.4
			C206.6,347.9,193.6,326.7,191.8,308z"/>
		<g>
			<g class="st2">
				<g>
					<path class="st3" d="M195.5,335.8c-0.2-0.1-0.5-0.2-0.6-0.1c-0.3,0.2-0.3,0.9,0,1.4c0.2,0.3,0.4,0.5,0.6,0.7
						c0.2,0.1,0.5,0.2,0.6,0.1c0.3-0.2,0.3-0.8,0-1.4C196,336.2,195.7,336,195.5,335.8z"/>
				</g>
				<g>
					<path class="st4" d="M200.4,329.9c0.6,3.1,2.8,6.3,5.4,7.8c2.5,1.4,4.7,0.7,5.4-1.5c-0.9-0.4-1.8-0.9-2.7-1.4
						c-0.6,0.7-1.5,0.8-2.6,0.1c-1.1-0.6-2.1-1.9-2.7-3.2C202.2,331.1,201.3,330.5,200.4,329.9z"/>
				</g>
				<g>
					<path class="st5" d="M205.8,327.7c-1.7-1-3.1-0.2-3.2,1.8c0,0.7,0.2,1.4,0.5,2.1c1.1,0.7,2.2,1.3,3.2,2
						c0.7,0.4,1.4,0.8,2.1,1.1c0.3-0.4,0.5-0.9,0.5-1.6C208.9,331.1,207.5,328.7,205.8,327.7z"/>
				</g>
				<g>
					<path class="st6" d="M222.4,340.4c-0.4-0.1-0.8-0.2-1.3-0.4c0-0.1,0-0.1,0-0.2c0-0.5-0.4-1.2-0.9-1.5c-0.5-0.3-0.9,0-0.9,0.5
						c0,0.2,0.1,0.5,0.2,0.7c-2.6-0.8-5.4-2-8.4-3.4c0.1-0.5,0.2-1,0.2-1.6c0-3.5-2.5-7.8-5.5-9.5c-3.1-1.8-5.6-0.4-5.6,3.1
						c0,0.6,0.1,1.2,0.2,1.8c-2.7-1.8-5.4-3.9-8.3-6.2c0-0.1,0.1-0.2,0.1-0.4c0-0.5-0.4-1.2-0.9-1.5c-0.5-0.3-0.9-0.1-0.9,0.5
						c-0.2-0.2-0.5-0.4-0.7-0.6c0.3-9.8,7.5-13.7,16.4-8.7C215,318,222.2,330.2,222.4,340.4z M194.9,313.9c0.2,0.3,0.4,0.5,0.6,0.7
						c0.2,0.1,0.5,0.2,0.6,0.1c0.3-0.2,0.3-0.8,0-1.4c-0.2-0.3-0.4-0.5-0.6-0.7c-0.2-0.1-0.5-0.2-0.6-0.1
						C194.6,312.7,194.6,313.3,194.9,313.9L194.9,313.9z M215.4,325.6c0.2,0.3,0.4,0.5,0.6,0.7c0.2,0.1,0.5,0.2,0.6,0.1
						c0.4-0.2,0.4-0.8,0-1.4c-0.2-0.3-0.4-0.5-0.6-0.7c-0.2-0.1-0.5-0.2-0.6-0.1C215.1,324.4,215.1,325,215.4,325.6L215.4,325.6z
						 M205.8,315.6c0.5,0.3,0.9,0.1,0.9-0.5c0-0.6-0.4-1.2-0.9-1.5c-0.5-0.3-0.9-0.1-0.9,0.5C204.9,314.7,205.3,315.3,205.8,315.6
						L205.8,315.6z"/>
				</g>
				<g>
					<path class="st7" d="M205.8,325c-3.1-1.8-5.6-0.4-5.6,3.1c0,0.6,0.1,1.2,0.2,1.8c0.9,0.6,1.8,1.2,2.7,1.8
						c-0.3-0.7-0.5-1.5-0.5-2.1c0-2,1.4-2.8,3.2-1.8c1.7,1,3.1,3.4,3.1,5.4c0,0.7-0.2,1.3-0.5,1.6c0.9,0.5,1.8,1,2.7,1.4
						c0.1-0.5,0.2-1,0.2-1.6C211.4,331,208.9,326.7,205.8,325z"/>
				</g>
				<g>
					<path class="st3" d="M205.8,313.6c-0.5-0.3-0.9-0.1-0.9,0.5c0,0.6,0.4,1.2,0.9,1.5c0.5,0.3,0.9,0.1,0.9-0.5
						C206.7,314.6,206.3,313.9,205.8,313.6z"/>
				</g>
				<g>
					<path class="st8" d="M188.4,320.5c0,0.3,0,0.6,0,1c0,11.1,7.8,24.6,17.6,30.2c9.8,5.6,17.7,1.1,17.8-10c0-0.3,0-0.6,0-0.9
						c-0.4-0.1-0.9-0.2-1.3-0.3c0,0.2,0,0.3,0,0.5c0,10.3-7.4,14.4-16.4,9.3c-9-5.2-16.4-17.7-16.3-28c0-0.2,0-0.4,0-0.6
						C189.3,321.3,188.8,320.9,188.4,320.5z"/>
				</g>
				<g>
					<path class="st9" d="M206.1,311.4c-9.5-5.4-17.2-1.4-17.7,9c0.4,0.4,0.9,0.8,1.3,1.1c0.3-9.8,7.5-13.7,16.4-8.7
						c8.9,5.1,16.1,17.3,16.3,27.5c0.4,0.1,0.9,0.2,1.3,0.3C223.4,329.8,215.6,316.9,206.1,311.4z"/>
				</g>
				<g>
					<path class="st10" d="M206,354.6c11.2,6.4,20.3,1.3,20.3-11.5c0-12.7-9-28.2-20.2-34.6c-11.2-6.4-20.3-1.3-20.3,11.5
						C185.7,332.7,194.8,348.2,206,354.6L206,354.6z M229.7,345.2c0,15-10.8,21.1-24,13.5c-13.2-7.5-23.9-25.9-23.8-40.9
						c0-15,10.8-21.1,24-13.5C219.1,311.9,229.7,330.2,229.7,345.2z"/>
				</g>
				<g>
					<path class="st3" d="M219.4,338.8c0-0.2,0.1-0.4,0.2-0.5c0,0,0,0,0,0c0,0,0.1-0.1,0.1-0.1c0,0,0.1,0,0.1,0c0,0,0,0,0,0
						c0.1,0,0.3,0,0.5,0.1c0.5,0.3,0.9,1,0.9,1.5c0,0,0,0,0,0c0,0,0,0.1,0,0.1c0,0,0,0.1,0,0.1c-0.1,0.4-0.5,0.6-0.9,0.3
						c-0.3-0.2-0.5-0.5-0.7-0.8c-0.1-0.1-0.1-0.3-0.2-0.5C219.4,339,219.4,338.9,219.4,338.8z"/>
				</g>
				<g>
					<path class="st11" d="M206,350.2c9,5.2,16.4,1,16.4-9.3c0-0.2,0-0.3,0-0.5c-0.4-0.1-0.8-0.2-1.3-0.4c-0.1,0.4-0.5,0.6-0.9,0.3
						c-0.3-0.2-0.5-0.5-0.7-0.8c-2.6-0.8-5.4-2-8.4-3.4c-0.7,2.3-2.8,3-5.4,1.5c-2.6-1.5-4.7-4.7-5.4-7.8c-2.7-1.8-5.4-3.9-8.3-6.2
						c-0.1,0.3-0.5,0.4-0.8,0.1c-0.5-0.3-0.9-1-0.9-1.5c-0.2-0.2-0.5-0.5-0.7-0.7c0,0.2,0,0.4,0,0.6C189.7,332.5,197,345,206,350.2z
						 M196.2,336.5c0.3,0.6,0.3,1.2,0,1.4c-0.2,0.1-0.4,0.1-0.6-0.1c-0.2-0.1-0.5-0.4-0.6-0.7c-0.3-0.6-0.3-1.2,0-1.4
						c0.2-0.1,0.4-0.1,0.6,0.1C195.7,336,196,336.2,196.2,336.5L196.2,336.5z M215.4,348.9c-0.4-0.6-0.4-1.2,0-1.4
						c0.2-0.1,0.4-0.1,0.6,0.1c0.2,0.1,0.5,0.4,0.6,0.7c0.4,0.6,0.4,1.3,0,1.4c-0.2,0.1-0.4,0.1-0.6-0.1
						C215.8,349.5,215.5,349.2,215.4,348.9L215.4,348.9z M205.7,348.5c-0.5-0.3-0.9-1-0.9-1.5c0-0.6,0.4-0.8,0.9-0.5
						c0.5,0.3,0.9,1,0.9,1.5C206.6,348.6,206.2,348.8,205.7,348.5L205.7,348.5z"/>
				</g>
				<g>
					<path class="st3" d="M205.7,346.5c-0.5-0.3-0.9,0-0.9,0.5c0,0.6,0.4,1.2,0.9,1.5c0.5,0.3,0.9,0.1,0.9-0.5
						C206.6,347.5,206.2,346.8,205.7,346.5z"/>
				</g>
				<g>
					<path class="st3" d="M191.3,321.8c-0.5-0.3-0.9-0.1-0.9,0.5c0,0,0,0,0,0c0,0.6,0.4,1.2,0.9,1.5c0.4,0.2,0.7,0.1,0.8-0.1
						c0-0.1,0.1-0.2,0.1-0.4C192.2,322.8,191.8,322.1,191.3,321.8z"/>
				</g>
				<g>
					<path class="st3" d="M195.6,312.6c-0.2-0.1-0.5-0.2-0.6-0.1c-0.3,0.2-0.4,0.8,0,1.4c0.2,0.3,0.4,0.5,0.6,0.7
						c0.2,0.1,0.5,0.2,0.6,0.1c0.3-0.2,0.3-0.8,0-1.4C196,312.9,195.8,312.7,195.6,312.6z"/>
				</g>
				<g>
					<path class="st3" d="M216.1,324.3c-0.2-0.1-0.5-0.2-0.6-0.1c-0.4,0.2-0.4,0.8,0,1.4c0.2,0.3,0.4,0.5,0.6,0.7
						c0.2,0.1,0.5,0.2,0.6,0.1c0.4-0.2,0.4-0.8,0-1.4C216.5,324.6,216.3,324.4,216.1,324.3z"/>
				</g>
				<g>
					<path class="st12" d="M226.3,343.1c0,12.7-9.1,17.9-20.3,11.5c-11.2-6.4-20.2-21.9-20.2-34.6c0-12.7,9.2-17.8,20.3-11.5
						C217.3,314.9,226.4,330.4,226.3,343.1z M206,353.3c11,6.3,19.9,1.2,19.9-11.3c0-0.3,0-0.5,0-0.8c-0.7-0.1-1.4-0.3-2.2-0.5
						c-0.4-10.9-8.1-23.9-17.6-29.3c-9.5-5.4-17.2-1.4-17.7,9c-0.7-0.6-1.4-1.3-2.2-2c0,0.3,0,0.6,0,0.9
						C186.2,331.9,195,347.1,206,353.3L206,353.3z"/>
				</g>
				<g>
					<path class="st13" d="M203.1,331.7c0.6,1.3,1.5,2.6,2.7,3.2c1.1,0.6,2.1,0.5,2.6-0.1c-0.7-0.4-1.4-0.7-2.1-1.1
						C205.3,333,204.2,332.3,203.1,331.7z"/>
				</g>
				<g>
					<path class="st3" d="M216,347.5c-0.2-0.1-0.5-0.2-0.6-0.1c-0.4,0.2-0.4,0.8,0,1.4c0.2,0.3,0.4,0.5,0.6,0.7
						c0.2,0.1,0.5,0.2,0.6,0.1c0.4-0.2,0.4-0.8,0-1.4C216.5,347.9,216.2,347.7,216,347.5z"/>
				</g>
				<g>
					<path class="st14" d="M186.2,318.5c0,0.3,0,0.6,0,0.9c0,12.5,8.8,27.7,19.8,33.9c11,6.3,19.9,1.2,19.9-11.3c0-0.3,0-0.5,0-0.8
						c-0.7-0.1-1.4-0.3-2.2-0.5c0,0.3,0,0.6,0,0.9c0,11.1-8,15.6-17.8,10c-9.8-5.6-17.7-19.1-17.6-30.2c0-0.3,0-0.6,0-1
						C187.7,319.9,187,319.2,186.2,318.5z"/>
				</g>
				<g>
					<g class="st2">
						<defs>
							<path id="SVGID_1_" class="st2" d="M236.3,345.7c0,1.1,0,2.1-0.1,3.1c0.1,1.1,0.1,2.1,0.1,3.2c0,0.2,0,0.4,0,0.6
								c0.1-1.2,0.2-2.4,0.2-3.6c0-1.3-0.1-2.5-0.2-3.9C236.3,345.3,236.3,345.5,236.3,345.7z"/>
						</defs>
						<use xlink:href="#SVGID_1_"  style="overflow:visible;fill:#BFBFBF;"/>
						<clipPath id="SVGID_00000127039800766206993710000001404461803522530949_">
							<use xlink:href="#SVGID_1_"  style="overflow:visible;"/>
						</clipPath>
						<g style="clip-path:url(#SVGID_00000127039800766206993710000001404461803522530949_);">
							<g>
								<defs>
									<polygon id="SVGID_00000015354360193835267600000017823599799445220276_" points="236.2,349.2 236.3,349.6 236.3,350 
										236.3,350.4 236.3,350.8 236.3,351.2 236.3,351.6 236.3,351.9 236.3,352 236.3,352.1 236.3,352.2 236.3,352.2 236.3,352.3 
										236.3,352.4 236.3,352.5 236.3,352.5 236.3,352.3 236.3,352.1 236.4,351.9 236.4,351.7 236.4,351.4 236.4,351.2 236.4,351 
										236.4,350.8 236.5,350.5 236.5,350.3 236.5,350.1 236.5,349.9 236.5,349.6 236.5,349.4 236.5,349.2 236.5,348.9 
										236.5,348.7 236.5,348.5 236.5,348.2 236.5,348 236.5,347.7 236.5,347.5 236.5,347.3 236.5,347 236.4,346.8 236.4,346.5 
										236.4,346.3 236.4,346.1 236.4,345.8 236.4,345.6 236.3,345.3 236.3,345.1 236.3,345.2 236.3,345.2 236.3,345.3 
										236.3,345.4 236.3,345.5 236.3,345.5 236.3,345.6 236.3,345.7 236.3,346.1 236.3,346.5 236.3,346.9 236.3,347.2 
										236.3,347.6 236.3,348 236.2,348.4 236.2,348.8 236.2,349.2 									"/>
								</defs>
								<clipPath id="SVGID_00000069379232201215296130000002353005350701546132_">
									<use xlink:href="#SVGID_00000015354360193835267600000017823599799445220276_"  style="overflow:visible;"/>
								</clipPath>
								<g style="clip-path:url(#SVGID_00000069379232201215296130000002353005350701546132_);">
									
										<image style="overflow:visible;" width="1" height="17" xlink:href="FEC2EE54AE0E352E.png"  transform="matrix(-0.4636 0 0 0.4587 236.5169 345.0771)">
									</image>
								</g>
							</g>
						</g>
					</g>
				</g>
				<g>
					<path class="st16" d="M236.2,348.8c-1.4,17-14.7,23.5-30.7,14.3c-15.8-9-28.7-29.9-30.4-48.3c0.2,19.2,13.8,42.3,30.6,51.9
						c17,9.7,30.8,1.9,30.8-17.4c0-0.1,0-0.3,0-0.4c0,1.2-0.1,2.4-0.2,3.6c0-0.2,0-0.4,0-0.6C236.3,350.9,236.3,349.8,236.2,348.8z"
						/>
				</g>
				<g>
					<g class="st2">
						<defs>
							<path id="SVGID_00000139272057980756509820000003901177051325314995_" class="st2" d="M205.9,296.1
								c-16.8-9.6-30.5-2.1-30.8,16.8c1.8-16.3,14.8-22.4,30.6-13.4c0.1,0.1,0.3,0.1,0.4,0.2c0.2,0.1,0.3,0.2,0.4,0.2
								c0.2,0.1,0.3,0.2,0.4,0.2c0.1,0,0.1,0.1,0.2,0.1c0.1,0,0.1,0.1,0.2,0.1c0.1,0,0.1,0.1,0.2,0.1c0.1,0,0.1,0.1,0.2,0.1
								c0.1,0,0.1,0.1,0.2,0.1c0.1,0,0.1,0.1,0.2,0.1c0.1,0,0.1,0.1,0.2,0.1c0.1,0,0.1,0.1,0.2,0.1c0.1,0,0.1,0.1,0.2,0.1
								c0.1,0,0.1,0.1,0.2,0.1c0.1,0,0.1,0.1,0.2,0.1c0.1,0,0.1,0.1,0.2,0.1c0.1,0,0.1,0.1,0.2,0.1c0.1,0,0.1,0.1,0.2,0.1
								c0.1,0,0.1,0.1,0.2,0.1c0.1,0.1,0.1,0.1,0.2,0.2c0.1,0,0.1,0.1,0.2,0.1c0.1,0.1,0.1,0.1,0.2,0.2c0.1,0,0.1,0.1,0.2,0.1
								c0.1,0.1,0.2,0.1,0.2,0.2c0.2,0.2,0.3,0.2,0.4,0.3c0.2,0.2,0.3,0.2,0.4,0.3c0.2,0.2,0.3,0.3,0.4,0.3c0.3,0.3,0.6,0.5,0.8,0.7
								c0.1,0.1,0.3,0.2,0.4,0.3c0.2,0.2,0.3,0.2,0.4,0.3c0.2,0.2,0.3,0.2,0.4,0.3c0.2,0.2,0.3,0.2,0.4,0.3c0.2,0.2,0.3,0.3,0.4,0.3
								c0.2,0.2,0.3,0.3,0.4,0.3c0.2,0.2,0.3,0.3,0.4,0.3c0.2,0.2,0.3,0.3,0.4,0.3c0.2,0.2,0.3,0.3,0.4,0.3c0.2,0.2,0.3,0.3,0.4,0.3
								c0.2,0.2,0.3,0.3,0.4,0.4c0.2,0.2,0.3,0.3,0.3,0.3c0.2,0.2,0.3,0.3,0.3,0.4c0.2,0.2,0.3,0.3,0.4,0.4c0.2,0.2,0.3,0.3,0.4,0.4
								c0.5,0.5,0.9,1,1.4,1.5c0.1,0.1,0.2,0.3,0.3,0.4c0.1,0.2,0.2,0.3,0.3,0.4c0.2,0.2,0.2,0.3,0.3,0.4c0.2,0.2,0.2,0.3,0.3,0.4
								c0.2,0.2,0.2,0.3,0.3,0.4c0.2,0.2,0.2,0.3,0.3,0.4c0.2,0.2,0.2,0.3,0.3,0.4c0.2,0.2,0.2,0.3,0.3,0.4c0.1,0.2,0.2,0.3,0.3,0.4
								c0.1,0.2,0.2,0.3,0.3,0.4c0.1,0.2,0.2,0.3,0.3,0.4c0.1,0.2,0.2,0.3,0.3,0.4c0.7,1,1.4,2,2.1,3c0.1,0.1,0.2,0.3,0.3,0.4
								c0.1,0.2,0.2,0.3,0.3,0.4c0.1,0.2,0.2,0.3,0.3,0.4c0.1,0.2,0.2,0.3,0.3,0.4c0.1,0.2,0.2,0.3,0.3,0.4c0.1,0.2,0.2,0.3,0.3,0.4
								c0.1,0.2,0.2,0.3,0.3,0.4c0.1,0.2,0.2,0.3,0.3,0.4c0.1,0.2,0.2,0.3,0.3,0.5c0.8,1.3,1.5,2.7,2.2,4.1c0.1,0.2,0.2,0.3,0.2,0.5
								c0.1,0.2,0.2,0.3,0.2,0.5c0.1,0.2,0.2,0.3,0.2,0.5c0.1,0.2,0.1,0.3,0.2,0.5c0.1,0.2,0.1,0.3,0.2,0.5c0.1,0.2,0.1,0.3,0.2,0.5
								c0.1,0.2,0.1,0.3,0.2,0.5c0.1,0.2,0.1,0.3,0.2,0.5c0.6,1.4,1.1,2.8,1.6,4.2c0.1,0.2,0.1,0.3,0.2,0.5c0.1,0.2,0.1,0.3,0.2,0.5
								c0.1,0.2,0.1,0.3,0.2,0.5c0.1,0.2,0.1,0.3,0.1,0.5c0.1,0.2,0.1,0.3,0.1,0.5c0.1,0.2,0.1,0.3,0.1,0.5c0.1,0.2,0.1,0.3,0.1,0.5
								c0.1,0.2,0.1,0.4,0.1,0.5c0.1,0.2,0.1,0.3,0.1,0.5c0.1,0.2,0.1,0.4,0.1,0.5c0.2,0.8,0.4,1.6,0.6,2.4c0,0.2,0.1,0.3,0.1,0.5
								c0,0.2,0.1,0.3,0.1,0.5c0,0.2,0.1,0.3,0.1,0.5c0,0.2,0.1,0.3,0.1,0.5c0,0.2,0.1,0.4,0.1,0.5c0,0.2,0.1,0.4,0.1,0.5
								c0,0.3,0.1,0.4,0.1,0.5c0,0.3,0.1,0.4,0.1,0.5c0,0.3,0.1,0.4,0.1,0.5c0,0.3,0,0.4,0.1,0.5c0,0.3,0,0.4,0.1,0.5
								c0,0.3,0,0.4,0.1,0.5c0,0.3,0,0.4,0,0.5c0,0.2,0,0.4,0,0.5c0,0.2,0,0.4,0,0.5c0.1-1,0.1-2,0.1-3.1c0-0.2,0-0.4,0-0.6
								c0.1,1.3,0.2,2.6,0.2,3.9c0-0.1,0-0.3,0-0.4C236.6,329.2,222.9,305.8,205.9,296.1z"/>
						</defs>
						<use xlink:href="#SVGID_00000139272057980756509820000003901177051325314995_"  style="overflow:visible;fill:#BFBFBF;"/>
						<clipPath id="SVGID_00000112618148083906362010000004346604426704522117_">
							<use xlink:href="#SVGID_00000139272057980756509820000003901177051325314995_"  style="overflow:visible;"/>
						</clipPath>
						<g style="clip-path:url(#SVGID_00000112618148083906362010000004346604426704522117_);">
							<g>
								<defs>
									<polygon id="SVGID_00000078727373251422642820000007718244081014496152_" points="236.5,348.5 236.5,348.9 236.5,348.9 
										236.5,348.8 236.5,348.8 236.5,348.7 236.5,348.7 236.5,348.6 236.5,348.6 236.5,348.6 236.5,348.1 236.5,348.5 									
										"/>
								</defs>
								<clipPath id="SVGID_00000110462778546042137420000003826389551555643024_">
									<use xlink:href="#SVGID_00000078727373251422642820000007718244081014496152_"  style="overflow:visible;"/>
								</clipPath>
								<g style="clip-path:url(#SVGID_00000110462778546042137420000003826389551555643024_);">
									
										<image style="overflow:visible;" width="1" height="2" xlink:href="FEC2EE54AE0E3532.png"  transform="matrix(-0.4636 0 0 0.4587 236.5205 348.0811)">
									</image>
								</g>
							</g>
						</g>
					</g>
				</g>
				<g>
					<path class="st18" d="M237.5,349.6c-0.1,19.9-14.3,27.9-31.8,17.9c-17.5-10-31.6-34.3-31.6-54.2c0.1-19.9,14.3-28,31.8-18
						C223.4,305.4,237.6,329.7,237.5,349.6z M205.7,366.7c17,9.7,30.8,1.9,30.8-17.4c0-0.1,0-0.3,0-0.4c0-0.1,0-0.3,0-0.4
						c0.1-19.3-13.6-42.8-30.6-52.5c-16.8-9.6-30.5-2.1-30.8,16.8c1.8-16.3,14.8-22.4,30.6-13.4c16,9.2,29.2,30.7,30.5,49.3
						c-1.4,17-14.7,23.5-30.7,14.3c-15.8-9-28.7-29.9-30.4-48.3C175.3,334,188.9,357.1,205.7,366.7L205.7,366.7z M181.9,317.9
						c0,15,10.7,33.3,23.8,40.9c13.2,7.5,23.9,1.5,24-13.5c0-15-10.6-33.3-23.8-40.9C192.7,296.8,181.9,302.8,181.9,317.9
						L181.9,317.9z"/>
				</g>
			</g>
		</g>
	</g>
	<g>
		<path class="st19" d="M133.1,71.8c0-0.3-0.8-5.2,4.9-2.2l59.2,34.2l-0.1,26.6l-64-37L133.1,71.8z"/>
		<path class="st20" d="M133,136.8l4.9,2.8l0-14.5c1.3-3.7,8.9,0.3,9.3,0.5l44.4,25.6c6.5,4.7,6.2,12.5,6.2,12.9l-0.1,30.7
			l75.4,43.5l-75.4-43.5l0,2.3c0.4,2.3,3.5,4.4,5,5.2c0.5,0.3,0.7,0.4,0.8,0.4l70.4,40.7c0,0,0,0,0,0c0.1,0.1,0.3,0.2,0.4,0.2
			c0.6,0.3,1.1,0.5,1.5,0.5c0,0,0.1,0,0.1,0c0.1,0,0.2,0,0.2,0c1-1,1.4-1.5,1.5-1.9c-0.1,0.4-0.2,0.7-0.4,1c0.2-0.3,0.3-0.7,0.4-1
			c0-0.1,0.1-0.2,0.1-0.3c0,0,0,0,0,0c0.1-0.3,0.1-0.6,0.1-0.9l0,0c0.1-1,0-1.8,0-1.8l0.1-24.7c0-9.5,6.6-6.2,7.9-5.4l34.3,19.8
			l-0.4-15c-0.1-0.5-0.1-1-0.2-1.6l-110.3-63.7c0,0-0.1-0.1-0.4-0.2c0.2,0.1,0.4,0.2,0.4,0.2l110.3,63.7c-0.1-1.3-0.3-2.7-0.4-4l0,0
			L288.5,81.1c-5.8-24.9-22-34.4-22.9-34.9l-62.3-36c-6.7-3.8-5.9,3.5-5.9,3.9l-0.3,89.6l-0.1,26.6l0,5.5l0,0.7
			c0.1,0.4,0.2,0.8,0.3,1.3c-0.1-0.4-0.2-0.8-0.3-1.3l0-0.7l0-5.5l-64-37l0,5.5l0,0L133,136.8z M202.5,113.4l0.3-91.2
			c0-0.4-0.7-7.1,5.2-3.7l55.8,32.2c0.8,0.4,15.4,8.9,20.5,31.8l19.1,81.7l9.2,39.2v0l-9.2-39.2l-12.7,26.6l13.9,8l-13.9-8
			L263.4,175h0l0.1-26.4l-39-22.5l-10.4-56l-7.7-4.4l7.1,54.1L202.5,113.4z"/>
	</g>
	<polygon class="st21" points="101.9,185.6 98,175.1 84.4,161.2 189.4,102.6 263.5,148.6 159,210.3 122.1,210.3 	"/>
	<path class="st20" d="M176.2,195.2c-2-2.2-3.8-4.6-5.1-7.3c-1-2.2-1.7-4.7-1.3-7.2c0.5-2.7,2.3-4.7,4.5-6.2
		c3.3-2.2,7.3-3.4,11.2-4.2c8.7-1.9,17.8-1.4,26.5,0.1c3.6,0.6,7.1,1.4,10.6,2.3l-43.4,25.6C178.2,197.3,177.2,196.3,176.2,195.2z"
		/>
	<polygon class="st19" points="263.4,175 158.9,236.7 158.9,210.3 263.5,148.6 	"/>
	<polygon class="st20" points="263.4,175 305.5,199.4 186.2,252.5 158.9,236.7 	"/>
	<g>
		<polygon class="st20" points="319.5,210.3 320.1,228.8 215.5,290.5 205.8,283.9 215.1,274.1 		"/>
		<polygon class="st22" points="28.8,130.4 133.2,70.1 148,87 197.2,103.7 92.7,165.4 95,175.1 119.9,187.8 128.4,225.9 187.2,258 
			198.9,225.9 307.9,161.7 319.5,210.3 215.1,274.1 205.8,283.9 95,208.2 		"/>
		<path class="st22" d="M302.6,190.6c-10,0.2-20,1.9-29.4,5.4c-11.6,4.3-22.4,10.9-32.1,18.5c-4.9,3.9-9.6,8.1-13.9,12.5
			c-4.1,4.2-7.8,8.7-10.7,13.8c-5.2,9.3-7.2,19.6-8.6,30c-1.7-2.7-3.3-5.4-4.8-8.2c-3.6-6.5-7-13.1-10.6-19.6l6.3-17.2l108.9-64.3
			l7.1,29.6C310.9,190.7,306.7,190.5,302.6,190.6z"/>
		<path class="st22" d="M133.6,93.2c-11.4,6.5-22.9,13-34.2,19.8c-11.5,6.9-22.9,14-34.2,21.2c-7.2,4.5-14.4,9.1-21.6,13.6
			l-14.8-17.4l104.4-60.2l13.6,15.4C142.4,88.1,138,90.7,133.6,93.2z"/>
	</g>
	<g>
		<polygon class="st23" points="206.3,65.8 101.9,127.4 119.9,187.8 224.4,126.2 214,70.2 		"/>
	</g>
	<g>
		<polygon class="st24" points="243.2,301.1 215.1,274.1 319.5,210.3 369.3,242.7 265,305.5 		"/>
		<polygon class="st25" points="265,305.5 369.3,242.7 276.2,304.3 265,351.7 255,309.5 		"/>
		<polygon class="st26" points="265,305.5 369.3,242.7 369.3,288.9 265,351.7 255,309.5 		"/>
	</g>
	<polygon class="st27" points="211.8,272 265,305.5 265,351.7 248.3,342.8 248.3,309 215.5,290.5 	"/>
	<g>
		<g>
			<polygon class="st28" points="376.5,303 376.5,303 377.4,303.5 			"/>
			<polygon class="st28" points="384.3,307.5 377.4,303.5 378,303.9 			"/>
			<path class="st29" d="M372.7,116.6l-0.5,183.9l4.3,2.5c-0.1-0.1-0.3-0.2-0.4-0.3c0.1,0.1,0.3,0.2,0.4,0.3l0.5,9.7l7.3-5.2l0-13.5
				l0,0l0.6-201.7l-6.3-3.6l0,0l-14.9-8.6l-7.3,5.2L372.7,116.6z"/>
		</g>
		<g>
			<polygon class="st28" points="369.2,308.2 369.2,308.2 370.1,308.7 			"/>
			<polygon class="st28" points="377,312.7 370.1,308.7 370.7,309.1 			"/>
			<path class="st28" d="M365.5,121.8l-0.5,183.9l4.3,2.5c-0.1-0.1-0.3-0.2-0.4-0.3c0.1,0.1,0.3,0.2,0.4,0.3l1.5,0.9l6.3,3.6l0-13.5
				l0,0l0.6-201.7l-6.3-3.6l0,0l-14.9-8.6l-0.1,31.2L365.5,121.8z"/>
		</g>
		<g>
			<g>
				<g>
					<path class="st30" d="M371.1,109.4c1,0.8,1.8,2.2,1.8,3.5c0,1.2-0.8,1.8-1.8,1.4c-0.1,0-0.2-0.1-0.3-0.1
						c-1.2-0.7-2.1-2.3-2.1-3.7c0-1.4,1-1.9,2.2-1.2C370.9,109.3,371,109.4,371.1,109.4z M370.8,112.9c0.6,0.3,1.1,0.1,1.1-0.6
						c0-0.7-0.5-1.5-1.1-1.8c-0.6-0.3-1.1-0.1-1.1,0.6C369.7,111.8,370.2,112.6,370.8,112.9L370.8,112.9z"/>
				</g>
				<g>
					<path class="st31" d="M370.8,110.5c-0.6-0.3-1.1-0.1-1.1,0.6c0,0.7,0.5,1.5,1.1,1.9c0.6,0.3,1.1,0.1,1.1-0.6
						C371.8,111.6,371.4,110.8,370.8,110.5z"/>
				</g>
			</g>
			<g>
				<g>
					<path class="st30" d="M371.1,170.6c1,0.8,1.8,2.2,1.8,3.5c0,1.2-0.8,1.8-1.8,1.4c-0.1,0-0.2-0.1-0.3-0.1
						c-1.2-0.7-2.1-2.3-2.1-3.7c0-1.4,1-1.9,2.2-1.2C370.9,170.4,371,170.5,371.1,170.6z M370.8,174.1c0.6,0.3,1.1,0.1,1.1-0.6
						c0-0.7-0.5-1.5-1.1-1.8c-0.6-0.3-1.1-0.1-1.1,0.6C369.7,172.9,370.2,173.7,370.8,174.1L370.8,174.1z"/>
				</g>
				<g>
					<path class="st31" d="M370.8,171.6c-0.6-0.3-1.1-0.1-1.1,0.6c0,0.7,0.5,1.5,1.1,1.9c0.6,0.3,1.1,0.1,1.1-0.6
						C371.8,172.8,371.4,171.9,370.8,171.6z"/>
				</g>
			</g>
			<g>
				<g>
					<path class="st30" d="M371.1,231.7c1,0.8,1.8,2.2,1.8,3.5c0,1.2-0.8,1.8-1.8,1.4c-0.1,0-0.2-0.1-0.3-0.1
						c-1.1-0.6-2-2.1-2.1-3.4C368.5,231.3,369.7,230.7,371.1,231.7C371.1,231.7,371.1,231.7,371.1,231.7z M370.8,235.2
						c0.6,0.3,1.1,0.1,1.1-0.6c0-0.7-0.5-1.5-1.1-1.8c-0.6-0.3-1.1-0.1-1.1,0.6C369.7,234,370.2,234.8,370.8,235.2L370.8,235.2z"/>
				</g>
				<g>
					<path class="st31" d="M370.8,232.7c-0.6-0.3-1.1-0.1-1.1,0.6s0.5,1.5,1.1,1.9c0.6,0.3,1.1,0.1,1.1-0.6
						C371.8,233.9,371.4,233,370.8,232.7z"/>
				</g>
			</g>
			<g>
				<g>
					<path class="st30" d="M371.1,292.8c1,0.8,1.8,2.2,1.8,3.5c0,1.2-0.8,1.8-1.8,1.4c-0.1,0-0.2-0.1-0.3-0.1
						c-1.1-0.6-2-2.1-2.1-3.4C368.5,292.4,369.7,291.8,371.1,292.8C371.1,292.8,371.1,292.8,371.1,292.8z M370.8,296.3
						c0.6,0.3,1.1,0.1,1.1-0.6c0-0.7-0.5-1.5-1.1-1.8c-0.6-0.3-1.1-0.1-1.1,0.6C369.7,295.1,370.2,295.9,370.8,296.3L370.8,296.3z"
						/>
				</g>
				<g>
					<path class="st31" d="M370.8,293.8c-0.6-0.3-1.1-0.1-1.1,0.6c0,0.7,0.5,1.5,1.1,1.9c0.6,0.3,1.1,0.1,1.1-0.6
						C371.8,295,371.4,294.2,370.8,293.8z"/>
				</g>
			</g>
		</g>
	</g>
	<path class="st32" d="M273.3,171.9c0.6,0,1.2-0.2,1.7-0.5l89.3-57.8c1.5-1,1.9-2.9,0.9-4.4c-1-1.5-2.9-1.9-4.4-0.9L271.6,166
		c-1.5,1-1.9,2.9-0.9,4.4C271.2,171.4,272.3,171.9,273.3,171.9z"/>
	<g>
		<path class="st32" d="M343.6,237.9c1.2,0.1,2.3-0.4,3-1.4c1-1.5,0.6-3.5-0.9-4.4l-44.9-29.7c-1.5-1-3.5-0.6-4.4,0.9
			c-1,1.5-0.6,3.5,0.9,4.4l44.9,29.7C342.7,237.7,343.2,237.8,343.6,237.9z"/>
		<g>
			<g class="st2">
				<g>
					<polygon class="st28" points="332.9,231.2 332.8,246.2 345.8,253.7 345.9,238.7 					"/>
				</g>
				<g>
					<polygon class="st33" points="345.8,253.7 359.2,245.9 359.3,230.9 345.9,238.7 					"/>
				</g>
				<g>
					<polygon class="st29" points="345.8,253.7 359.2,245.9 359.3,230.9 345.9,238.7 					"/>
				</g>
				<g>
					<polygon class="st34" points="345.9,238.7 359.3,230.9 346.3,223.4 332.9,231.2 					"/>
				</g>
			</g>
		</g>
	</g>
	<g>
		<path class="st32" d="M269.2,279.5c1.2,0.1,2.3-0.5,3-1.5c0.9-1.5,0.4-3.5-1.1-4.4l-46-27.8c-1.5-0.9-3.5-0.4-4.4,1.1
			c-0.9,1.5-0.4,3.5,1.1,4.4l46,27.8C268.2,279.3,268.7,279.4,269.2,279.5z"/>
		<g>
			<g class="st2">
				<g>
					<polygon class="st29" points="257.4,267 257.4,282 270.4,289.5 270.4,274.5 					"/>
				</g>
				<g>
					<polygon class="st33" points="270.4,289.5 283.8,281.7 283.8,266.7 270.4,274.5 					"/>
				</g>
				<g>
					<polygon class="st29" points="270.4,289.5 283.8,281.7 283.8,266.7 270.4,274.5 					"/>
				</g>
				<g>
					<polygon class="st34" points="270.4,274.5 283.8,266.7 270.8,259.2 257.4,267 					"/>
				</g>
			</g>
		</g>
	</g>
	<g>
		<defs>
			<path id="SVGID_00000001652436388291330720000011302734280940839060_" d="M265.7,186.5l-62,36.6c0,0-41.5-34.7-45.5-49.3
				c-4-14.6-5-71.8-5-71.8s3.8-54.5,27.3-59.3C204,38,229,54.5,229.5,71c0.5,16.5,7.7,70.8,7.7,70.8l10.4,10.6L265.7,186.5z"/>
		</defs>
		<clipPath id="SVGID_00000114769552973031664350000009977617293436734627_">
			<use xlink:href="#SVGID_00000001652436388291330720000011302734280940839060_"  style="overflow:visible;"/>
		</clipPath>
		<g style="clip-path:url(#SVGID_00000114769552973031664350000009977617293436734627_);">
			<path class="st36" d="M171.6,166.9c0,0-5.2,11.8,6.1,20.4c11.9,9.1,35.7,30,35.7,30l21.9-12.9l-25.6-19.9l31.3,16.5l19.9-11.8
				l-51-27.3L171.6,166.9z"/>
			<path class="st37" d="M210.6,185.1c-1-0.6-2.1-1.3-3.2-1.8c1.6-1,3.6-1.2,5.3-2c1.6-0.7,3-1.6,4.6-2.4c-1.2,1.2-2.5,2.1-3.6,3.4
				c-0.2,0.3-0.2,0.7,0.1,0.8c2.4,1.4,5,2.5,7.6,3.5c5,2,9.8,4.3,14.6,6.6c3.4,1.7,6.8,3.3,10.2,4.8l-5.1,3l-31.3-16.5L210.6,185.1z
				"/>
			<path class="st37" d="M171.6,166.9l38.5-5l2.2,1.2c-0.7,1.9-1.8,3.7-3,5.3c-1.2,1.5-2.6,2.9-4.1,4c-1.7,1.3-3.5,2.1-5.5,2.8
				c-2.2,0.8-4.4,1.3-6.7,1.5c-1.6,0.1-3.1,0-4.6-0.1c-2.1-0.2-5.8-0.6-6.6,2.1c-0.6,1.9,0.8,3.9,1.9,5.3c1.7,2.2,3.7,4,5.8,5.8
				c1.7,1.5,3.5,2.9,5.3,4.2c2.8,2.2,5.6,4.7,8.5,6.9c3.8,3,7.8,5.9,11.6,9c1.6,1.2,3.1,2.5,4.7,3.8l-6.1,3.6c0,0-23.9-20.9-35.7-30
				C166.5,178.7,171.6,166.9,171.6,166.9z"/>
			<g>
				<path class="st38" d="M202.2,104.7c0,0,6.5,0.6,9.3,7.7c2.8,7.1,3.6,30.7,3.6,30.7l23.4,13.1v7.2c0,0-32.5-11.9-34.2-15.6
					C202.6,144.2,202.2,104.7,202.2,104.7z"/>
				<path class="st38" d="M205.9,147.1c-0.6,0.2-1.1,0.3-1.7,0.4c-1.7-4.8-2-42.9-2-42.9s6.5,0.6,9.3,7.7c2.7,6.9,3.5,29.2,3.6,30.6
					C212.5,145.1,209.2,146.3,205.9,147.1z"/>
				<path class="st39" d="M204.3,143.2c-0.9-11-2.4-39-2.4-39s8,0.2,10.8,7.4c2,5.1,4.6,18.8,5,26.7
					C214.5,141.1,208.9,143.2,204.3,143.2z"/>
				<path class="st40" d="M189.3,102.3c0,0,11.6-1.6,15.1,3.1c0,0,6.1,8.8,6.9,24.7c0.5,9.6,0,38.5,0,38.5s-2.9,2.2-13,4.3
					c-10.1,2.2-29.2,0.5-29.4-5.1c-0.2-5.5,1.7-40.7,1.7-40.7s-5.7-9-2.9-13.6c0.4-0.7,7.3-5.8,8-6.2
					C180.5,104.6,189.3,102.3,189.3,102.3z"/>
				<path class="st41" d="M167.7,113.5c0.1-0.2,0.9-0.9,1.9-1.7c2.2,0,4.5,0.8,5.9,2.4c1.8,2,2.1,5.1,2.4,7.6
					c0.3,3.5,0.7,7,0.9,10.5c0.2,4,0.3,8,0.6,12c0.2,3.2,0.3,6.4,1.5,9.4c1.1,2.6,2.8,4.7,4.9,6.5c2.8,2.6,5.9,4.9,9,7.1
					c2.3,1.6,4.6,3.2,7,4.7c-1,0.3-2.1,0.5-3.3,0.8c-10.1,2.2-29.2,0.5-29.4-5.1c-0.2-5.5,1.7-40.7,1.7-40.7
					S164.9,118.2,167.7,113.5z"/>
				<path class="st39" d="M203.7,115.1c0.2,0.5,0.3,1,0.5,1.5c-0.4,1.7-0.8,3.4-1.2,5c-2.8-2.1-5.7-4.1-8.2-6.4
					c-0.2-0.2-0.6-0.1-0.7,0.2c-0.4,1.3-1.3,2.4-2,3.5c-0.8,1.2-1.5,2.5-2.2,3.8c0,0,0,0.1-0.1,0.1c-1.8-1.3-3.7-2.7-5.5-4.1
					c-2.3-1.7-4.6-3.4-6.9-5.1c-1-0.7-1.9-1.6-3-2.1c-0.8-0.4-1.7,0-2.5,0.4c-1.8,0.8-3.2,1.9-4.7,3.1c0.1-0.6,0.3-1.1,0.6-1.6
					c0.4-0.7,7.3-5.8,8-6.2c4.9-2.7,13.7-5.1,13.7-5.1s3.3-0.5,6.9-0.2c0.5,0.6,0.9,1.3,1.4,1.9C200,107.5,202.1,111.2,203.7,115.1z
					"/>
				<polygon class="st36" points="193.9,113.6 200,118.4 201.9,112.1 197.6,104.2 191.7,101.4 				"/>
				<g>
					<path class="st38" d="M194,98.5c0,0-0.9,8.8,0.7,11.2c1.6,2.4-1.2,6-5.4,4.3c-4.2-1.7-7-5.5-7.2-9.2c-0.2-3.6,0-10.9,0-10.9
						L194,98.5z"/>
					<path class="st38" d="M193.8,105.7c-2.4,0.1-4.9-0.4-7.1-1.4c-1.7-0.7-3.2-1.7-4.6-2.9c0-3.5,0.1-7.4,0.1-7.4l11.8,4.5
						C194,98.5,193.6,102.4,193.8,105.7z"/>
					<path class="st38" d="M182.6,100.3c-2.7-2.4-4.6-5.5-6.9-8.2c-0.4-0.5-0.8-0.9-1.2-1.4c-0.5-2.7-1-5.4-1.3-8.1
						c0-0.1,0-0.2,0.1-0.2c-0.1-0.6-0.1-1.2-0.2-1.8c-0.2-1.4-0.4-2.7-0.3-4.2c0.1-1.1,0.3-2.1,0.6-3.1c1.2-4.2,4-7.8,7.6-10.1
						c4-2.5,8.9-3,13.5-2.2c2.6,0.4,5.1,1.2,7.4,2.4c2.1,1.1,4.3,2.5,5.9,4.4c0.8,0.9,1.3,2,1.6,3.2c0.3,1.1,0.3,2.2,0.5,3.3
						c0.1,0.5,0.1,1,0.2,1.4c0,0,0,0.1,0,0.1c0,0.1,0,0.3,0,0.4c0,0.4,0.1,0.7,0.1,1.1c0,0.6,0,1.5-0.3,2.1
						c-0.2,1.2-0.4,2.4-0.7,3.5c-0.5,2.5-0.9,5.1-1.5,7.6c-0.3,1.2-0.6,2.4-0.9,3.6c-0.3,1-0.6,1.9-1.2,2.7c-0.7,0.9-7.7,7.9-9.6,8
						c-2.2,0.2-4.4-0.6-6.5-1.3c-2.3-0.8-4.5-1.8-6.6-3C182.7,100.3,182.7,100.3,182.6,100.3z"/>
					<path class="st38" d="M200.5,96.6c-0.1,0.3-0.3,0.5-0.4,0.8c-0.2,0.3-0.3,0.5-0.5,0.8c0,0.1-0.1,0.2-0.2,0.2
						c0,0-0.1,0.1-0.1,0.1c0,0,0,0,0,0c0,0-0.1,0-0.1,0c0,0,0,0,0,0c0,0,0,0,0,0c-0.2-0.1-0.4-0.2-0.6-0.4c-0.5-0.4-1-1-1.4-1.5
						C198.2,96.5,199.4,96.5,200.5,96.6z"/>
					<path class="st38" d="M172.7,76.3c0.1-1.1,0.3-2.1,0.6-3.1c1.2-4.2,4-7.8,7.6-10.1c4-2.5,8.9-3,13.5-2.2
						c2.6,0.4,5.1,1.2,7.4,2.4c2.1,1.1,4.3,2.5,5.9,4.4c0.8,0.9,1.3,2,1.6,3.2c0.3,1.1,0.3,2.2,0.5,3.3c0.1,0.5,0.1,1,0.2,1.4
						c0,0,0,0.1,0,0.1c0,0.1,0,0.3,0,0.4c0,0.4,0.1,0.7,0.1,1.1c0,0.6,0,1.5-0.3,2.1c-0.2,1.2-0.4,2.4-0.7,3.5
						c-0.4,2-0.8,3.9-1.1,5.9c-2,0.6-4,1.5-5.9,2.3c-2.5,1.1-5.1,2.2-7.8,2.7c-2.8,0.5-5.6-0.2-8.4,0.4c-2.8,0.6-4,2.6-4.3,5
						c-2.1-2.2-3.8-4.7-5.8-7c-0.4-0.5-0.8-0.9-1.2-1.4c-0.5-2.7-1-5.4-1.3-8.1c0-0.1,0-0.2,0.1-0.2c-0.1-0.6-0.1-1.2-0.2-1.8
						C172.8,79.1,172.5,77.8,172.7,76.3z"/>
				</g>
				<path class="st36" d="M193.9,113.6l-4.5,7.2c0,0-14.2-9.5-14.8-13.4l6.4-7.4L193.9,113.6z"/>
				<path class="st42" d="M170.4,74.4c0-2.4,0.2-4.9,0.9-7.2c0.7-2.3,1.8-4.3,3.7-5.8c2-1.7,4.4-2.9,7-3.7
					c5.1-1.6,10.6-1.1,15.6,0.6c3.1,1,6.1,2.5,8.9,4.2c1.4,0.9,2.7,1.9,4,3c0.6,0.5,1.1,1.1,1.7,1.8c0.3,0.4,0.6,0.7,0.8,1.2
					c0,0,0.1,0.1,0.1,0.1c0.9,1.1,1.3,2.4,1.1,3.9c-0.2,1.6-1,3-1.7,4.4c-0.4,0.8-0.8,1.5-1.4,2.2c-0.4,0.5-0.9,1-1.2,1.6
					c-0.6-1.3-2.2-4.8-2.4-5.4c-0.1-0.5-0.3-1-0.4-1.5c0,0.1-0.1,0.1-0.1,0.2c-0.6,0.7-1.2,1.3-1.9,1.7c-1.7,1.1-3.7,1.8-5.7,2.2
					c-4.3,1.1-8.9,1.5-13.2,0.3c-0.2-0.1-0.5-0.1-0.8-0.2c-0.1,0.1-0.2,0.2-0.4,0.3c-0.2,0.4-0.5,0.9-0.7,1.3
					c-0.6,1.4-1.3,2.7-1.9,4c-0.5,1.1-0.9,2.3-1.3,3.4c-0.2,0.4-0.4,0.9-0.5,1.4c0,0.1,0,0.1,0,0.2c-0.2-0.8-0.5-1.7-0.8-2.5
					c-0.6-1.4-1.8-3.8-3.7-3.1c-1.8,0.7-1.4,3.6-1.1,5c0.2,0.9,0.4,1.8,0.8,2.6c0.7,1.3,1.7,2.3,2.8,3.1c1.7,1.2,1.9,3.4,2.2,5.4
					c-0.1-0.1-0.2-0.2-0.3-0.3c-0.1,0-0.4,0-0.5-0.2c-0.6-0.8-1.5-1.4-2.2-2.1c-0.1-0.2-0.3-0.3-0.5-0.5c-1.8-1.3-3.5-2.9-4.7-4.8
					c-1.5-2.5-1.9-5.6-2.1-8.4C170.3,80.2,170.3,77.3,170.4,74.4z"/>
				<g>
					<path class="st38" d="M163.9,123.9c0,0,5.7-7,8.5,0.1c2.8,7.1,2.2,29.8,2.2,29.8l23.1,14.4l-2.6,5.7c0,0-26.4-4.7-31-14.4
						C162.4,155.8,163.9,123.9,163.9,123.9z"/>
					<path class="st38" d="M163.4,149.1c-0.1-10.6,0.6-25.2,0.6-25.2s5.7-7,8.5,0.1c2,5,2.3,17.7,2.2,24.8
						C171,149.7,166.9,150.2,163.4,149.1z"/>
					<path class="st39" d="M177.4,146c-3.5,1.2-8.6,1.9-12.2,1.4c-1.7-0.2-3.5-0.7-5.1-1.4c-0.3-0.1,1.2-20.9,3-26
						c1-3,4.3-8.2,8.2-7.3c2,0.5,3.2,2.7,4,4.4C176.2,119.2,178.6,145.6,177.4,146z"/>
				</g>
				<path class="st40" d="M182.1,80.1c0,0.1-0.1,0.2-0.1,0.3c-0.9,0-1.7-0.1-2.6-0.3c-1.6-0.5-3.2-1.2-4.7-1.9
					c-1.7-0.8-3.3-1.7-4.7-2.8c0.2-2.9,1-8.8,3.2-13.7c3.2-7.3,11-10.5,23.1-8.2c12.1,2.3,19.2,14.1,18.1,22s-29.6,5-29.6,5
					L182.1,80.1z"/>
				<path class="st43" d="M182.5,70.8c0.4-1.9,0.5-3.8,1.2-5.6c0.7-1.8,1.8-3.4,3.2-4.8c2.6-2.5,6.3-4.5,9.9-4.8
					c3.5-0.3,7,1,9.9,2.8c5.5,4.8,8.4,11.7,7.7,17c-1.1,7.9-29.6,5-29.6,5l-2.7-0.3c0,0.1-0.1,0.2-0.1,0.3c-0.1,0-0.3,0-0.4,0
					C182.1,77,181.8,73.5,182.5,70.8z"/>
				<path class="st36" d="M215,75.8l7.6,7.7c0,0,2.3,2.4-0.3,3.1c-1.5,0.4-3.5-1.4-5.1-1.6c-4.1-0.4-7.8,1.2-11.3,3.1
					c-2.3,1.3-4.4,2.9-6.9,3.6c-2.5,0.7-5-0.2-7.1-1.7c-3.7-2.7-6.9-6.4-9.7-10c0,0,9.3-7.7,19.8-7.7C212.5,72.4,215,75.8,215,75.8z
					"/>
				<path class="st20" d="M209.8,194.5c10.1,5.7,23.7,1.1,30.4-10.5s4-25.5-6-31.3c-10.1-5.7-23.7-1.1-30.4,10.5
					C197,174.7,199.7,188.7,209.8,194.5z M207.5,165.5c5.4-9.2,16.2-12.9,24.2-8.3c8,4.6,10.1,15.7,4.8,24.8
					c-5.4,9.2-16.2,12.9-24.2,8.3C204.3,185.8,202.2,174.7,207.5,165.5z"/>
				<path class="st38" d="M243.1,165.1c0.5-0.9,0.3-1.5,0-2.5c-0.2-0.6-0.2-1.5,0.6-1.6c0,0,0,0,0.1,0c0.1,0,0.2,0,0.3,0
					c0,0,0.1,0,0.1,0c0.8,0.5,1.3,1.4,1.6,2.3c0.2,0.8,0.2,1.5,0.1,2.2c-0.5,0.6-1,1.3-1.5,1.8c-0.3,0.4-0.7,0.8-1.2,1
					c-0.5,0.2-0.9-0.2-0.9-0.7C242.2,166.9,242.8,165.9,243.1,165.1z"/>
				<path class="st38" d="M242.4,168c0-0.1-0.1-0.1-0.1-0.2c-0.1-0.9,0.4-1.9,0.8-2.7c0.5-0.9,0.3-1.5,0-2.5
					c-0.2-0.6-0.2-1.5,0.6-1.6c0,0,0,0,0.1,0c0.1,0,0.2,0,0.3,0c0,0,0.1,0,0.1,0c0.6,0.4,1,0.9,1.3,1.5
					C244.7,164.5,243.6,166.3,242.4,168z"/>
				<path class="st38" d="M242,161.9c0.6-1.2,0.4-2,0-3.2c-0.3-0.8-0.2-1.9,0.8-2.1c0,0,0,0,0.1,0c0.1,0,0.3,0,0.4,0
					c0,0,0.1,0,0.2,0c1,0.7,1.7,1.8,2.1,3c0.3,1,0.3,1.9,0.1,2.9c-0.6,0.8-1.2,1.6-1.9,2.4c-0.4,0.5-0.9,1-1.5,1.2
					c-0.6,0.2-1.1-0.2-1.2-0.8C240.8,164.2,241.5,162.9,242,161.9z"/>
				<path class="st38" d="M244.7,159.3c0,1-0.5,1.7-1.1,2.4c-0.7,0.7-1.4,1.4-2,2.1c-0.2,0.2-0.4,0.5-0.6,0.7c0.1-0.9,0.7-1.8,1-2.6
					c0.6-1.2,0.4-2,0-3.2c-0.3-0.8-0.2-1.9,0.8-2.1c0,0,0,0,0.1,0c0.1,0,0.3,0,0.4,0c0,0,0.1,0,0.2,0c0.5,0.3,0.8,0.7,1.1,1.1
					C244.7,158.3,244.7,158.8,244.7,159.3z"/>
				<path class="st38" d="M240.4,159.4c0.6-1.2,0.4-2,0-3.2c-0.3-0.8-0.2-1.9,0.8-2.1c0,0,0,0,0.1,0c0.1,0,0.3,0,0.4,0
					c0,0,0.1,0,0.2,0c1,0.7,1.7,1.8,2.1,3c0.3,1,0.3,1.9,0.1,2.9c-0.2,0.2-0.3,0.5-0.5,0.7c-0.4,0.6-0.9,1.2-1.4,1.7
					c-0.4,0.5-0.9,1-1.5,1.2c-0.6,0.2-1.1-0.2-1.2-0.8C239.2,161.7,239.9,160.4,240.4,159.4z"/>
				<path class="st38" d="M241.6,154.1c0.5,1.5,1.1,3.2,0.3,4.6c-0.7,1.4-1.7,2.5-2.6,3.7c0-1.1,0.6-2.1,1.1-3c0.6-1.2,0.4-2,0-3.2
					c-0.3-0.8-0.2-1.9,0.8-2.1c0,0,0,0,0.1,0C241.4,154.1,241.5,154.1,241.6,154.1z"/>
				<path class="st38" d="M237.3,152.6c1.1-0.2,2.2-0.3,2.3-0.3c0.7,0,1,0.5,1.3,1.1c0.4,0.7,0.6,1.5,0.8,2.4
					c0.1,0.8-0.2,1.5-0.4,2.2c-0.2,0.7-0.5,1.3-0.8,2c-0.3,0.5-0.6,1.2-1,1.6c-0.5,0.4-1.1,0.1-1.3-0.4c-0.5-1-0.2-2.4,0-3.5
					c0.2-1.3-2.3-3.1-3-4.1C234.8,153.1,236.1,152.8,237.3,152.6z"/>
				<g>
					
						<rect x="202.4" y="172.3" transform="matrix(0.5848 -0.8112 0.8112 0.5848 -49.3353 253.5077)" class="st20" width="41.2" height="5.3"/>
					
						<rect x="220.5" y="153.9" transform="matrix(0.6356 -0.772 0.772 0.6356 -52.6411 235.5153)" class="st20" width="5.3" height="39.3"/>
					<path class="st20" d="M219,185.6c4.4,2.5,10.4,0.5,13.3-4.6c2.9-5,1.8-11.2-2.6-13.7c-4.4-2.5-10.4-0.5-13.3,4.6
						C213.4,177,214.6,183.1,219,185.6z"/>
					<path class="st44" d="M224.8,184.8c2.5,1.5,6,0.3,7.7-2.6c1.7-2.9,1-6.5-1.5-7.9c-2.5-1.5-6-0.3-7.7,2.6
						C221.6,179.8,222.2,183.4,224.8,184.8z"/>
					<path class="st45" d="M226.3,181.7l19.9,17.4l7.6-4.3L230.5,179c0,0-0.5-2.1-2.4-1.7C226.3,177.6,225,179.2,226.3,181.7z"/>
				</g>
				<g>
					<path class="st38" d="M191,171.5c0.5-2,0.8-4.8,2.4-6.1c2.5-2.1,8.2-3.8,11.1-5.2c1.6,0.3,7,7.3,6.8,8.3
						c-0.2,1.3-3,11.1-5.8,12.4c-0.1,0.1-0.2,0.1-0.4,0.1c-0.5-0.2-0.7-0.7-0.9-1.2c-0.1-0.6-0.2-1.2-0.5-1.7
						c-0.3-0.5-0.7-0.9-1.2-1.1c-1.6-0.9-1.5,0.8-3.3,0.6C196.5,176.6,190.7,173.1,191,171.5z"/>
					<g>
						<path class="st38" d="M205.7,164.8c0.3,0.3,0.5,0.6,0.8,0.9c0.7,0.7,1.3,1.4,2,2.1c0.7,0.7,1.4,1.5,1.9,2.4
							c0.1,0.1,0.1,0.3,0.2,0.4c0,0.6-0.2,1.2-0.4,1.8c0-0.5,0.1-0.9-0.1-1.4c-0.2-0.5-0.4-0.9-0.7-1.3c-0.6-0.9-1.4-1.7-2.1-2.5
							c-0.6-0.6-1.1-1.2-1.7-1.9c0,0,0,0,0,0C205.6,165.2,205.6,165,205.7,164.8z"/>
						<path class="st38" d="M208.1,172.6c0.4,0.4,0.7,0.9,1,1.4c0,0,0,0,0,0c0,0.1,0,0.1,0,0.2c0,0.2,0,0.3,0,0.5c0,0.1,0,0.2,0,0.2
							c0,0,0,0.1,0,0.1c0,0,0,0,0,0c0,0,0,0,0,0c0,0.1,0,0.3-0.1,0.4c0-0.1-0.1-0.2-0.2-0.4c0-0.1,0-0.2,0-0.3
							c-0.1-0.3-0.2-0.6-0.4-0.8c-0.3-0.5-0.6-0.9-1-1.3c-0.6-0.7-1.2-1.4-1.8-2.1c-0.2-0.3-0.5-0.7-0.7-1c0-0.2-0.1-0.4-0.1-0.5
							c0-0.1,0-0.2,0-0.3C205.9,169.9,207,171.2,208.1,172.6z"/>
						<path class="st38" d="M202.9,173c0-0.2,0-0.4,0-0.6c0.7,1,1.7,1.7,2.5,2.5c0.7,0.7,1.2,1.4,1.6,2.3c0,0.2,0,0.5,0.1,0.8
							c0,0.3,0,0.5,0,0.8c0,0-0.1-0.1-0.1-0.1c-0.3-0.7-0.5-1.4-0.9-2c-0.4-0.6-0.8-1.2-1.4-1.7C204.1,174.3,203.4,173.7,202.9,173
							C202.9,173,202.9,173,202.9,173z"/>
					</g>
				</g>
			</g>
		</g>
	</g>
	<g>
		<path class="st22" d="M168.5,117.5l107.8-61.9c-3.3-4.4-10.1-9.2-10.1-9.2S206,11.7,203.3,10.2c-2.7-1.6-4.2-0.9-4.2-0.9
			L93.9,71.4l4,3.4l10.3,4.3l35.4,20.3L168.5,117.5L168.5,117.5z"/>
		<path class="st27" d="M199.1,9.2c0,0,1.5-0.6,4.2,0.9c0.7,0.4,5.7,3.3,12.5,7.2c-4.8-0.7-9.6-0.9-14.4-0.1
			c-6.9,1.1-13.5,3.9-19.5,7.2c-6.5,3.5-50.8,29.7-57.3,33.5c-3,1.8-6.1,3.6-8.7,5.9c-2,1.7-3.5,3.9-4.1,6.5
			c-1,4.2,0.5,8.4,2.4,12.1l-6-3.5l-10.3-4.3l-4-3.4L199.1,9.2z"/>
		<path class="st22" d="M135.4,90.6c4.5,1.6,9,3.1,13.5,4.5c4.6,1.5,9.2,3.3,13.9,4.1c4.2,0.7,8.4,0.7,12.5-0.2
			c4.5-0.9,8.8-2.7,13-4.6c18.5-8.4,36.2-18.5,52.8-30.3c5.6-4,12.6-9.2,12.3-16.8c-0.1-3-1.2-6.3-3.1-8.6c-1-1.1-2-2.2-3.1-3.2
			c10.6,6.1,19,11,19,11s6.8,4.7,10.1,9.2l-107.8,61.9l-24.8-18.1l-28.1-16.1C122.1,85.9,128.7,88.3,135.4,90.6z"/>
		<g>
			<g>
				<polygon class="st46" points="29.7,195.6 33.3,201.3 59.6,187.8 29.7,180.5 				"/>
				<g>
					<path class="st1" d="M38.7,224.5l-9-14.6l17.6-10c0.4-0.2,0.7-0.4,1.1-0.6L49,199l0,0.1c5.6-2.6,13.1-1.9,21.3,2.8
						c17.5,10.1,31.7,34.6,31.6,54.8c0,9.3-3.1,16-8.1,19.5l0,0l-0.5,0.3c-0.6,0.4-1.2,0.7-1.9,1.1l-14.9,8.4l-7.1-11.5
						C53.6,264.8,40.5,243.4,38.7,224.5z"/>
					<g>
						<g class="st2">
							<g>
								<path class="st3" d="M42.4,252.6c-0.2-0.1-0.5-0.2-0.6-0.1c-0.3,0.2-0.3,0.9,0,1.5c0.2,0.3,0.4,0.5,0.6,0.7
									c0.2,0.1,0.5,0.2,0.6,0.1c0.3-0.2,0.3-0.8,0-1.5C42.9,253,42.7,252.7,42.4,252.6z"/>
							</g>
							<g>
								<path class="st4" d="M47.3,246.6c0.6,3.1,2.8,6.4,5.4,7.8c2.5,1.5,4.7,0.7,5.4-1.5c-0.9-0.4-1.8-0.9-2.7-1.4
									c-0.6,0.7-1.5,0.8-2.6,0.1c-1.1-0.7-2.1-1.9-2.7-3.3C49.1,247.8,48.2,247.2,47.3,246.6z"/>
							</g>
							<g>
								<path class="st5" d="M52.7,244.4c-1.7-1-3.1-0.2-3.2,1.8c0,0.7,0.2,1.4,0.5,2.2c1.1,0.7,2.2,1.4,3.2,2
									c0.7,0.4,1.4,0.8,2.1,1.1c0.3-0.4,0.5-0.9,0.5-1.7C55.9,247.8,54.5,245.4,52.7,244.4z"/>
							</g>
							<g>
								<path class="st6" d="M69.4,257.2c-0.4-0.1-0.8-0.2-1.3-0.4c0-0.1,0-0.1,0-0.2c0-0.6-0.4-1.3-0.9-1.5c-0.5-0.3-0.9,0-0.9,0.5
									c0,0.2,0.1,0.5,0.2,0.7c-2.6-0.9-5.4-2-8.4-3.5c0.1-0.5,0.2-1,0.2-1.7c0-3.5-2.5-7.8-5.5-9.6c-3.1-1.8-5.6-0.4-5.6,3.2
									c0,0.6,0.1,1.2,0.2,1.8c-2.7-1.8-5.4-3.9-8.3-6.3c0-0.1,0.1-0.2,0.1-0.4c0-0.6-0.4-1.3-0.9-1.5c-0.5-0.3-0.9-0.1-0.9,0.5
									c-0.2-0.2-0.5-0.4-0.7-0.6c0.3-10,7.5-13.9,16.4-8.8C61.9,234.6,69.2,246.9,69.4,257.2z M41.9,230.5
									c0.2,0.3,0.4,0.5,0.6,0.7c0.2,0.1,0.5,0.2,0.6,0.1c0.3-0.2,0.3-0.8,0-1.4c-0.2-0.3-0.4-0.5-0.6-0.7
									c-0.2-0.1-0.5-0.2-0.6-0.1C41.5,229.2,41.5,229.8,41.9,230.5L41.9,230.5z M62.4,242.3c0.2,0.3,0.4,0.5,0.6,0.7
									c0.2,0.1,0.5,0.2,0.6,0.1c0.4-0.2,0.4-0.8,0-1.4c-0.2-0.3-0.4-0.5-0.6-0.7c-0.2-0.1-0.5-0.2-0.6-0.1
									C62,241,62,241.7,62.4,242.3L62.4,242.3z M52.7,232.1c0.5,0.3,0.9,0.1,0.9-0.5c0-0.6-0.4-1.2-0.9-1.5
									c-0.5-0.3-0.9-0.1-0.9,0.5C51.9,231.2,52.3,231.9,52.7,232.1L52.7,232.1z"/>
							</g>
							<g>
								<path class="st7" d="M52.7,241.6c-3.1-1.8-5.6-0.4-5.6,3.2c0,0.6,0.1,1.2,0.2,1.8c0.9,0.6,1.8,1.2,2.7,1.8
									c-0.3-0.7-0.5-1.5-0.5-2.2c0-2,1.4-2.8,3.2-1.8c1.7,1,3.1,3.4,3.1,5.4c0,0.7-0.2,1.3-0.5,1.7c0.9,0.5,1.8,1,2.7,1.4
									c0.1-0.5,0.2-1,0.2-1.7C58.3,247.7,55.8,243.4,52.7,241.6z"/>
							</g>
							<g>
								<path class="st3" d="M52.8,230.1c-0.5-0.3-0.9-0.1-0.9,0.5c0,0.6,0.4,1.2,0.9,1.5c0.5,0.3,0.9,0.1,0.9-0.5
									C53.7,231.1,53.3,230.4,52.8,230.1z"/>
							</g>
							<g>
								<path class="st8" d="M35.3,237.1c0,0.3,0,0.6,0,1c0,11.3,7.8,24.9,17.6,30.5c9.8,5.6,17.7,1.1,17.8-10.1c0-0.3,0-0.6,0-0.9
									c-0.4-0.1-0.9-0.2-1.3-0.3c0,0.2,0,0.3,0,0.5c0,10.4-7.4,14.6-16.4,9.4c-9-5.2-16.4-17.9-16.3-28.3c0-0.2,0-0.4,0-0.6
									C36.2,237.8,35.8,237.5,35.3,237.1z"/>
							</g>
							<g>
								<path class="st9" d="M53,227.9c-9.5-5.5-17.2-1.4-17.7,9.1c0.4,0.4,0.9,0.8,1.3,1.1c0.3-10,7.5-13.9,16.4-8.8
									c8.9,5.1,16.1,17.5,16.3,27.8c0.4,0.1,0.9,0.2,1.3,0.3C70.3,246.5,62.6,233.4,53,227.9z"/>
							</g>
							<g>
								<path class="st10" d="M52.9,271.5c11.2,6.5,20.3,1.3,20.3-11.6c0-12.9-9-28.5-20.2-35c-11.2-6.5-20.3-1.3-20.3,11.6
									C32.7,249.4,41.7,265.1,52.9,271.5L52.9,271.5z M76.6,262c0,15.2-10.8,21.3-24,13.7c-13.2-7.6-23.9-26.1-23.8-41.3
									c0-15.2,10.8-21.3,24-13.7C66,228.4,76.7,246.9,76.6,262z"/>
							</g>
							<g>
								<path class="st3" d="M66.3,255.6c0-0.2,0.1-0.4,0.2-0.5c0,0,0,0,0,0c0,0,0.1-0.1,0.1-0.1c0,0,0.1,0,0.1,0c0,0,0,0,0,0
									c0.1,0,0.3,0,0.5,0.1c0.5,0.3,0.9,1,0.9,1.5c0,0,0,0,0,0c0,0,0,0.1,0,0.1c0,0,0,0.1,0,0.1c-0.1,0.4-0.5,0.6-0.9,0.3
									c-0.3-0.2-0.5-0.5-0.7-0.8c-0.1-0.1-0.1-0.3-0.2-0.5C66.3,255.8,66.3,255.7,66.3,255.6z"/>
							</g>
							<g>
								<path class="st11" d="M52.9,267.1c9,5.2,16.4,1,16.4-9.4c0-0.2,0-0.3,0-0.5c-0.4-0.1-0.8-0.2-1.3-0.4
									c-0.1,0.4-0.5,0.6-0.9,0.3c-0.3-0.2-0.5-0.5-0.7-0.8c-2.6-0.9-5.4-2-8.4-3.5c-0.7,2.3-2.8,3-5.4,1.5
									c-2.6-1.5-4.7-4.7-5.4-7.8c-2.7-1.8-5.4-3.9-8.3-6.3c-0.1,0.3-0.5,0.4-0.8,0.1c-0.5-0.3-0.9-1-0.9-1.5
									c-0.2-0.2-0.5-0.5-0.7-0.7c0,0.2,0,0.4,0,0.6C36.6,249.2,43.9,261.9,52.9,267.1z M43.1,253.3c0.3,0.6,0.3,1.3,0,1.5
									c-0.2,0.1-0.4,0.1-0.6-0.1c-0.2-0.1-0.5-0.4-0.6-0.7c-0.3-0.6-0.3-1.2,0-1.5c0.2-0.1,0.4-0.1,0.6,0.1
									C42.7,252.7,42.9,253,43.1,253.3L43.1,253.3z M62.3,265.8c-0.4-0.6-0.4-1.3,0-1.5c0.2-0.1,0.4-0.1,0.6,0.1
									c0.2,0.1,0.5,0.4,0.6,0.7c0.4,0.6,0.4,1.3,0,1.5c-0.2,0.1-0.4,0.1-0.6-0.1C62.7,266.4,62.5,266.1,62.3,265.8L62.3,265.8z
									 M52.7,265.4c-0.5-0.3-0.9-1-0.9-1.5c0-0.6,0.4-0.8,0.9-0.5c0.5,0.3,0.9,1,0.9,1.6C53.6,265.5,53.2,265.7,52.7,265.4
									L52.7,265.4z"/>
							</g>
							<g>
								<path class="st3" d="M52.7,263.4c-0.5-0.3-0.9,0-0.9,0.5c0,0.6,0.4,1.2,0.9,1.5c0.5,0.3,0.9,0.1,0.9-0.5
									C53.6,264.4,53.2,263.7,52.7,263.4z"/>
							</g>
							<g>
								<path class="st3" d="M38.2,238.4c-0.5-0.3-0.9-0.1-0.9,0.5c0,0,0,0,0,0c0,0.6,0.4,1.3,0.9,1.5c0.4,0.2,0.7,0.1,0.8-0.1
									c0-0.1,0.1-0.2,0.1-0.4C39.1,239.4,38.7,238.7,38.2,238.4z"/>
							</g>
							<g>
								<path class="st3" d="M42.5,229.1c-0.2-0.1-0.5-0.2-0.6-0.1c-0.3,0.2-0.4,0.8,0,1.4c0.2,0.3,0.4,0.5,0.6,0.7
									c0.2,0.1,0.5,0.2,0.6,0.1c0.3-0.2,0.3-0.8,0-1.4C43,229.4,42.7,229.2,42.5,229.1z"/>
							</g>
							<g>
								<path class="st3" d="M63,240.9c-0.2-0.1-0.5-0.2-0.6-0.1c-0.4,0.2-0.4,0.8,0,1.4c0.2,0.3,0.4,0.5,0.6,0.7
									c0.2,0.1,0.5,0.2,0.6,0.1c0.4-0.2,0.4-0.8,0-1.4C63.4,241.3,63.2,241,63,240.9z"/>
							</g>
							<g>
								<path class="st12" d="M73.3,260c0,12.9-9.1,18.1-20.3,11.6c-11.2-6.5-20.2-22.1-20.2-35c0-12.9,9.2-18,20.3-11.6
									C64.3,231.4,73.3,247.1,73.3,260z M52.9,270.3c11,6.3,19.9,1.2,19.9-11.4c0-0.3,0-0.6,0-0.9c-0.7-0.1-1.4-0.3-2.2-0.5
									c-0.4-11-8.1-24.1-17.6-29.6c-9.5-5.5-17.2-1.4-17.7,9.1c-0.7-0.6-1.4-1.3-2.2-2c0,0.3,0,0.6,0,0.9
									C33.1,248.6,42,263.9,52.9,270.3L52.9,270.3z"/>
							</g>
							<g>
								<path class="st13" d="M50,248.4c0.6,1.3,1.5,2.6,2.7,3.3c1.1,0.6,2.1,0.5,2.6-0.1c-0.7-0.4-1.4-0.7-2.1-1.1
									C52.2,249.7,51.1,249.1,50,248.4z"/>
							</g>
							<g>
								<path class="st3" d="M62.9,264.4c-0.2-0.1-0.5-0.2-0.6-0.1c-0.4,0.2-0.4,0.9,0,1.5c0.2,0.3,0.4,0.5,0.6,0.7
									c0.2,0.1,0.5,0.2,0.6,0.1c0.4-0.2,0.4-0.8,0-1.5C63.4,264.8,63.1,264.6,62.9,264.4z"/>
							</g>
							<g>
								<path class="st14" d="M33.2,235.1c0,0.3,0,0.6,0,0.9c0,12.6,8.8,28,19.8,34.3c11,6.3,19.9,1.2,19.9-11.4c0-0.3,0-0.6,0-0.9
									c-0.7-0.1-1.4-0.3-2.2-0.5c0,0.3,0,0.6,0,0.9c0,11.3-8,15.8-17.8,10.1c-9.8-5.6-17.7-19.3-17.6-30.5c0-0.3,0-0.7,0-1
									C34.6,236.4,33.9,235.8,33.2,235.1z"/>
							</g>
							<g>
								<g class="st2">
									<defs>
										<path id="SVGID_00000070078169564428187590000017258971070074411145_" class="st2" d="M83.3,262.6c0,1.1,0,2.1-0.1,3.1
											c0.1,1.1,0.1,2.2,0.1,3.2c0,0.2,0,0.4,0,0.6c0.1-1.2,0.2-2.4,0.2-3.6c0-1.3-0.1-2.6-0.2-3.9
											C83.2,262.1,83.3,262.4,83.3,262.6z"/>
									</defs>
									<use xlink:href="#SVGID_00000070078169564428187590000017258971070074411145_"  style="overflow:visible;fill:#BFBFBF;"/>
									<clipPath id="SVGID_00000065797133619859628290000016426855587612351390_">
										<use xlink:href="#SVGID_00000070078169564428187590000017258971070074411145_"  style="overflow:visible;"/>
									</clipPath>
									<g style="clip-path:url(#SVGID_00000065797133619859628290000016426855587612351390_);">
										<g>
											<defs>
												<polygon id="SVGID_00000068674482397221151500000009788554804970223491_" points="83.2,266 83.2,266.5 83.2,266.9 
													83.2,267.3 83.2,267.7 83.2,268.1 83.2,268.5 83.2,268.9 83.2,268.9 83.2,269 83.2,269.1 83.2,269.2 83.2,269.2 
													83.2,269.3 83.2,269.4 83.2,269.5 83.2,269.2 83.3,269 83.3,268.8 83.3,268.6 83.3,268.4 83.3,268.1 83.4,267.9 
													83.4,267.7 83.4,267.4 83.4,267.2 83.4,267 83.4,266.8 83.4,266.5 83.4,266.3 83.4,266.1 83.4,265.8 83.4,265.6 
													83.4,265.3 83.4,265.1 83.4,264.9 83.4,264.6 83.4,264.4 83.4,264.1 83.4,263.9 83.4,263.7 83.4,263.4 83.3,263.2 
													83.3,262.9 83.3,262.7 83.3,262.4 83.3,262.2 83.2,261.9 83.2,262 83.2,262.1 83.2,262.2 83.2,262.2 83.2,262.3 
													83.3,262.4 83.3,262.5 83.3,262.6 83.3,262.9 83.2,263.3 83.2,263.7 83.2,264.1 83.2,264.5 83.2,264.9 83.2,265.3 
													83.1,265.6 83.2,266 												"/>
											</defs>
											<clipPath id="SVGID_00000078033799360343821440000008209068332252674450_">
												<use xlink:href="#SVGID_00000068674482397221151500000009788554804970223491_"  style="overflow:visible;"/>
											</clipPath>
											<g style="clip-path:url(#SVGID_00000078033799360343821440000008209068332252674450_);">
												
													<image style="overflow:visible;" width="1" height="17" xlink:href="FEC2EE54AE0E3535.png"  transform="matrix(-0.4636 0 0 0.4636 83.4421 261.9268)">
												</image>
											</g>
										</g>
									</g>
								</g>
							</g>
							<g>
								<path class="st16" d="M83.1,265.6c-1.4,17.2-14.7,23.7-30.7,14.5C36.7,271,23.7,249.9,22,231.4
									c0.2,19.4,13.8,42.7,30.6,52.4c17,9.8,30.8,1.9,30.8-17.6c0-0.1,0-0.3,0-0.4c0,1.3-0.1,2.5-0.2,3.6c0-0.2,0-0.4,0-0.6
									C83.2,267.8,83.2,266.7,83.1,265.6z"/>
							</g>
							<g>
								<g class="st2">
									<defs>
										<path id="SVGID_00000021818245281585981170000011346889717722181810_" class="st2" d="M52.8,212.4
											c-16.8-9.7-30.5-2.1-30.8,17c1.8-16.5,14.8-22.6,30.6-13.5c0.1,0.1,0.3,0.1,0.4,0.2c0.2,0.1,0.3,0.2,0.4,0.2
											c0.2,0.1,0.3,0.2,0.4,0.2c0.1,0,0.1,0.1,0.2,0.1c0.1,0,0.1,0.1,0.2,0.1c0.1,0,0.1,0.1,0.2,0.1c0.1,0,0.1,0.1,0.2,0.1
											c0.1,0,0.1,0.1,0.2,0.1c0.1,0,0.1,0.1,0.2,0.1c0.1,0,0.1,0.1,0.2,0.1c0.1,0,0.1,0.1,0.2,0.1c0.1,0,0.1,0.1,0.2,0.1
											c0.1,0,0.1,0.1,0.2,0.1c0.1,0,0.1,0.1,0.2,0.1c0.1,0,0.1,0.1,0.2,0.1c0.1,0,0.1,0.1,0.2,0.1c0.1,0.1,0.1,0.1,0.2,0.2
											c0.1,0,0.1,0.1,0.2,0.1c0.1,0.1,0.1,0.1,0.2,0.2c0.1,0,0.1,0.1,0.2,0.1c0.1,0.1,0.1,0.1,0.2,0.2c0.1,0,0.1,0.1,0.2,0.1
											c0.1,0.1,0.2,0.1,0.2,0.2c0.2,0.2,0.3,0.2,0.4,0.3c0.2,0.2,0.3,0.2,0.4,0.3c0.2,0.2,0.3,0.3,0.4,0.3
											c0.3,0.3,0.6,0.5,0.8,0.7c0.1,0.1,0.3,0.2,0.4,0.3c0.2,0.2,0.3,0.2,0.4,0.3c0.2,0.2,0.3,0.2,0.4,0.3
											c0.2,0.2,0.3,0.3,0.4,0.3c0.2,0.2,0.3,0.3,0.4,0.3c0.2,0.2,0.3,0.3,0.4,0.3c0.2,0.2,0.3,0.3,0.4,0.3
											c0.2,0.2,0.3,0.3,0.4,0.3c0.2,0.2,0.3,0.3,0.3,0.3c0.2,0.2,0.3,0.3,0.4,0.3c0.2,0.2,0.3,0.3,0.4,0.4
											c0.2,0.2,0.3,0.3,0.3,0.4c0.2,0.2,0.3,0.3,0.3,0.4c0.2,0.2,0.3,0.3,0.4,0.4c0.2,0.2,0.3,0.3,0.4,0.4
											c0.5,0.5,0.9,1,1.4,1.5c0.1,0.2,0.2,0.3,0.3,0.4c0.1,0.2,0.2,0.3,0.3,0.4c0.2,0.2,0.2,0.3,0.3,0.4
											c0.2,0.2,0.2,0.3,0.3,0.4c0.2,0.2,0.2,0.3,0.3,0.4c0.2,0.2,0.2,0.3,0.3,0.4c0.2,0.2,0.2,0.3,0.3,0.4
											c0.2,0.2,0.2,0.3,0.3,0.4c0.1,0.2,0.2,0.3,0.3,0.4c0.1,0.2,0.2,0.3,0.3,0.4c0.1,0.2,0.2,0.3,0.3,0.4
											c0.1,0.2,0.2,0.3,0.3,0.4c0.7,1,1.4,2,2.1,3c0.1,0.1,0.2,0.3,0.3,0.4c0.1,0.2,0.2,0.3,0.3,0.4c0.1,0.2,0.2,0.3,0.3,0.4
											c0.1,0.2,0.2,0.3,0.3,0.4c0.1,0.2,0.2,0.3,0.3,0.4c0.1,0.2,0.2,0.3,0.3,0.5c0.1,0.2,0.2,0.3,0.3,0.5
											c0.1,0.2,0.2,0.3,0.3,0.5c0.1,0.2,0.2,0.3,0.3,0.5c0.8,1.4,1.5,2.7,2.2,4.1c0.1,0.2,0.2,0.3,0.2,0.5
											c0.1,0.2,0.2,0.3,0.2,0.5c0.1,0.2,0.2,0.3,0.2,0.5c0.1,0.2,0.1,0.3,0.2,0.5c0.1,0.2,0.1,0.3,0.2,0.5
											c0.1,0.2,0.1,0.3,0.2,0.5c0.1,0.2,0.1,0.3,0.2,0.5c0.1,0.2,0.1,0.3,0.2,0.5c0.6,1.4,1.1,2.9,1.6,4.3
											c0.1,0.2,0.1,0.3,0.2,0.5c0.1,0.2,0.1,0.3,0.2,0.5c0.1,0.2,0.1,0.3,0.2,0.5c0.1,0.2,0.1,0.3,0.1,0.5
											c0.1,0.2,0.1,0.3,0.1,0.5c0.1,0.2,0.1,0.3,0.1,0.5c0.1,0.2,0.1,0.3,0.1,0.5c0.1,0.2,0.1,0.4,0.1,0.5
											c0.1,0.2,0.1,0.3,0.1,0.5c0.1,0.2,0.1,0.4,0.1,0.5c0.2,0.8,0.4,1.6,0.6,2.4c0,0.2,0.1,0.3,0.1,0.5c0,0.2,0.1,0.3,0.1,0.5
											c0,0.2,0.1,0.4,0.1,0.5c0,0.2,0.1,0.4,0.1,0.5c0,0.2,0.1,0.4,0.1,0.5c0,0.3,0.1,0.4,0.1,0.5c0,0.3,0.1,0.4,0.1,0.5
											c0,0.3,0.1,0.4,0.1,0.5c0,0.3,0.1,0.4,0.1,0.5c0,0.3,0,0.4,0.1,0.5c0,0.3,0,0.4,0.1,0.5c0,0.3,0,0.4,0.1,0.5
											c0,0.3,0,0.4,0,0.5c0,0.2,0,0.4,0,0.5c0,0.2,0,0.4,0,0.6c0.1-1,0.1-2,0.1-3.1c0-0.2,0-0.4,0-0.6c0.1,1.3,0.2,2.6,0.2,3.9
											c0-0.1,0-0.3,0-0.4C83.5,245.9,69.8,222.2,52.8,212.4z"/>
									</defs>
									<use xlink:href="#SVGID_00000021818245281585981170000011346889717722181810_"  style="overflow:visible;fill:#BFBFBF;"/>
									<clipPath id="SVGID_00000116940186641359622450000017693811317291897986_">
										<use xlink:href="#SVGID_00000021818245281585981170000011346889717722181810_"  style="overflow:visible;"/>
									</clipPath>
									<g style="clip-path:url(#SVGID_00000116940186641359622450000017693811317291897986_);">
										<g>
											<defs>
												<polygon id="SVGID_00000151524719422864222020000004200240211398238360_" points="83.4,265.3 83.4,265.8 83.4,265.8 
													83.4,265.7 83.4,265.7 83.4,265.6 83.4,265.6 83.4,265.5 83.4,265.5 83.4,265.4 83.4,265 83.4,265.3 												"/>
											</defs>
											<clipPath id="SVGID_00000033364778780075901950000006440063519076561333_">
												<use xlink:href="#SVGID_00000151524719422864222020000004200240211398238360_"  style="overflow:visible;"/>
											</clipPath>
											<g style="clip-path:url(#SVGID_00000033364778780075901950000006440063519076561333_);">
												
													<image style="overflow:visible;" width="1" height="2" xlink:href="FEC2EE54AE0E3536.png"  transform="matrix(-0.4636 0 0 0.4636 83.4457 264.9629)">
												</image>
											</g>
										</g>
									</g>
								</g>
							</g>
							<g>
								<path class="st18" d="M84.4,266.5c-0.1,20.1-14.3,28.2-31.8,18.1C35.1,274.5,21,250,21,229.9c0.1-20.1,14.3-28.3,31.8-18.1
									C70.3,221.9,84.5,246.4,84.4,266.5z M52.6,283.8c17,9.8,30.8,1.9,30.8-17.6c0-0.1,0-0.3,0-0.4c0-0.1,0-0.3,0-0.4
									c0.1-19.5-13.6-43.3-30.6-53.1c-16.8-9.7-30.5-2.1-30.8,17c1.8-16.5,14.8-22.6,30.6-13.5c16,9.3,29.2,31,30.5,49.8
									c-1.4,17.2-14.7,23.7-30.7,14.5C36.7,271,23.7,249.9,22,231.4C22.2,250.7,35.8,274.1,52.6,283.8L52.6,283.8z M28.8,234.4
									c0,15.2,10.7,33.7,23.8,41.3c13.2,7.6,23.9,1.5,24-13.7c0-15.2-10.6-33.7-23.8-41.3C39.6,213.1,28.8,219.2,28.8,234.4
									L28.8,234.4z"/>
							</g>
						</g>
					</g>
				</g>
				<g>
					<g>
						<g>
							<polygon class="st19" points="198.9,225.9 186.2,252.5 208.1,265.1 							"/>
						</g>
						<g>
							<polygon class="st27" points="215,270.2 214.5,269.9 215,272 							"/>
						</g>
						<g class="st2">
							<g>
								<polygon class="st49" points="28.6,155.1 28.5,160.5 92.6,197.5 92.6,192 								"/>
							</g>
							<g>
								<path class="st49" d="M93.1,256.5l0,2.3c0.4,2.3,3.5,4.4,5,5.2c0.5,0.3,0.7,0.4,0.8,0.4l70.4,40.7c0.1,0.1,0.3,0.2,0.4,0.3
									c0.6,0.4,1.2,0.5,1.6,0.5c0.1,0,0.2,0,0.2,0c1.3-1.2,1.5-1.7,1.6-2.2c0.1-0.3,0.1-0.6,0.1-0.9L93.1,256.5z"/>
							</g>
							<g>
								<path class="st27" d="M171.3,305.9c-0.4,0-1-0.1-1.6-0.5c-0.1-0.1-0.3-0.2-0.4-0.3c0.1,0.1,0.3,0.2,0.4,0.3
									C170.4,305.7,170.9,305.9,171.3,305.9z"/>
							</g>
							<g>
								<path class="st27" d="M33.5,131.2c-5.6-3-4.9,1.9-4.9,2.2l-0.1,21.6l64,37l0.1-26.6L33.5,131.2z"/>
							</g>
							<g>
								<path class="st1" d="M28.6,133.8l0-0.4c0-0.3-0.8-5.2,4.9-2.2l59.2,34.2l0,4.3C89.6,167.8,35,137.6,28.6,133.8z"/>
							</g>
							<g>
								<path class="st27" d="M172.7,305c0.2-0.4,0.4-0.9,0.5-1.4C173.1,304.1,172.9,304.6,172.7,305z"/>
							</g>
							<g>
								<polygon class="st19" points="101.9,127.4 109,181.4 110.5,192.7 122.1,199.4 119.9,187.8 109.6,131.8 								"/>
							</g>
							<g>
								<path class="st27" d="M92.6,198.2l0-0.7l-64-37l-0.1,37.9l4.9,2.8l0-14.5c1.3-3.7,8.9,0.3,9.3,0.5l44.4,25.6
									c6.5,4.7,6.2,12.5,6.2,12.9l-0.1,30.7l80.1,46.3c0.1-1,0-1.8,0-1.8l0.1-24.7c0-9.5,6.6-6.2,7.9-5.4l34.3,19.8l-0.5-16.5
									l-110.4-63.7c0,0-0.9-0.4-2.2-1.2C99.2,207.2,93.2,203.2,92.6,198.2z"/>
							</g>
							<g>
								<path class="st20" d="M161.1,107.9c0.9,0.5,17.1,10,22.9,34.9l30.5,127.2l0.5,2l0.6,2.4l-0.5-0.3l-110.4-63.7
									c0,0-0.9-0.4-2.2-1.2c-3.3-1.9-9.2-6-9.9-10.9l0-0.7l0-5.5l0.1-26.6l0.3-89.6c0-0.4-0.8-7.7,5.9-3.9L161.1,107.9z
									 M98.2,83.8L98,175.1l-0.1,21.7c0.3,2.2,1.7,4.2,3.3,5.8c1.8,1.8,4,3.2,5.5,4.1c1.2,0.7,1.9,1,2,1l6,3.4l44.2,25.5
									l27.3,15.8l21.9,12.7l-9.2-39.2l-19.1-81.7c-5.2-22.9-19.7-31.4-20.5-31.8l-55.8-32.2C97.5,76.7,98.2,83.5,98.2,83.8
									L98.2,83.8z"/>
							</g>
							<g>
								<path class="st20" d="M98,175.1l-0.1,21.7c0.3,2.2,1.1,6.7,2.7,8.4l14,6l44.2,25.5l0.1-26.4l-39-22.5l2.2,11.6l-11.6-6.7
									l-1.5-11.3L98,175.1z"/>
							</g>
						</g>
					</g>
				</g>
			</g>
			<g>
				<path class="st1" d="M149.6,252l19.7,11.3v27.3l-4.7-2.8C159.9,275.7,154.8,263.8,149.6,252z"/>
				<path class="st1" d="M148.5,277.5c-4.4-11.2-8.8-22.4-13-33.7l7.5,4.3c1.4,2.9,2.7,5.8,4,8.7c3.8,8.9,7,18,10.9,26.8l-9.1-5.5
					C148.7,278,148.6,277.7,148.5,277.5z"/>
				<path class="st1" d="M128.8,240c1.1,2.6,2.2,5.1,3.3,7.7c3.8,9,7.4,18,11,27.1l-45.2-27.1v-25.5L128.8,240z"/>
			</g>
		</g>
	</g>
	<g>
		<path class="st1" d="M45.4,129.4c0,2.4,4.4,4.4,9.9,4.4c5.5,0,9.9-2,9.9-4.4c0-2.4-4.4-4.4-9.9-4.4
			C49.9,125,45.4,126.9,45.4,129.4z"/>
		<g>
			<path class="st50" d="M48,117.5l14.7,0.4l1.1,11c0,1.8-3.8,3.3-8.5,3.3c-4.7,0-8.5-1.5-8.5-3.3L48,117.5z"/>
			<path class="st50" d="M60.9,125.5c-0.3-2.5-0.8-5.1-1.2-7.6l2.9,0.1l1.1,11c0,0.9-0.9,1.7-2.3,2.2
				C61.2,129.3,61.2,127.4,60.9,125.5z"/>
			<path class="st51" d="M56.1,132.2c0-2.4-0.2-4.8-0.1-7.3c0-2.4,0-4.8,0-7.2l0.5,0c0.3,4.8-0.1,9.6,0.3,14.4
				C56.6,132.2,56.3,132.2,56.1,132.2z"/>
			<path class="st50" d="M48,117.5l2.3,0.1c-0.3,4.6-0.6,9.1-0.9,13.7c-1.5-0.6-2.4-1.4-2.4-2.3L48,117.5z"/>
			<path class="st52" d="M48,117.5c0,1.8,3.3,3.3,7.4,3.3c4.1,0,7.4-1.5,7.4-3.3c0-1.8-3.3-3.3-7.4-3.3
				C51.3,114.3,48,115.7,48,117.5z"/>
			<path class="st50" d="M54.7,117.5c0,0.9,1.7,1.6,3.7,1.6c2,0,3.7-0.7,3.7-1.6c0-0.9-1.7-1.6-3.7-1.6
				C56.3,115.9,54.7,116.6,54.7,117.5z"/>
		</g>
	</g>
	<g>
		<path class="st1" d="M45.4,129.4c0,2.4,4.4,4.4,9.9,4.4c5.5,0,9.9-2,9.9-4.4c0-2.4-4.4-4.4-9.9-4.4
			C49.9,125,45.4,126.9,45.4,129.4z"/>
		<g>
			<path class="st50" d="M48,117.5l14.7,0.4l1.1,11c0,1.8-3.8,3.3-8.5,3.3c-4.7,0-8.5-1.5-8.5-3.3L48,117.5z"/>
			<path class="st50" d="M60.9,125.5c-0.3-2.5-0.8-5.1-1.2-7.6l2.9,0.1l1.1,11c0,0.9-0.9,1.7-2.3,2.2
				C61.2,129.3,61.2,127.4,60.9,125.5z"/>
			<path class="st51" d="M56.1,132.2c0-2.4-0.2-4.8-0.1-7.3c0-2.4,0-4.8,0-7.2l0.5,0c0.3,4.8-0.1,9.6,0.3,14.4
				C56.6,132.2,56.3,132.2,56.1,132.2z"/>
			<path class="st50" d="M48,117.5l2.3,0.1c-0.3,4.6-0.6,9.1-0.9,13.7c-1.5-0.6-2.4-1.4-2.4-2.3L48,117.5z"/>
			<path class="st52" d="M48,117.5c0,1.8,3.3,3.3,7.4,3.3c4.1,0,7.4-1.5,7.4-3.3c0-1.8-3.3-3.3-7.4-3.3
				C51.3,114.3,48,115.7,48,117.5z"/>
			<path class="st50" d="M54.7,117.5c0,0.9,1.7,1.6,3.7,1.6c2,0,3.7-0.7,3.7-1.6c0-0.9-1.7-1.6-3.7-1.6
				C56.3,115.9,54.7,116.6,54.7,117.5z"/>
		</g>
	</g>
	<path class="st53" d="M283.8,362.1c1.2,0,2.1-1,2.1-2.1V155.5c0-1.2-1-2.1-2.1-2.1c-1.2,0-2.1,1-2.1,2.1V360
		C281.7,361.2,282.7,362.1,283.8,362.1z"/>
	<path class="st53" d="M372.7,304.3c1.2,0,2.1-1,2.1-2.1V97.7c0-1.2-1-2.1-2.1-2.1s-2.1,1-2.1,2.1v204.5
		C370.6,303.4,371.6,304.3,372.7,304.3z"/>
	<g>
		<polygon class="st24" points="367,253.5 274.8,307.5 274.8,361.5 372.7,254.8 		"/>
	</g>
	<g>
		<polygon class="st26" points="372.7,254.8 280.5,308.7 280.5,362.8 371.8,309 		"/>
	</g>
	<g>
		<polygon class="st54" points="372.3,282.8 282.8,334.1 280.5,362.8 371.8,309 		"/>
	</g>
	<g>
		<polygon class="st26" points="372.7,254.8 280.5,308.7 280.5,362.8 292.2,307.5 		"/>
	</g>
	<g>
		<g>
			<g>
				<path class="st26" d="M311.9,189.9c0.3,0,0.6-0.1,0.8-0.2l73-44.5c0.8-0.5,1-1.4,0.5-2.2c-0.5-0.8-1.4-1-2.2-0.5l-73,44.5
					c-0.8,0.5-1,1.4-0.5,2.2C310.8,189.6,311.3,189.9,311.9,189.9z"/>
				<path class="st26" d="M322.8,200.1c0.3,0,0.6-0.1,0.8-0.2l73-44.5c0.8-0.5,1-1.4,0.5-2.2c-0.5-0.8-1.4-1-2.2-0.5l-73,44.5
					c-0.8,0.5-1,1.4-0.5,2.2C321.7,199.8,322.2,200.1,322.8,200.1z"/>
				<path class="st26" d="M343,210.2c0.3,0,0.6-0.1,0.8-0.2l73-44.5c0.8-0.5,1-1.4,0.5-2.2c-0.5-0.8-1.4-1-2.2-0.5l-73,44.5
					c-0.8,0.5-1,1.4-0.5,2.2C342,210,342.5,210.2,343,210.2z"/>
				<path class="st26" d="M374.9,230.5c0.3,0,0.6-0.1,0.8-0.2l73-44.5c0.8-0.5,1-1.4,0.5-2.2c-0.5-0.8-1.4-1-2.2-0.5l-73,44.5
					c-0.8,0.5-1,1.4-0.5,2.2C373.8,230.2,374.3,230.5,374.9,230.5z"/>
				<path class="st26" d="M361.4,220.4c0.3,0,0.6-0.1,0.8-0.2l73-44.5c0.8-0.5,1-1.4,0.5-2.2c-0.5-0.8-1.4-1-2.2-0.5l-73,44.5
					c-0.8,0.5-1,1.4-0.5,2.2C360.3,220.1,360.8,220.4,361.4,220.4z"/>
			</g>
			<g>
				<g>
					<g class="st2">
						<g>
							<polygon class="st24" points="281.9,166.8 281.8,183.7 296.6,192.2 296.6,175.3 							"/>
						</g>
						<g>
							<polygon class="st33" points="296.6,192.2 311.8,183.3 311.8,166.4 296.6,175.3 							"/>
						</g>
						<g>
							<polygon class="st29" points="296.6,192.2 311.8,183.3 311.8,166.4 296.6,175.3 							"/>
						</g>
						<g>
							<polygon class="st34" points="296.6,175.3 311.8,166.4 297.1,157.9 281.9,166.8 							"/>
						</g>
					</g>
				</g>
				<g>
					<polygon class="st55" points="296.7,185.5 416.4,262.2 421.6,257.8 421.9,254.6 296.9,182.3 					"/>
					<polygon class="st28" points="296.9,182.3 416.6,259 421.9,254.6 311.8,174.2 					"/>
				</g>
			</g>
			<g>
				<g>
					<g class="st2">
						<g>
							<polygon class="st24" points="354,123.9 354,140.8 368.7,149.2 368.8,132.4 							"/>
						</g>
						<g>
							<polygon class="st33" points="368.7,149.2 383.9,140.4 384,123.5 368.8,132.4 							"/>
						</g>
						<g>
							<polygon class="st29" points="368.7,149.2 383.9,140.4 384,123.5 368.8,132.4 							"/>
						</g>
						<g>
							<polygon class="st34" points="368.8,132.4 384,123.5 369.2,115 354,123.9 							"/>
						</g>
					</g>
				</g>
				<g>
					<polygon class="st55" points="368.9,142.6 488.6,219.3 493.8,214.9 494,211.7 369.1,139.4 					"/>
					<polygon class="st28" points="369.1,139.4 488.8,216.1 494,211.7 383.9,131.3 					"/>
				</g>
			</g>
		</g>
		<g>
			<g>
				<g>
					<g>
						<g class="st2">
							<g>
								<polygon class="st56" points="347.6,128.4 347.5,175.5 388.4,199.1 388.6,152 								"/>
							</g>
							<g>
								<polygon class="st57" points="388.4,199.1 430.8,174.5 430.9,127.4 388.6,152 								"/>
							</g>
							<g>
								<polygon class="st58" points="388.4,199.1 430.8,174.5 430.9,127.4 388.6,152 								"/>
							</g>
							<g>
								<polygon class="st59" points="389.9,196.4 400.6,190.2 400.7,185 390,190.7 								"/>
							</g>
							<g>
								<polygon class="st57" points="388.6,152 430.9,127.4 390,103.8 347.6,128.4 								"/>
							</g>
						</g>
					</g>
					<polygon class="st56" points="412.6,137.2 414.4,137 414.4,149 407,154 407.1,141.3 					"/>
					<g>
						<polygon class="st60" points="407.1,141.3 414.4,137 373.4,113.4 366.9,117.2 						"/>
					</g>
				</g>
				<g>
					<g>
						<g class="st2">
							<g>
								<polygon class="st56" points="304.4,153.7 304.2,200.8 345.2,224.4 345.3,177.3 								"/>
							</g>
							<g>
								<polygon class="st57" points="345.2,224.4 387.6,199.8 387.7,152.7 345.3,177.3 								"/>
							</g>
							<g>
								<polygon class="st58" points="345.2,224.4 387.6,199.8 387.7,152.7 345.3,177.3 								"/>
							</g>
							<g>
								<polygon class="st59" points="346.7,221.7 357.4,215.5 357.4,210.3 346.7,216 								"/>
							</g>
							<g>
								<polygon class="st57" points="345.3,177.3 387.7,152.7 346.7,129.1 304.4,153.7 								"/>
							</g>
						</g>
					</g>
					<polygon class="st56" points="369.4,162.5 371.2,162.3 371.2,174.3 363.7,179.3 363.8,166.6 					"/>
					<g>
						<polygon class="st60" points="363.8,166.6 371.2,162.3 330.1,138.7 323.6,142.5 						"/>
					</g>
				</g>
			</g>
			<g>
				<g>
					<g>
						<g class="st2">
							<g>
								<polygon class="st56" points="389.7,152.9 389.6,200 430.6,223.7 430.7,176.6 								"/>
							</g>
							<g>
								<polygon class="st57" points="430.6,223.7 472.9,199.1 473,152 430.7,176.6 								"/>
							</g>
							<g>
								<polygon class="st58" points="430.6,223.7 472.9,199.1 473,152 430.7,176.6 								"/>
							</g>
							<g>
								<polygon class="st59" points="432.1,220.9 442.7,214.7 442.8,209.5 432.1,215.2 								"/>
							</g>
							<g>
								<polygon class="st57" points="430.7,176.6 473,152 432.1,128.3 389.7,152.9 								"/>
							</g>
						</g>
					</g>
					<polygon class="st56" points="454.7,161.8 456.5,161.6 456.5,173.6 449.1,178.5 449.2,165.8 					"/>
					<g>
						<polygon class="st60" points="449.2,165.8 456.5,161.6 415.5,138 409,141.7 						"/>
					</g>
				</g>
				<g>
					<g>
						<g class="st2">
							<g>
								<polygon class="st56" points="346.5,178.2 346.3,225.3 387.3,249 387.4,201.9 								"/>
							</g>
							<g>
								<polygon class="st57" points="387.3,249 429.7,224.4 429.8,177.3 387.4,201.9 								"/>
							</g>
							<g>
								<polygon class="st58" points="387.3,249 429.7,224.4 429.8,177.3 387.4,201.9 								"/>
							</g>
							<g>
								<polygon class="st59" points="388.8,246.3 399.5,240 399.5,234.9 388.8,240.6 								"/>
							</g>
							<g>
								<polygon class="st57" points="387.4,201.9 429.8,177.3 388.8,153.6 346.5,178.2 								"/>
							</g>
						</g>
					</g>
					<polygon class="st56" points="411.5,187.1 413.3,186.9 413.3,198.9 405.8,203.8 405.9,191.2 					"/>
					<g>
						<polygon class="st60" points="405.9,191.2 413.3,186.9 372.2,163.3 365.7,167 						"/>
					</g>
				</g>
			</g>
			<g>
				<g>
					<g>
						<g class="st2">
							<g>
								<polygon class="st56" points="347.6,80.3 347.5,127.4 388.4,151.1 388.6,104 								"/>
							</g>
							<g>
								<polygon class="st57" points="388.4,151.1 430.8,126.4 430.9,79.4 388.6,104 								"/>
							</g>
							<g>
								<polygon class="st58" points="388.4,151.1 430.8,126.4 430.9,79.4 388.6,104 								"/>
							</g>
							<g>
								<polygon class="st59" points="389.9,148.3 400.6,142.1 400.7,136.9 390,142.6 								"/>
							</g>
							<g>
								<polygon class="st57" points="388.6,104 430.9,79.4 390,55.7 347.6,80.3 								"/>
							</g>
						</g>
					</g>
					<polygon class="st56" points="412.6,89.2 414.4,89 414.4,101 407,105.9 407.1,93.2 					"/>
					<g>
						<polygon class="st60" points="407.1,93.2 414.4,89 373.4,65.4 366.9,69.1 						"/>
					</g>
				</g>
				<g>
					<g>
						<g class="st2">
							<g>
								<polygon class="st56" points="304.4,105.6 304.2,152.7 345.2,176.4 345.3,129.3 								"/>
							</g>
							<g>
								<polygon class="st57" points="345.2,176.4 387.6,151.8 387.7,104.7 345.3,129.3 								"/>
							</g>
							<g>
								<polygon class="st58" points="345.2,176.4 387.6,151.8 387.7,104.7 345.3,129.3 								"/>
							</g>
							<g>
								<polygon class="st59" points="346.7,173.6 357.4,167.4 357.4,162.2 346.7,167.9 								"/>
							</g>
							<g>
								<polygon class="st57" points="345.3,129.3 387.7,104.7 346.7,81 304.4,105.6 								"/>
							</g>
						</g>
					</g>
					<polygon class="st56" points="369.4,114.5 371.2,114.3 371.2,126.3 363.7,131.2 363.8,118.5 					"/>
					<g>
						<polygon class="st60" points="363.8,118.5 371.2,114.3 330.1,90.7 323.6,94.4 						"/>
					</g>
				</g>
			</g>
			<g>
				<g>
					<g>
						<g class="st2">
							<g>
								<polygon class="st56" points="389.7,104.9 389.6,152 430.6,175.6 430.7,128.6 								"/>
							</g>
							<g>
								<polygon class="st57" points="430.6,175.6 472.9,151 473,103.9 430.7,128.6 								"/>
							</g>
							<g>
								<polygon class="st58" points="430.6,175.6 472.9,151 473,103.9 430.7,128.6 								"/>
							</g>
							<g>
								<polygon class="st59" points="432.1,172.9 442.7,166.7 442.8,161.5 432.1,167.2 								"/>
							</g>
							<g>
								<polygon class="st57" points="430.7,128.6 473,103.9 432.1,80.3 389.7,104.9 								"/>
							</g>
						</g>
					</g>
					<polygon class="st56" points="454.7,113.7 456.5,113.5 456.5,125.5 449.1,130.5 449.2,117.8 					"/>
					<g>
						<polygon class="st60" points="449.2,117.8 456.5,113.5 415.5,89.9 409,93.7 						"/>
					</g>
				</g>
				<g>
					<g>
						<g class="st2">
							<g>
								<polygon class="st56" points="346.5,130.2 346.3,177.3 387.3,200.9 387.4,153.9 								"/>
							</g>
							<g>
								<polygon class="st57" points="387.3,200.9 429.7,176.3 429.8,129.2 387.4,153.9 								"/>
							</g>
							<g>
								<polygon class="st58" points="387.3,200.9 429.7,176.3 429.8,129.2 387.4,153.9 								"/>
							</g>
							<g>
								<polygon class="st59" points="388.8,198.2 399.5,192 399.5,186.8 388.8,192.5 								"/>
							</g>
							<g>
								<polygon class="st57" points="387.4,153.9 429.8,129.2 388.8,105.6 346.5,130.2 								"/>
							</g>
						</g>
					</g>
					<polygon class="st56" points="411.5,139.1 413.3,138.9 413.3,150.8 405.8,155.8 405.9,143.1 					"/>
					<g>
						<polygon class="st60" points="405.9,143.1 413.3,138.9 372.2,115.2 365.7,119 						"/>
					</g>
				</g>
			</g>
		</g>
	</g>
	<g>
		<g>
			<polygon class="st28" points="278.5,357.5 278.5,357.5 279.3,358 			"/>
			<polygon class="st28" points="286.3,362 279.3,358 280,358.3 			"/>
			<path class="st29" d="M274.7,171.1L274.2,355l4.3,2.5c-0.1-0.1-0.3-0.2-0.4-0.3c0.1,0.1,0.3,0.2,0.4,0.3l0.5,9.7l7.3-3.3l0-15.4
				h0l0.6-201.7l-6.3-3.6l0,0l-14.9-8.6l-7.3,5.2L274.7,171.1z"/>
		</g>
		<g>
			<polygon class="st28" points="271.2,362.7 271.2,362.7 272.1,363.2 			"/>
			<polygon class="st28" points="279,367.2 272.1,363.2 272.7,363.5 			"/>
			<path class="st28" d="M267.4,176.3l-0.5,183.9l4.3,2.5c-0.1-0.1-0.3-0.2-0.4-0.3c0.1,0.1,0.3,0.2,0.4,0.3l1.5,0.9l6.3,3.6l0-13.5
				l0,0l0.6-201.7l-6.3-3.6l0,0l-14.9-8.6l-0.1,31.2L267.4,176.3z"/>
		</g>
		<g>
			<g>
				<g>
					<path class="st30" d="M273,163.9c1,0.8,1.8,2.2,1.8,3.5c0,1.2-0.8,1.8-1.8,1.4c-0.1,0-0.2-0.1-0.3-0.1
						c-1.2-0.7-2.1-2.3-2.1-3.7c0-1.4,1-1.9,2.2-1.2C272.8,163.7,272.9,163.8,273,163.9z M272.7,167.4c0.6,0.3,1.1,0.1,1.1-0.6
						c0-0.7-0.5-1.5-1.1-1.8c-0.6-0.3-1.1-0.1-1.1,0.6C271.7,166.2,272.1,167,272.7,167.4L272.7,167.4z"/>
				</g>
				<g>
					<path class="st31" d="M272.7,164.9c-0.6-0.3-1.1-0.1-1.1,0.6c0,0.7,0.5,1.5,1.1,1.9c0.6,0.3,1.1,0.1,1.1-0.6
						C273.8,166.1,273.3,165.2,272.7,164.9z"/>
				</g>
			</g>
			<g>
				<g>
					<path class="st30" d="M273,225c1,0.8,1.8,2.2,1.8,3.5c0,1.2-0.8,1.8-1.8,1.4c-0.1,0-0.2-0.1-0.3-0.1c-1.2-0.7-2.1-2.3-2.1-3.7
						c0-1.4,1-1.9,2.2-1.2C272.8,224.9,272.9,224.9,273,225z M272.7,228.5c0.6,0.3,1.1,0.1,1.1-0.6c0-0.7-0.5-1.5-1.1-1.8
						c-0.6-0.3-1.1-0.1-1.1,0.6C271.7,227.3,272.1,228.1,272.7,228.5L272.7,228.5z"/>
				</g>
				<g>
					<path class="st31" d="M272.7,226c-0.6-0.3-1.1-0.1-1.1,0.6c0,0.7,0.5,1.5,1.1,1.9c0.6,0.3,1.1,0.1,1.1-0.6
						C273.8,227.2,273.3,226.4,272.7,226z"/>
				</g>
			</g>
			<g>
				<g>
					<path class="st30" d="M273,286.1c1,0.8,1.8,2.2,1.8,3.5c0,1.2-0.8,1.8-1.8,1.4c-0.1,0-0.2-0.1-0.3-0.1c-1.1-0.6-2-2.1-2.1-3.4
						C270.4,285.8,271.7,285.1,273,286.1C273,286.1,273,286.1,273,286.1z M272.7,289.6c0.6,0.3,1.1,0.1,1.1-0.6
						c0-0.7-0.5-1.5-1.1-1.8c-0.6-0.3-1.1-0.1-1.1,0.6C271.7,288.4,272.1,289.3,272.7,289.6L272.7,289.6z"/>
				</g>
				<g>
					<path class="st31" d="M272.7,287.1c-0.6-0.3-1.1-0.1-1.1,0.6c0,0.7,0.5,1.5,1.1,1.9c0.6,0.3,1.1,0.1,1.1-0.6
						C273.8,288.3,273.3,287.5,272.7,287.1z"/>
				</g>
			</g>
			<g>
				<g>
					<path class="st30" d="M273,347.2c1,0.8,1.8,2.2,1.8,3.5c0,1.2-0.8,1.8-1.8,1.4c-0.1,0-0.2-0.1-0.3-0.1c-1.1-0.6-2-2.1-2.1-3.4
						C270.4,346.9,271.7,346.2,273,347.2C273,347.2,273,347.2,273,347.2z M272.7,350.7c0.6,0.3,1.1,0.1,1.1-0.6
						c0-0.7-0.5-1.5-1.1-1.8c-0.6-0.3-1.1-0.1-1.1,0.6C271.7,349.5,272.1,350.4,272.7,350.7L272.7,350.7z"/>
				</g>
				<g>
					<path class="st31" d="M272.7,348.2c-0.6-0.3-1.1-0.1-1.1,0.6c0,0.7,0.5,1.5,1.1,1.9c0.6,0.3,1.1,0.1,1.1-0.6
						C273.8,349.4,273.3,348.6,272.7,348.2z"/>
				</g>
			</g>
		</g>
	</g>
</g>
</svg>
