<?xml version="1.0" encoding="utf-8"?>
<!-- Generator: Adobe Illustrator 26.5.0, SVG Export Plug-In . SVG Version: 6.00 Build 0)  -->
<svg version="1.1" id="Capa_1" xmlns="http://www.w3.org/2000/svg" xmlns:xlink="http://www.w3.org/1999/xlink" x="0px" y="0px"
	 viewBox="0 0 1024 488.9" style="enable-background:new 0 0 1024 488.9;" xml:space="preserve">
<style type="text/css">
	.st0{fill:none;}
	.st1{fill:#211915;}
	.st2{font-family:'Roboto-Light';}
	.st3{font-size:22.4px;}
	.st4{font-family:'Roboto-Black';}
	.st5{font-size:39.2px;}
	.st6{fill-rule:evenodd;clip-rule:evenodd;fill:none;stroke:#211915;stroke-width:0.7245;stroke-miterlimit:10;}
</style>
<g>
	<rect x="3.6" y="39.6" class="st0" width="325.4" height="166"/>
	<text transform="matrix(1 0 0 1 3.6367 56.3779)"><tspan x="0" y="0" class="st1 st2 st3">El reemplazo de dicho GLP por </tspan><tspan x="0" y="26.9" class="st1 st2 st3">equipos a celdas de combustible </tspan><tspan x="0" y="53.8" class="st1 st2 st3">a hidrógeno, implicarían la </tspan><tspan x="0" y="80.6" class="st1 st2 st3">reducción de 27.376 toneladas </tspan><tspan x="0" y="107.5" class="st1 st2 st3">año de CO2 aproximadamente.</tspan></text>
</g>
<text transform="matrix(1 0 0 1 3.6382 254.4922)"><tspan x="0" y="0" class="st1 st2 st3">Consumo anual de GLP, ton/ano</tspan><tspan x="0" y="56" class="st1 st2 st3">H2 requerido por año, ton</tspan><tspan x="0" y="112" class="st1 st2 st3">Potencia instalada requerida, MW</tspan><tspan x="0" y="168" class="st1 st2 st3">Reducción emisiones de CO2 al año, ton</tspan></text>
<text transform="matrix(1 0 0 1 592.9756 46.1621)" class="st1 st4 st3">Potencia media consumida, MW</text>
<g>
	<text transform="matrix(1 0 0 1 515.8467 177.3828)" class="st1 st4 st5">2</text>
</g>
<g>
	<text transform="matrix(1 0 0 1 499.6948 254.4922)"><tspan x="0" y="0" class="st1 st2 st3">2.568</tspan><tspan x="0" y="56" class="st1 st2 st3">1.056</tspan><tspan x="6.7" y="112" class="st1 st2 st3">6,43</tspan><tspan x="0" y="168" class="st1 st2 st3">7.376</tspan></text>
</g>
<g>
	<text transform="matrix(1 0 0 1 641.5928 177.3828)" class="st1 st4 st5">0,5</text>
</g>
<g>
	<text transform="matrix(1 0 0 1 650.9551 254.4922)"><tspan x="0" y="0" class="st1 st2 st3">642</tspan><tspan x="0" y="56" class="st1 st2 st3">264</tspan><tspan x="-2.1" y="112" class="st1 st2 st3">1,61</tspan><tspan x="-8.9" y="168" class="st1 st2 st3">1.844</tspan></text>
</g>
<line class="st6" x1="599.6" y1="137.3" x2="599.6" y2="441.6"/>
<g>
	<text transform="matrix(1 0 0 1 800.6025 177.3828)" class="st1 st4 st5">1</text>
</g>
<g>
	<text transform="matrix(1 0 0 1 935.6201 177.3828)" class="st1 st4 st5">3</text>
</g>
<g>
	<text transform="matrix(1 0 0 1 784.4512 254.4922)"><tspan x="0" y="0" class="st1 st2 st3">1.284</tspan><tspan x="8.9" y="56" class="st1 st2 st3">528</tspan><tspan x="6.7" y="112" class="st1 st2 st3">3,21</tspan><tspan x="0" y="168" class="st1 st2 st3">3.688</tspan></text>
</g>
<line class="st6" x1="742" y1="137.3" x2="742" y2="441.6"/>
<g>
	<text transform="matrix(1 0 0 1 926.8281 254.4922)"><tspan x="0" y="0" class="st1 st2 st3">3.852</tspan><tspan x="0" y="56" class="st1 st2 st3">1.583</tspan><tspan x="6.7" y="112" class="st1 st2 st3">9,64</tspan><tspan x="-6.2" y="168" class="st1 st2 st3">11.064</tspan></text>
</g>
<line class="st6" x1="894.4" y1="137.3" x2="894.4" y2="441.6"/>
<path class="st6" d="M738.9,54.7c0,68-201.7,6.1-201.7,74.1"/>
<path class="st6" d="M738.9,54.7c0,50.5-74.6,22.1-74.6,74.1"/>
<path class="st6" d="M738.9,54.7c0,68,201.7,6.1,201.7,74.1"/>
<path class="st6" d="M738.9,54.7c0,50.5,74.6,22.1,74.6,74.1"/>
</svg>
