<?xml version="1.0" encoding="utf-8"?>
<!-- Generator: Adobe Illustrator 26.5.0, SVG Export Plug-In . SVG Version: 6.00 Build 0)  -->
<svg version="1.1" id="Capa_1" xmlns="http://www.w3.org/2000/svg" xmlns:xlink="http://www.w3.org/1999/xlink" x="0px" y="0px"
	 viewBox="0 0 1102.3 560.6" style="enable-background:new 0 0 1102.3 560.6;" xml:space="preserve">
<style type="text/css">
	.st0{fill:none;}
	.st1{fill:#211915;}
	.st2{font-family:'Roboto-Light';}
	.st3{font-size:22.4px;}
	.st4{font-size:39.2px;}
	.st5{fill-rule:evenodd;clip-rule:evenodd;fill:none;stroke:#211915;stroke-width:0.7245;stroke-miterlimit:10;}
	.st6{fill:#E2DEDA;}
	.st7{fill:#B0ACA4;}
	.st8{fill:#9D9892;}
	.st9{fill:#D4CEC4;}
	.st10{opacity:0.3;fill:#050006;}
	.st11{fill:#EAE5E0;}
	.st12{fill:#7C6D68;}
	.st13{fill:#504642;}
	.st14{fill:#3F3733;}
	.st15{fill:#635750;}
	.st16{fill:#919295;}
	.st17{fill:#DEDCDA;}
</style>
<g>
	<rect x="3" y="103.5" class="st0" width="325.4" height="206"/>
	<text transform="matrix(1 0 0 1 2.9998 120.3291)"><tspan x="0" y="0" class="st1 st2 st3">El reemplazo del GN por </tspan><tspan x="0" y="26.9" class="st1 st2 st3">hidrógeno, implicarían la </tspan><tspan x="0" y="53.8" class="st1 st2 st3">reducción anual de 12 millones </tspan><tspan x="0" y="80.6" class="st1 st2 st3">de toneladas de CO2 </tspan><tspan x="0" y="107.5" class="st1 st2 st3">aproximadamente y, requerirían </tspan><tspan x="0" y="134.4" class="st1 st2 st3">de la disponibilidad de 3.167 </tspan><tspan x="0" y="161.3" class="st1 st2 st3">toneladas de hidrógeno anuales.</tspan></text>
</g>
<text transform="matrix(1 0 0 1 3 358.4355)"><tspan x="0" y="0" class="st1 st2 st3">Consumo GN en año, kg/año</tspan><tspan x="0" y="56" class="st1 st2 st3">Consumo H2 al año, ton/año</tspan><tspan x="0" y="112" class="st1 st2 st3">Potencia instalada requerida de electrolizadores, MW</tspan><tspan x="0" y="168" class="st1 st2 st3">Reducción emisiones de CO2 al año, M ton/año</tspan></text>
<text transform="matrix(1 0 0 1 649.429 150.1074)" class="st1 st2 st3">Número de calderas</text>
<g>
	<text transform="matrix(1 0 0 1 440.1654 281.3281)" class="st1 st2 st4">x1</text>
</g>
<g>
	<text transform="matrix(1 0 0 1 411.7625 358.4355)"><tspan x="0" y="0" class="st1 st2 st3">4.025.355</tspan><tspan x="21.3" y="56" class="st1 st2 st3">3.167</tspan><tspan x="21.8" y="112" class="st1 st2 st3">19,28</tspan><tspan x="36.4" y="168" class="st1 st2 st3">12</tspan></text>
</g>
<g>
	<text transform="matrix(1 0 0 1 600.8177 281.3281)" class="st1 st2 st4">x200</text>
</g>
<g>
	<text transform="matrix(1 0 0 1 560.43 358.4355)"><tspan x="0" y="0" class="st1 st2 st3">161.014.190.982</tspan><tspan x="21.3" y="56" class="st1 st2 st3">126.665.863</tspan><tspan x="28" y="112" class="st1 st2 st3">771.177,25</tspan><tspan x="42.6" y="168" class="st1 st2 st3">495.932</tspan></text>
</g>
<line class="st5" x1="553" y1="241.2" x2="553" y2="545.6"/>
<g>
	<text transform="matrix(1 0 0 1 783.1966 281.3281)" class="st1 st2 st4">x100</text>
</g>
<g>
	<text transform="matrix(1 0 0 1 969.0765 281.3281)" class="st1 st2 st4">x50</text>
</g>
<g>
	<text transform="matrix(1 0 0 1 749.0159 358.4355)"><tspan x="0" y="0" class="st1 st2 st3">40.253.547.746</tspan><tspan x="21.3" y="56" class="st1 st2 st3">31.666.466</tspan><tspan x="21.8" y="112" class="st1 st2 st3">192.794,31</tspan><tspan x="36.4" y="168" class="st1 st2 st3">123.983</tspan></text>
</g>
<line class="st5" x1="735.4" y1="241.2" x2="735.4" y2="545.6"/>
<g>
	<text transform="matrix(1 0 0 1 931.3929 358.4355)"><tspan x="0" y="0" class="st1 st2 st3">10.063.386.936</tspan><tspan x="27.5" y="56" class="st1 st2 st3">7.916.616</tspan><tspan x="28" y="112" class="st1 st2 st3">48.198,58</tspan><tspan x="42.6" y="168" class="st1 st2 st3">30.996</tspan></text>
</g>
<line class="st5" x1="917.7" y1="241.2" x2="917.7" y2="545.6"/>
<path class="st5" d="M732.3,158.7c0,68-261.7,6.1-261.7,74.1"/>
<path class="st5" d="M732.3,158.7c0,50.5-94.6,22.1-94.6,74.1"/>
<path class="st5" d="M732.3,158.7c0,68,261.7,6.1,261.7,74.1"/>
<path class="st5" d="M732.3,158.7c0,50.5,94.6,22.1,94.6,74.1"/>
<g>
	<g>
		<g>
			<g>
				<g>
					<polygon class="st6" points="714.8,108.2 713.8,107.7 712.5,107.7 711.5,108.2 711.5,109 712.5,109.6 713.8,109.6 714.8,109 
											"/>
					<rect x="712.5" y="109.6" class="st7" width="1.4" height="0.9"/>
					<polygon class="st8" points="714.8,110 713.8,110.5 713.8,109.6 714.8,109 					"/>
					<polygon class="st9" points="711.5,110 712.5,110.5 712.5,109.6 711.5,109 					"/>
				</g>
				<g>
					<polygon class="st6" points="714.4,96.7 713.7,96.2 712.6,96.2 711.8,96.7 711.8,97.3 712.6,97.7 713.7,97.7 714.4,97.3 					
						"/>
					<rect x="712.6" y="97.7" class="st7" width="1.1" height="11.6"/>
					<polygon class="st8" points="714.4,108.9 713.7,109.3 713.7,97.7 714.4,97.3 					"/>
					<polygon class="st9" points="711.8,108.9 712.6,109.3 712.6,97.7 711.8,97.3 					"/>
				</g>
			</g>
			<g>
				<g>
					<polygon class="st6" points="736.5,108.2 735.6,107.7 734.2,107.7 733.3,108.2 733.3,109 734.2,109.6 735.6,109.6 736.5,109 
											"/>
					<rect x="734.2" y="109.6" class="st7" width="1.4" height="0.9"/>
					<polygon class="st8" points="736.5,110 735.6,110.5 735.6,109.6 736.5,109 					"/>
					<polygon class="st9" points="733.3,110 734.2,110.5 734.2,109.6 733.3,109 					"/>
				</g>
				<g>
					<polygon class="st6" points="736.2,96.7 735.4,96.2 734.4,96.2 733.6,96.7 733.6,97.3 734.4,97.7 735.4,97.7 736.2,97.3 					
						"/>
					<rect x="734.4" y="97.7" class="st7" width="1.1" height="11.6"/>
					<polygon class="st8" points="736.2,108.9 735.4,109.3 735.4,97.7 736.2,97.3 					"/>
					<polygon class="st9" points="733.6,108.9 734.4,109.3 734.4,97.7 733.6,97.3 					"/>
				</g>
			</g>
			<g>
				<g>
					<polygon class="st6" points="751.9,99.3 751,98.8 749.6,98.8 748.7,99.3 748.7,100.1 749.6,100.7 751,100.7 751.9,100.1 					
						"/>
					<rect x="749.6" y="100.7" class="st7" width="1.4" height="0.9"/>
					<polygon class="st8" points="751.9,101.1 751,101.6 751,100.7 751.9,100.1 					"/>
					<polygon class="st9" points="748.7,101.1 749.6,101.6 749.6,100.7 748.7,100.1 					"/>
				</g>
				<g>
					<polygon class="st6" points="751.6,87.8 750.9,87.3 749.8,87.3 749,87.8 749,88.4 749.8,88.8 750.9,88.8 751.6,88.4 					"/>
					<rect x="749.8" y="88.8" class="st7" width="1.1" height="11.6"/>
					<polygon class="st8" points="751.6,100 750.9,100.4 750.9,88.8 751.6,88.4 					"/>
					<polygon class="st9" points="749,100 749.8,100.4 749.8,88.8 749,88.4 					"/>
				</g>
			</g>
			<g>
				<g>
					<polygon class="st6" points="699.4,99.3 698.4,98.8 697.1,98.8 696.1,99.3 696.1,100.1 697.1,100.7 698.4,100.7 699.4,100.1 
											"/>
					<rect x="697.1" y="100.7" class="st7" width="1.4" height="0.9"/>
					<polygon class="st8" points="699.4,101.1 698.4,101.6 698.4,100.7 699.4,100.1 					"/>
					<polygon class="st9" points="696.1,101.1 697.1,101.6 697.1,100.7 696.1,100.1 					"/>
				</g>
				<g>
					<polygon class="st6" points="699,87.8 698.3,87.3 697.2,87.3 696.4,87.8 696.4,88.4 697.2,88.8 698.3,88.8 699,88.4 					"/>
					<rect x="697.2" y="88.8" class="st7" width="1.1" height="11.6"/>
					<polygon class="st8" points="699,100 698.3,100.4 698.3,88.8 699,88.4 					"/>
					<polygon class="st9" points="696.4,100 697.2,100.4 697.2,88.8 696.4,88.4 					"/>
				</g>
			</g>
		</g>
		<polygon class="st10" points="752,87.7 735.6,78.2 712.4,78.2 696.1,87.7 696.1,101.1 712.4,110.5 735.6,110.5 752,101.1 		"/>
		<g>
			<polygon class="st6" points="751.8,75.4 735.5,66 712.5,66 696.2,75.4 696.2,88.7 712.5,98.1 735.5,98.1 751.8,88.7 			"/>
			<rect x="712.5" y="98.1" class="st7" width="23" height="1.7"/>
			<polygon class="st8" points="751.8,90.4 735.5,99.8 735.5,98.1 751.8,88.7 			"/>
			<polygon class="st9" points="696.2,90.4 712.5,99.8 712.5,98.1 696.2,88.7 			"/>
		</g>
		<g>
			<polygon class="st8" points="750.3,31.9 750.3,88.1 734.9,97 729.1,37.7 			"/>
			<polygon class="st7" points="734.9,40.8 734.9,97 713.1,97 697.7,31.9 			"/>
			<polygon class="st9" points="713.1,40.8 713.1,97 697.7,88.1 697.7,31.9 			"/>
			<polygon class="st9" points="732.5,30.8 715.6,30.8 713.1,40.8 734.9,40.8 			"/>
			<polygon class="st7" points="744.4,23.9 732.5,30.8 734.9,40.8 750.3,31.9 			"/>
			<polygon class="st8" points="744.4,14.1 744.4,23.9 750.3,31.9 750.3,19.3 			"/>
			<polygon class="st6" points="715.6,30.8 703.6,23.9 697.7,31.9 713.1,40.8 			"/>
			<polygon class="st9" points="703.6,23.9 703.6,14.1 697.7,19.3 697.7,31.9 			"/>
			<polygon class="st11" points="732.5,7.2 715.6,7.2 703.6,14.1 703.6,23.9 715.6,30.8 732.5,30.8 744.4,23.9 744.4,14.1 			"/>
		</g>
	</g>
	<g>
		<g>
			<polygon class="st12" points="770.4,109.8 763.6,105.9 754,105.9 747.2,109.8 747.2,115.3 754,119.2 763.6,119.2 770.4,115.3 			
				"/>
			<rect x="754" y="119.2" class="st13" width="9.6" height="2"/>
			<polygon class="st14" points="770.4,117.3 763.6,121.2 763.6,119.2 770.4,115.3 			"/>
			<polygon class="st15" points="747.2,117.3 754,121.2 754,119.2 747.2,115.3 			"/>
		</g>
		<g>
			<polygon class="st6" points="769.6,61.5 763.3,57.8 754.4,57.8 748.1,61.5 748.1,66.6 754.4,70.2 763.3,70.2 769.6,66.6 			"/>
			<rect x="754.4" y="70.2" class="st7" width="8.9" height="48.3"/>
			<polygon class="st8" points="769.6,114.9 763.3,118.5 763.3,70.2 769.6,66.6 			"/>
			<polygon class="st9" points="748.1,114.9 754.4,118.5 754.4,70.2 748.1,66.6 			"/>
		</g>
	</g>
	<g>
		<polygon class="st6" points="795.5,99.5 767.5,83.3 765.4,84.5 793.4,101.6 		"/>
		<polygon class="st9" points="793.4,100.7 765.4,84.5 763.8,87.1 791.9,105.8 		"/>
		<polygon class="st7" points="791.9,103.4 763.8,87.1 763.8,89.6 791.9,105.8 		"/>
		<polygon class="st16" points="793.4,106.7 791.9,105.8 791.9,103.4 793.4,100.7 795.5,99.5 797.1,100.4 797,102.8 795.5,105.4 		
			"/>
	</g>
	<g>
		<g>
			<g>
				<polygon class="st14" points="762.3,63.9 762.3,64.6 760.1,65.9 759.4,64.7 				"/>
				<polygon class="st13" points="760.1,65.2 760.1,65.9 757.1,65.9 754.9,63.9 				"/>
				<polygon class="st15" points="757.1,65.2 757.1,65.9 754.9,64.6 754.9,63.9 				"/>
				<polygon class="st12" points="754.9,62.2 754.9,63.9 757.1,65.2 760.1,65.2 762.3,63.9 762.3,62.2 760.1,60.9 757.1,60.9 				
					"/>
			</g>
			<g>
				<polygon class="st9" points="757.3,54.6 757.7,57.5 757.3,64.7 755.5,63.6 755.5,55.6 				"/>
				<polygon class="st7" points="759.9,53.1 760.6,57.3 759.9,64.7 757.3,64.7 757.3,54.6 757.6,53.1 				"/>
				<polygon class="st8" points="759.9,53.1 759.9,64.7 761.7,63.6 761.7,52 760.2,52.2 				"/>
			</g>
		</g>
		<g>
			<polygon class="st12" points="744.1,41.2 743.5,40.8 741.4,42.1 742,43.3 			"/>
			<polygon class="st15" points="742,42.4 741.4,42.1 739.8,44.7 740.4,47.6 			"/>
			<polygon class="st13" points="740.4,45.1 739.8,44.7 739.8,47.2 740.4,47.6 			"/>
			<polygon class="st14" points="742,48.4 740.4,47.6 740.4,45.1 742,42.4 744.1,41.2 745.7,42.1 745.7,44.5 744.1,47.2 			"/>
		</g>
		<g>
			<polygon class="st17" points="761.7,52 744,41.8 742.2,42.8 746.9,46.8 750.1,48.2 759.9,53.1 			"/>
			<polygon class="st7" points="759.9,53.1 742.2,42.8 740.9,45.1 744.2,47.8 757.3,54.6 			"/>
			<polygon class="st9" points="757.3,54.6 740.9,45.1 740.9,47.2 755.5,55.6 756.4,56.2 			"/>
		</g>
	</g>
</g>
</svg>
