<?xml version="1.0" encoding="utf-8"?>
<!-- Generator: Adobe Illustrator 26.5.0, SVG Export Plug-In . SVG Version: 6.00 Build 0)  -->
<svg version="1.1" id="Capa_1" xmlns="http://www.w3.org/2000/svg" xmlns:xlink="http://www.w3.org/1999/xlink" x="0px" y="0px"
	 viewBox="0 0 1024 446" style="enable-background:new 0 0 1024 446;" xml:space="preserve">
<style type="text/css">
	.st0{fill:none;}
	.st1{fill:#211915;}
	.st2{font-family:'Merriweather-Regular';}
	.st3{font-size:21px;}
	.st4{font-family:'AlegreyaSans-Regular';}
	.st5{font-size:21.9252px;}
	.st6{font-family:'AlegreyaSans-Light';}
	.st7{font-family:'AlegreyaSans-Bold';}
	.st8{font-size:38.3691px;}
	.st9{fill-rule:evenodd;clip-rule:evenodd;fill:none;stroke:#211915;stroke-width:0.8222;stroke-miterlimit:10;}
</style>
<g>
	<rect x="36.8" y="24" class="st0" width="318.5" height="162.5"/>
	<text transform="matrix(1 0 0 1 36.7705 41.1543)"><tspan x="0" y="0" class="st1 st2 st3">El reemplazo de dichos buses a </tspan><tspan x="0" y="25.2" class="st1 st2 st3">combustión diésel por buses a </tspan><tspan x="0" y="50.4" class="st1 st2 st3">celdas de combustible a hidró</tspan><tspan x="304.8" y="50.4" class="st1 st2 st3">-</tspan><tspan x="0" y="75.6" class="st1 st2 st3">geno, implicarían la reducción </tspan><tspan x="0" y="100.8" class="st1 st2 st3">de 14.500 toneladas de CO2 </tspan><tspan x="0" y="126" class="st1 st2 st3">aproximadamente.</tspan></text>
</g>
<text transform="matrix(1 0 0 1 2.0234 234.3184)"><tspan x="0" y="0" class="st1 st4 st5">Consumo combustible flota al año, l/año</tspan><tspan x="57.4" y="54.8" class="st1 st4 st5">Consumo H2 flota al año, ton/año</tspan><tspan x="46.2" y="109.6" class="st1 st4 st5">Potencia instalada requerida,  MW </tspan><tspan x="61.1" y="164.4" class="st1 st4 st5">Emisión de CO2 año, ton CO2/año</tspan></text>
<g>
	<text transform="matrix(1 0 0 1 412.1885 104.0293)"><tspan x="0" y="0" class="st1 st6 st5">Un auto</tspan><tspan x="-8.2" y="27.4" class="st1 st6 st5">compacto</tspan></text>
</g>
<g>
	<text transform="matrix(1 0 0 1 597.8516 104.0293)"><tspan x="0" y="0" class="st1 st7 st8">100</tspan><tspan x="2.9" y="27.4" class="st1 st6 st5">buses</tspan></text>
</g>
<g>
	<text transform="matrix(1 0 0 1 921.1377 104.0293)"><tspan x="0" y="0" class="st1 st7 st8">10</tspan><tspan x="-7.1" y="27.4" class="st1 st6 st5">buses</tspan></text>
</g>
<g>
	<text transform="matrix(1 0 0 1 762.8545 104.0293)"><tspan x="0" y="0" class="st1 st7 st8">50</tspan><tspan x="-5.7" y="27.4" class="st1 st6 st5">buses</tspan></text>
</g>
<g>
	<text transform="matrix(1 0 0 1 413.5264 234.3184)"><tspan x="0" y="0" class="st1 st4 st5">1.300 lt </tspan><tspan x="-0.8" y="164.4" class="st1 st4 st5">3,63 ton</tspan></text>
</g>
<g>
	<text transform="matrix(1 0 0 1 583.3535 234.3184)"><tspan x="0" y="0" class="st1 st4 st5">5.475.000</tspan><tspan x="25.9" y="54.8" class="st1 st4 st5">998</tspan><tspan x="11.2" y="109.6" class="st1 st4 st5">22 MW</tspan><tspan x="15.1" y="164.4" class="st1 st4 st5">27.359</tspan></text>
</g>
<g>
	<text transform="matrix(1 0 0 1 904.9434 234.3184)"><tspan x="0" y="0" class="st1 st4 st5">547.500</tspan><tspan x="22.8" y="54.8" class="st1 st4 st5">99</tspan><tspan x="7.9" y="109.6" class="st1 st4 st5">2 MW</tspan><tspan x="11.4" y="164.4" class="st1 st4 st5">2.736</tspan></text>
</g>
<g>
	<text transform="matrix(1 0 0 1 741.3105 234.3184)"><tspan x="0" y="0" class="st1 st4 st5">2.737.500</tspan><tspan x="24.2" y="54.8" class="st1 st4 st5">499</tspan><tspan x="12" y="109.6" class="st1 st4 st5">11 MW</tspan><tspan x="12.9" y="164.4" class="st1 st4 st5">13.680</tspan></text>
</g>
<image style="overflow:visible;" width="109" height="97" xlink:href="FBF2407D6DF5091B.jpg"  transform="matrix(0.48 0 0 0.48 420.48 23.6)">
</image>
<line class="st9" x1="37.3" y1="256.8" x2="1019.6" y2="256.8"/>
<line class="st9" x1="37.3" y1="310.5" x2="1019.6" y2="310.5"/>
<line class="st9" x1="37.3" y1="364.3" x2="1019.6" y2="364.3"/>
<line class="st9" x1="536.7" y1="17" x2="536.7" y2="417.5"/>
<line class="st9" x1="707.1" y1="17" x2="707.1" y2="417.5"/>
<line class="st9" x1="861.4" y1="17" x2="861.4" y2="417.5"/>
<image style="overflow:visible;" width="93" height="98" xlink:href="FBF2407D6DF50919.jpg"  transform="matrix(0.48 0 0 0.48 915.84 13.04)">
</image>
<image style="overflow:visible;" width="93" height="98" xlink:href="FBF2407D6DF5091F.jpg"  transform="matrix(0.48 0 0 0.48 603.2596 13.04)">
</image>
<image style="overflow:visible;" width="93" height="98" xlink:href="FBF2407D6DF50918.jpg"  transform="matrix(0.48 0 0 0.48 759.2119 13.04)">
</image>
</svg>
