<?xml version="1.0" encoding="utf-8"?>
<!-- Generator: Adobe Illustrator 26.5.0, SVG Export Plug-In . SVG Version: 6.00 Build 0)  -->
<svg version="1.1" id="Capa_1" xmlns="http://www.w3.org/2000/svg" xmlns:xlink="http://www.w3.org/1999/xlink" x="0px" y="0px"
	 viewBox="0 0 1024 488.9" style="enable-background:new 0 0 1024 488.9;" xml:space="preserve">
<style type="text/css">
	.st0{fill:none;}
	.st1{fill:#211915;}
	.st2{font-family:'Roboto-Light';}
	.st3{font-size:22.0031px;}
	.st4{font-size:38.5054px;}
	.st5{fill:none;stroke:#211915;stroke-width:0.8251;stroke-miterlimit:10;}
</style>
<g>
	<rect x="14.4" y="45.5" class="st0" width="319.7" height="163"/>
	<text transform="matrix(1 0 0 1 14.3843 60.9058)" class="st1 st2 st3">El reemplazo de dichos camiones </text>
	<text transform="matrix(1 0 0 1 14.3843 87.3058)" class="st1 st2 st3">recolectores de basura a combustión </text>
	<text transform="matrix(1 0 0 1 14.3843 113.7058)" class="st1 st2 st3">diésel por camiones a celdas de </text>
	<text transform="matrix(1 0 0 1 14.3843 140.1058)" class="st1 st2 st3">combustible a hidrógeno, implicarían </text>
	<text transform="matrix(1 0 0 1 14.3843 166.5058)" class="st1 st2 st3">la </text>
	<text transform="matrix(1 0 0 1 33.5843 166.5058)" class="st1 st2 st3">reducción de 4.300 toneladas de </text>
	<text transform="matrix(1 0 0 1 14.3843 192.9058)" class="st1 st2 st3">CO2</text>
	<text transform="matrix(1 0 0 1 50.2843 192.9058)" class="st1 st2 st3"> aproximadamente </text>
</g>
<text transform="matrix(1 0 0 1 10 256.5674)" class="st1 st2 st3">Consumo combustible flota al año, l/año</text>
<text transform="matrix(1 0 0 1 9.9999 311.5674)" class="st1 st2 st3">Consumo H2 flota al año, ton/año</text>
<text transform="matrix(1 0 0 1 10.0001 366.5674)" class="st1 st2 st3">Potencia instalada requerida,  MW </text>
<text transform="matrix(1 0 0 1 10.0002 421.5674)" class="st1 st2 st3">Emisión de CO2 año, ton CO2/año</text>
<g>
	<text transform="matrix(1 0 0 1 429.1333 125.8164)" class="st1 st2 st3">Un auto</text>
	<text transform="matrix(1 0 0 1 420.9333 153.3164)" class="st1 st2 st3">compacto</text>
</g>
<g>
	<text transform="matrix(1 0 0 1 606.4473 125.8164)" class="st1 st2 st4">47</text>
	<text transform="matrix(1 0 0 1 584.0473 153.3164)" class="st1 st2 st3">camiones</text>
</g>
<g>
	<text transform="matrix(1 0 0 1 929.5537 125.8164)" class="st1 st2 st4">9</text>
	<text transform="matrix(1 0 0 1 898.4537 153.3164)" class="st1 st2 st3">camiones</text>
</g>
<g>
	<text transform="matrix(1 0 0 1 764.0264 125.8164)" class="st1 st2 st4">23</text>
	<text transform="matrix(1 0 0 1 741.0264 153.3164)" class="st1 st2 st3">camiones</text>
</g>
<g>
	<text transform="matrix(1 0 0 1 430.4756 256.5674)" class="st1 st2 st3">1.300 lt </text>
	<text transform="matrix(1 0 0 1 429.6756 421.5674)" class="st1 st2 st3">3,63 ton</text>
</g>
<g>
	<text transform="matrix(1 0 0 1 586.4502 256.5674)" class="st1 st2 st3">1.641.979</text>
	<text transform="matrix(1 0 0 1 611.8502 311.5674)" class="st1 st2 st3">112</text>
	<text transform="matrix(1 0 0 1 591.2502 366.5674)" class="st1 st2 st3">0,7 MW</text>
	<text transform="matrix(1 0 0 1 601.9502 421.5674)" class="st1 st2 st3">3.072</text>
</g>
<g>
	<text transform="matrix(1 0 0 1 908.6436 256.5674)" class="st1 st2 st3">314.421</text>
	<text transform="matrix(1 0 0 1 930.0436 311.5674)" class="st1 st2 st3">21</text>
	<text transform="matrix(1 0 0 1 906.4436 366.5674)" class="st1 st2 st3">0,1 MW</text>
	<text transform="matrix(1 0 0 1 923.8436 421.5674)" class="st1 st2 st3">588</text>
</g>
<g>
	<text transform="matrix(1 0 0 1 749.9287 256.5674)" class="st1 st2 st3">803.521</text>
	<text transform="matrix(1 0 0 1 772.2287 311.5674)" class="st1 st2 st3">55</text>
	<text transform="matrix(1 0 0 1 748.2287 366.5674)" class="st1 st2 st3">0,3 MW</text>
	<text transform="matrix(1 0 0 1 760.1287 421.5674)" class="st1 st2 st3">1.503</text>
</g>
<line class="st5" x1="34.9" y1="279.1" x2="1020.7" y2="279.1"/>
<line class="st5" x1="34.9" y1="333.1" x2="1020.7" y2="333.1"/>
<line class="st5" x1="34.9" y1="387" x2="1020.7" y2="387"/>
<line class="st5" x1="536.1" y1="38.5" x2="536.1" y2="440.4"/>
<line class="st5" x1="707.1" y1="38.5" x2="707.1" y2="440.4"/>
<line class="st5" x1="862" y1="38.5" x2="862" y2="440.4"/>
<image style="overflow:visible;enable-background:new    ;" width="218" height="265" xlink:href="../../infografia-plegada/trashtruck-frente.png"  transform="matrix(0.2799 0 0 0.2799 593.8422 7.0524)">
</image>
<image style="overflow:visible;enable-background:new    ;" width="218" height="265" xlink:href="../../infografia-plegada/trashtruck-frente.png"  transform="matrix(0.2799 0 0 0.2799 754.0369 7.0524)">
</image>
<image style="overflow:visible;enable-background:new    ;" width="218" height="265" xlink:href="../../infografia-plegada/trashtruck-frente.png"  transform="matrix(0.2799 0 0 0.2799 907.5657 7.0524)">
</image>
<image style="overflow:visible;enable-background:new    ;" width="108" height="97" xlink:href="FBF2407D6DF5091B.jpg"  transform="matrix(0.4825 0 0 0.4825 438.5869 46.4804)">
</image>
</svg>
