<?xml version="1.0" encoding="utf-8"?>
<!-- Generator: Adobe Illustrator 26.5.0, SVG Export Plug-In . SVG Version: 6.00 Build 0)  -->
<svg version="1.1" id="Capa_1" xmlns="http://www.w3.org/2000/svg" xmlns:xlink="http://www.w3.org/1999/xlink" x="0px" y="0px"
	 viewBox="0 0 1024 488.9" style="enable-background:new 0 0 1024 488.9;" xml:space="preserve">
<style type="text/css">
	.st0{fill:none;}
	.st1{fill:#211915;}
	.st2{font-family:'Roboto-Light';}
	.st3{font-size:22px;}
	.st4{font-size:22.4px;}
	.st5{font-family:'Roboto-Black';}
	.st6{font-size:39.2px;}
	.st7{fill-rule:evenodd;clip-rule:evenodd;fill:none;stroke:#211915;stroke-width:0.8486;stroke-miterlimit:10;}
	.st8{fill-rule:evenodd;clip-rule:evenodd;fill:none;stroke:#211915;stroke-width:0.84;stroke-miterlimit:10;}
	.st9{fill:#DD9F3A;}
	.st10{fill:#F2D87F;}
	.st11{fill:#EBC66A;}
	.st12{fill:#5FAAB0;}
	.st13{fill:#E6B759;}
	.st14{fill:#42518A;}
	.st15{fill:#2F4279;}
	.st16{fill:#5661A1;}
	.st17{fill:#D3DFEF;}
</style>
<g>
	<rect x="7.8" y="11.9" class="st0" width="377.1" height="237.7"/>
	<text transform="matrix(1 0 0 1 7.7983 28.3589)"><tspan x="0" y="0" class="st1 st2 st3">El reemplazo de combustible Diésel </tspan><tspan x="0" y="26.4" class="st1 st2 st3">por FC requeriría de la disponibilidad </tspan><tspan x="0" y="52.8" class="st1 st2 st3">de 51,8 millones de toneladas de </tspan><tspan x="0" y="79.2" class="st1 st2 st3">hidrógeno anuales. Para lo anterior </tspan><tspan x="0" y="105.6" class="st1 st2 st3">sería necesario contar con una </tspan><tspan x="0" y="132" class="st1 st2 st3">potencia instalada de un electrolizador </tspan><tspan x="0" y="158.4" class="st1 st2 st3">de 315 mil MW aproximadamente.</tspan></text>
</g>
<text transform="matrix(1 0 0 1 7.7985 256.7754)"><tspan x="0" y="0" class="st1 st2 st4">Consumo combustible flota al año, l/año</tspan><tspan x="0" y="56" class="st1 st2 st4">Consumo H2 flota al año, ton/año</tspan><tspan x="0" y="112" class="st1 st2 st4">Potencia instalada requerida,  MW </tspan><tspan x="0" y="168" class="st1 st2 st4">Emisión de CO2 año, ton CO2/año</tspan></text>
<g>
	<text transform="matrix(1 0 0 1 435.3462 123.666)"><tspan x="0" y="0" class="st1 st2 st4">Un auto</tspan><tspan x="-11.6" y="28" class="st1 st2 st4">compacto</tspan></text>
</g>
<g>
	<text transform="matrix(1 0 0 1 577.1807 123.666)"><tspan x="0" y="0" class="st1 st5 st6">1.200</tspan><tspan x="3.2" y="28" class="st1 st2 st4">camiones</tspan></text>
</g>
<g>
	<text transform="matrix(1 0 0 1 914.5332 123.666)"><tspan x="0" y="0" class="st1 st5 st6">240</tspan><tspan x="-14" y="28" class="st1 st2 st4">camiones</tspan></text>
</g>
<g>
	<text transform="matrix(1 0 0 1 754.2305 123.666)"><tspan x="0" y="0" class="st1 st5 st6">600</tspan><tspan x="-14" y="28" class="st1 st2 st4">camiones</tspan></text>
</g>
<g>
	<text transform="matrix(1 0 0 1 434.5479 256.7754)"><tspan x="0" y="0" class="st1 st2 st4">1.300 lt </tspan><tspan x="-0.5" y="168" class="st1 st2 st4">3,63 ton</tspan></text>
</g>
<g>
	<text transform="matrix(1 0 0 1 582.6885 256.7754)"><tspan x="0" y="0" class="st1 st2 st4">1.314 ML</tspan><tspan x="-9.2" y="56" class="st1 st2 st4">51.809.886</tspan><tspan x="-16.6" y="112" class="st1 st2 st4">315.433 MW</tspan><tspan x="-19" y="168" class="st1 st2 st4">3,47 millones</tspan></text>
</g>
<g>
	<text transform="matrix(1 0 0 1 911.6484 256.7754)"><tspan x="0" y="0" class="st1 st2 st4">263 ML</tspan><tspan x="-18.1" y="56" class="st1 st2 st4">10.361.977</tspan><tspan x="-19.2" y="112" class="st1 st2 st4">63.087 MW</tspan><tspan x="-27.9" y="168" class="st1 st2 st4">0,69 millones</tspan></text>
</g>
<g>
	<text transform="matrix(1 0 0 1 751.3457 256.7754)"><tspan x="0" y="0" class="st1 st2 st4">657 ML</tspan><tspan x="-18.1" y="56" class="st1 st2 st4">25.904.943</tspan><tspan x="-25.4" y="112" class="st1 st2 st4">157.717 MW</tspan><tspan x="-27.9" y="168" class="st1 st2 st4">1,73 millones</tspan></text>
</g>
<image style="overflow:visible;" width="64" height="56" xlink:href="FC031696E211B1AE.jpg"  transform="matrix(1 0 0 1 437 36.9)">
</image>
<line class="st7" x1="7.8" y1="279.7" x2="1032" y2="279.7"/>
<line class="st7" x1="7.8" y1="334.7" x2="1032" y2="334.7"/>
<line class="st7" x1="7.8" y1="389.6" x2="1032" y2="389.6"/>
<line class="st8" x1="538.6" y1="34.8" x2="538.6" y2="443.9"/>
<line class="st8" x1="712.7" y1="34.8" x2="712.7" y2="443.9"/>
<line class="st8" x1="870.3" y1="34.8" x2="870.3" y2="443.9"/>
<g>
	<path class="st9" d="M653.1,62.2l-1.3,4.1l1.3,4.1l2,1.3l2-1.3v-8.1l-2-1.3L653.1,62.2z"/>
	<path class="st10" d="M659.2,60.1v1.2c0,0.5-0.4,0.9-0.9,0.9h-8.5l-5.4-2.8h-10.7l6.7-16.3l2-1.3h8c0.4,0,0.7,0.3,0.9,0.6l3.8,11.4
		c0,0.1,0,0.2,0,0.3v3c0,0.5,0.4,0.9,0.9,0.9L659.2,60.1z"/>
	<path class="st11" d="M638.9,42.4l-6.5,15.7l1.3,1.3l2-1.3l6.7-16.3h-2.7C639.4,41.9,639,42.1,638.9,42.4L638.9,42.4z"/>
	<path class="st12" d="M638.9,52.8l2.6-6.3c0.1-0.3,0.5-0.6,0.8-0.6h5.1c0.4,0,0.8,0.3,0.9,0.6l2,6.3c0.2,0.6-0.2,1.2-0.9,1.2h-9.8
		C639.1,54.1,638.6,53.4,638.9,52.8L638.9,52.8z"/>
	<g>
		<path class="st13" d="M659.2,59.1v1h-12.7c-0.5,0-1-0.4-1-1s0.4-1,1-1h11.8C658.8,58.1,659.2,58.5,659.2,59.1z"/>
	</g>
	<path class="st14" d="M653.1,62.2v8.1l-2,0.9l-19.7,1.9h-17.7l-11.5-10.2l0-3.8l1.3-1l-1.3-1l0-7.1h6.1l19.2,8.3l4.8-0.2h14.2
		c0.2,0,0.5,0.1,0.6,0.3l3.5,3.5c0.2,0.2,0.4,0.3,0.6,0.3L653.1,62.2L653.1,62.2z"/>
	<g>
		<path class="st15" d="M620.2,58.1c0,0.5-0.4,1-1,1h-17l0-2h17C619.8,57.2,620.2,57.6,620.2,58.1L620.2,58.1z"/>
	</g>
	<path class="st15" d="M658.3,74.4h-8.6v-4.1h8.6c0.5,0,0.9,0.4,0.9,0.9v2.2C659.2,74,658.8,74.4,658.3,74.4z"/>
	<path class="st15" d="M625,70.3h7.6v4.1H625V70.3z"/>
	<path class="st15" d="M612.4,70.3h7.6v4.1h-7.6V70.3z"/>
	<path class="st10" d="M654.5,35l-1.1,2.2c-0.2,0.3-0.5,0.5-0.8,0.5l-15.8,0c-0.4,0-0.7,0.2-0.8,0.6l-2.7,6.6l-1.7,1l0.9,1
		l-5.8,13.8c0,0-1,0.6-1.5,0.4l-1.5-0.6l-2-0.8l-6.2-2.6l-2-0.8l-6.2-2.6l-2-0.8l-6.6-2.8c-0.1-0.1-0.1-0.1-0.2-0.1l-2.2-0.3
		c-0.5,0-0.9-0.1-0.9-0.7v-2.8c0-0.2,0.1-0.5,0.3-0.6l0.7-0.7l2.8-2.8c0.2-0.2,0.4-0.1,0.6-0.1l2.6-0.1h23.6c0.3,0,0.7-0.2,0.8-0.5
		l3.6-7.1c0.2-0.3,0.5-0.5,0.8-0.5l22.4,0C654.3,33.7,654.8,34.4,654.5,35L654.5,35z"/>
	<g>
		<path class="st11" d="M602.2,50.1c-0.1-0.1-0.2-0.1-0.4-0.1l-2.9,0c-0.5,0-0.9-0.4-0.9-0.9v-2.8c0-0.2,0.1-0.5,0.3-0.6l3.5-3.5
			c0.2-0.2,0.4-0.3,0.6-0.3h-3.9c-0.2,0-0.5,0.1-0.6,0.3l-2.8,2.8l0.6,0.7c-0.2,0.2-0.3,0.4-0.3,0.6l-1.3,0.6v2.2
			c0,0.5,0.4,0.9,0.9,0.9l2.9,0c0.1,0,0.3,0,0.4,0.1l7,3.1l1-0.9l1,1.7l6.2,2.7l1-0.9l1,1.7l6.2,2.7l1-0.9l1,1.7l1.5,0.7
			c0.5,0.2,1,0,1.2-0.5l0.2-0.6L602.2,50.1z"/>
		<path class="st11" d="M630.8,41.3l3.6-7.1c0.2-0.3,0.5-0.5,0.8-0.5l18.5,0c0,0,0,0,0,0l-22.4,0c-0.3,0-0.7,0.2-0.8,0.5l-3.6,7.1
			c-0.2,0.3-0.5,0.5-0.8,0.5h3.9C630.4,41.9,630.7,41.7,630.8,41.3z"/>
	</g>
	<path class="st10" d="M625.7,78.5h-3.3l-2.6-1.3v-9.6l2.6-1.3h3.3c0.5,0,0.9,0.4,0.9,0.9v10.4C626.6,78.1,626.2,78.5,625.7,78.5z"
		/>
	<path class="st13" d="M618.5,67.2v10.4c0,0.5,0.4,0.9,0.9,0.9h3V66.3h-3C618.9,66.3,618.5,66.7,618.5,67.2z"/>
	<path class="st16" d="M614.4,73.7V71c0-0.4-0.3-0.7-0.7-0.7h0c-0.3,0-0.6-0.2-0.7-0.5c-0.2-0.7-0.5-1.3-0.8-1.9
		c-0.1-0.3-0.1-0.6,0.1-0.8l0,0c0.3-0.3,0.3-0.7,0-1l-1.9-1.9c-0.3-0.3-0.7-0.3-1,0l0,0c-0.2,0.2-0.6,0.3-0.8,0.1
		c-0.6-0.3-1.2-0.6-1.9-0.8c-0.3-0.1-0.5-0.4-0.5-0.7v0c0-0.4-0.3-0.7-0.7-0.7h-2.7c-0.4,0-0.7,0.3-0.7,0.7v0c0,0.3-0.2,0.6-0.5,0.7
		c-0.7,0.2-1.3,0.5-1.9,0.8c-0.3,0.1-0.6,0.1-0.8-0.1l0,0c-0.3-0.3-0.7-0.3-1,0l-1.9,1.9c-0.3,0.3-0.3,0.7,0,1l0,0
		c0.2,0.2,0.3,0.6,0.1,0.8c-0.3,0.6-0.6,1.2-0.8,1.9c-0.1,0.3-0.4,0.5-0.7,0.5h0c-0.4,0-0.7,0.3-0.7,0.7v2.7c0,0.4,0.3,0.7,0.7,0.7
		h0c0.3,0,0.6,0.2,0.7,0.5c0.2,0.7,0.5,1.3,0.8,1.9c0.1,0.3,0.1,0.6-0.1,0.8l0,0c-0.3,0.3-0.3,0.7,0,1l1.9,1.9c0.3,0.3,0.7,0.3,1,0
		l0,0c0.2-0.2,0.6-0.3,0.8-0.1c0.6,0.3,1.2,0.6,1.9,0.8c0.3,0.1,0.5,0.4,0.5,0.7v0c0,0.4,0.3,0.7,0.7,0.7h2.7c0.4,0,0.7-0.3,0.7-0.7
		v0c0-0.3,0.2-0.6,0.5-0.7c0.7-0.2,1.3-0.5,1.9-0.8c0.3-0.1,0.6-0.1,0.8,0.1l0,0c0.3,0.3,0.7,0.3,1,0l1.9-1.9c0.3-0.3,0.3-0.7,0-1
		l0,0c-0.2-0.2-0.3-0.6-0.1-0.8c0.3-0.6,0.6-1.2,0.8-1.9c0.1-0.3,0.4-0.5,0.7-0.5h0C614.1,74.4,614.4,74.1,614.4,73.7L614.4,73.7z"
		/>
	<circle class="st17" cx="604.3" cy="72.4" r="4.1"/>
	<path class="st16" d="M651.1,73.7V71c0-0.4-0.3-0.7-0.7-0.7h0c-0.3,0-0.6-0.2-0.7-0.5c-0.2-0.7-0.5-1.3-0.8-1.9
		c-0.1-0.3-0.1-0.6,0.1-0.8l0,0c0.3-0.3,0.3-0.7,0-1l-1.9-1.9c-0.3-0.3-0.7-0.3-1,0l0,0c-0.2,0.2-0.6,0.3-0.8,0.1
		c-0.6-0.3-1.2-0.6-1.9-0.8c-0.3-0.1-0.5-0.4-0.5-0.7v0c0-0.4-0.3-0.7-0.7-0.7h-2.7c-0.4,0-0.7,0.3-0.7,0.7v0c0,0.3-0.2,0.6-0.5,0.7
		c-0.7,0.2-1.3,0.5-1.9,0.8c-0.3,0.1-0.6,0.1-0.8-0.1l0,0c-0.3-0.3-0.7-0.3-1,0l-1.9,1.9c-0.3,0.3-0.3,0.7,0,1l0,0
		c0.2,0.2,0.3,0.6,0.1,0.8c-0.3,0.6-0.6,1.2-0.8,1.9c-0.1,0.3-0.4,0.5-0.7,0.5h0c-0.4,0-0.7,0.3-0.7,0.7v2.7c0,0.4,0.3,0.7,0.7,0.7
		h0c0.3,0,0.6,0.2,0.7,0.5c0.2,0.7,0.5,1.3,0.8,1.9c0.1,0.3,0.1,0.6-0.1,0.8l0,0c-0.3,0.3-0.3,0.7,0,1l1.9,1.9c0.3,0.3,0.7,0.3,1,0
		l0,0c0.2-0.2,0.6-0.3,0.8-0.1c0.6,0.3,1.2,0.6,1.9,0.8c0.3,0.1,0.5,0.4,0.5,0.7v0c0,0.4,0.3,0.7,0.7,0.7h2.7c0.4,0,0.7-0.3,0.7-0.7
		v0c0-0.3,0.2-0.6,0.5-0.7c0.7-0.2,1.3-0.5,1.9-0.8c0.3-0.1,0.6-0.1,0.8,0.1l0,0c0.3,0.3,0.7,0.3,1,0l1.9-1.9c0.3-0.3,0.3-0.7,0-1
		l0,0c-0.2-0.2-0.3-0.6-0.1-0.8c0.3-0.6,0.6-1.2,0.8-1.9c0.1-0.3,0.4-0.5,0.7-0.5h0C650.8,74.4,651.1,74.1,651.1,73.7z"/>
	<circle class="st17" cx="640.9" cy="72.4" r="4.1"/>
	<path class="st13" d="M633.1,44.9l-0.8,2h-7.8c-0.5,0-0.9,0.4-0.9,0.9v11.6l-1,0.7l-1-1.5V47.8c0-0.5-0.4-0.9-0.9-0.9h-4.3
		c-0.5,0-0.9,0.4-0.9,0.9v8l-1,0.8l-1-1.7v-7.2c0-0.5-0.4-0.9-0.9-0.9h-4.3c-0.5,0-0.9,0.4-0.9,0.9v4.5l-1,1l-1-1.8v-3.6
		c0-0.5-0.4-0.9-0.9-0.9H598l-2.6-0.6c0-0.2,0.1-0.5,0.3-0.6l3.3-0.7H633.1z"/>
	<path class="st11" d="M653.7,33.7l-22.4,0c-0.3,0-0.7,0.2-0.8,0.5l-3.6,7.1c-0.2,0.3-0.5,0.5-0.8,0.5h3.9c0.3,0,0.7-0.2,0.8-0.5
		l3.6-7.1c0.2-0.3,0.5-0.5,0.8-0.5L653.7,33.7C653.7,33.7,653.7,33.7,653.7,33.7L653.7,33.7z"/>
	<g>
		<path class="st9" d="M621.6,60.3l2,0.9v-1.7l-2-0.9V60.3z"/>
		<path class="st9" d="M598,46.3c0-0.2,0.1-0.5,0.3-0.6l0.7-0.7h-3.9l-0.7,0.7c-0.2,0.2-0.3,0.4-0.3,0.6v0.6h3.9V46.3z"/>
		<path class="st9" d="M613.4,55v1.7l2,0.9v-1.7L613.4,55z"/>
		<path class="st9" d="M605.3,51.4v1.7l2,0.9v-1.7L605.3,51.4z"/>
	</g>
</g>
<g>
	<path class="st9" d="M813.3,62.2l-1.3,4.1l1.3,4.1l2,1.3l2-1.3v-8.1l-2-1.3L813.3,62.2z"/>
	<path class="st10" d="M819.4,60.1v1.2c0,0.5-0.4,0.9-0.9,0.9H810l-5.4-2.8h-10.7l6.7-16.3l2-1.3h8c0.4,0,0.7,0.3,0.9,0.6l3.8,11.4
		c0,0.1,0,0.2,0,0.3v3c0,0.5,0.4,0.9,0.9,0.9L819.4,60.1z"/>
	<path class="st11" d="M799.1,42.4l-6.5,15.7l1.3,1.3l2-1.3l6.7-16.3H800C799.6,41.9,799.2,42.1,799.1,42.4L799.1,42.4z"/>
	<path class="st12" d="M799.1,52.8l2.6-6.3c0.1-0.3,0.5-0.6,0.8-0.6h5.1c0.4,0,0.8,0.3,0.9,0.6l2,6.3c0.2,0.6-0.2,1.2-0.9,1.2h-9.8
		C799.3,54.1,798.8,53.4,799.1,52.8L799.1,52.8z"/>
	<g>
		<path class="st13" d="M819.4,59.1v1h-12.7c-0.5,0-1-0.4-1-1s0.4-1,1-1h11.8C819,58.1,819.4,58.5,819.4,59.1z"/>
	</g>
	<path class="st14" d="M813.3,62.2v8.1l-2,0.9l-19.7,1.9h-17.7l-11.5-10.2l0-3.8l1.3-1l-1.3-1l0-7.1h6.1l19.2,8.3l4.8-0.2h14.2
		c0.2,0,0.5,0.1,0.6,0.3l3.5,3.5c0.2,0.2,0.4,0.3,0.6,0.3L813.3,62.2L813.3,62.2z"/>
	<g>
		<path class="st15" d="M780.5,58.1c0,0.5-0.4,1-1,1h-17l0-2h17C780,57.2,780.5,57.6,780.5,58.1L780.5,58.1z"/>
	</g>
	<path class="st15" d="M818.5,74.4h-8.6v-4.1h8.6c0.5,0,0.9,0.4,0.9,0.9v2.2C819.4,74,819,74.4,818.5,74.4z"/>
	<path class="st15" d="M785.2,70.3h7.6v4.1h-7.6V70.3z"/>
	<path class="st15" d="M772.6,70.3h7.6v4.1h-7.6V70.3z"/>
	<path class="st10" d="M814.7,35l-1.1,2.2c-0.2,0.3-0.5,0.5-0.8,0.5l-15.8,0c-0.4,0-0.7,0.2-0.8,0.6l-2.7,6.6l-1.7,1l0.9,1
		l-5.8,13.8c0,0-1,0.6-1.5,0.4l-1.5-0.6l-2-0.8l-6.2-2.6l-2-0.8l-6.2-2.6l-2-0.8l-6.6-2.8c-0.1-0.1-0.1-0.1-0.2-0.1l-2.2-0.3
		c-0.5,0-0.9-0.1-0.9-0.7v-2.8c0-0.2,0.1-0.5,0.3-0.6l0.7-0.7l2.8-2.8c0.2-0.2,0.4-0.1,0.6-0.1l2.6-0.1h23.6c0.3,0,0.7-0.2,0.8-0.5
		l3.6-7.1c0.2-0.3,0.5-0.5,0.8-0.5l22.4,0C814.5,33.7,815,34.4,814.7,35L814.7,35z"/>
	<g>
		<path class="st11" d="M762.5,50.1c-0.1-0.1-0.2-0.1-0.4-0.1l-2.9,0c-0.5,0-0.9-0.4-0.9-0.9v-2.8c0-0.2,0.1-0.5,0.3-0.6l3.5-3.5
			c0.2-0.2,0.4-0.3,0.6-0.3h-3.9c-0.2,0-0.5,0.1-0.6,0.3l-2.8,2.8l0.6,0.7c-0.2,0.2-0.3,0.4-0.3,0.6l-1.3,0.6v2.2
			c0,0.5,0.4,0.9,0.9,0.9l2.9,0c0.1,0,0.3,0,0.4,0.1l7,3.1l1-0.9l1,1.7l6.2,2.7l1-0.9l1,1.7l6.2,2.7l1-0.9l1,1.7l1.5,0.7
			c0.5,0.2,1,0,1.2-0.5l0.2-0.6L762.5,50.1z"/>
		<path class="st11" d="M791,41.3l3.6-7.1c0.2-0.3,0.5-0.5,0.8-0.5l18.5,0c0,0,0,0,0,0l-22.4,0c-0.3,0-0.7,0.2-0.8,0.5l-3.6,7.1
			c-0.2,0.3-0.5,0.5-0.8,0.5h3.9C790.6,41.9,790.9,41.7,791,41.3z"/>
	</g>
	<path class="st10" d="M785.9,78.5h-3.3l-2.6-1.3v-9.6l2.6-1.3h3.3c0.5,0,0.9,0.4,0.9,0.9v10.4C786.9,78.1,786.4,78.5,785.9,78.5z"
		/>
	<path class="st13" d="M778.7,67.2v10.4c0,0.5,0.4,0.9,0.9,0.9h3V66.3h-3C779.1,66.3,778.7,66.7,778.7,67.2z"/>
	<path class="st16" d="M774.6,73.7V71c0-0.4-0.3-0.7-0.7-0.7h0c-0.3,0-0.6-0.2-0.7-0.5c-0.2-0.7-0.5-1.3-0.8-1.9
		c-0.1-0.3-0.1-0.6,0.1-0.8l0,0c0.3-0.3,0.3-0.7,0-1l-1.9-1.9c-0.3-0.3-0.7-0.3-1,0l0,0c-0.2,0.2-0.6,0.3-0.8,0.1
		c-0.6-0.3-1.2-0.6-1.9-0.8c-0.3-0.1-0.5-0.4-0.5-0.7v0c0-0.4-0.3-0.7-0.7-0.7h-2.7c-0.4,0-0.7,0.3-0.7,0.7v0c0,0.3-0.2,0.6-0.5,0.7
		c-0.7,0.2-1.3,0.5-1.9,0.8c-0.3,0.1-0.6,0.1-0.8-0.1l0,0c-0.3-0.3-0.7-0.3-1,0l-1.9,1.9c-0.3,0.3-0.3,0.7,0,1l0,0
		c0.2,0.2,0.3,0.6,0.1,0.8c-0.3,0.6-0.6,1.2-0.8,1.9c-0.1,0.3-0.4,0.5-0.7,0.5h0c-0.4,0-0.7,0.3-0.7,0.7v2.7c0,0.4,0.3,0.7,0.7,0.7
		h0c0.3,0,0.6,0.2,0.7,0.5c0.2,0.7,0.5,1.3,0.8,1.9c0.1,0.3,0.1,0.6-0.1,0.8l0,0c-0.3,0.3-0.3,0.7,0,1l1.9,1.9c0.3,0.3,0.7,0.3,1,0
		l0,0c0.2-0.2,0.6-0.3,0.8-0.1c0.6,0.3,1.2,0.6,1.9,0.8c0.3,0.1,0.5,0.4,0.5,0.7v0c0,0.4,0.3,0.7,0.7,0.7h2.7c0.4,0,0.7-0.3,0.7-0.7
		v0c0-0.3,0.2-0.6,0.5-0.7c0.7-0.2,1.3-0.5,1.9-0.8c0.3-0.1,0.6-0.1,0.8,0.1l0,0c0.3,0.3,0.7,0.3,1,0l1.9-1.9c0.3-0.3,0.3-0.7,0-1
		l0,0c-0.2-0.2-0.3-0.6-0.1-0.8c0.3-0.6,0.6-1.2,0.8-1.9c0.1-0.3,0.4-0.5,0.7-0.5h0C774.3,74.4,774.6,74.1,774.6,73.7L774.6,73.7z"
		/>
	<circle class="st17" cx="764.5" cy="72.4" r="4.1"/>
	<path class="st16" d="M811.3,73.7V71c0-0.4-0.3-0.7-0.7-0.7h0c-0.3,0-0.6-0.2-0.7-0.5c-0.2-0.7-0.5-1.3-0.8-1.9
		c-0.1-0.3-0.1-0.6,0.1-0.8l0,0c0.3-0.3,0.3-0.7,0-1l-1.9-1.9c-0.3-0.3-0.7-0.3-1,0l0,0c-0.2,0.2-0.6,0.3-0.8,0.1
		c-0.6-0.3-1.2-0.6-1.9-0.8c-0.3-0.1-0.5-0.4-0.5-0.7v0c0-0.4-0.3-0.7-0.7-0.7h-2.7c-0.4,0-0.7,0.3-0.7,0.7v0c0,0.3-0.2,0.6-0.5,0.7
		c-0.7,0.2-1.3,0.5-1.9,0.8c-0.3,0.1-0.6,0.1-0.8-0.1l0,0c-0.3-0.3-0.7-0.3-1,0l-1.9,1.9c-0.3,0.3-0.3,0.7,0,1l0,0
		c0.2,0.2,0.3,0.6,0.1,0.8c-0.3,0.6-0.6,1.2-0.8,1.9c-0.1,0.3-0.4,0.5-0.7,0.5h0c-0.4,0-0.7,0.3-0.7,0.7v2.7c0,0.4,0.3,0.7,0.7,0.7
		h0c0.3,0,0.6,0.2,0.7,0.5c0.2,0.7,0.5,1.3,0.8,1.9c0.1,0.3,0.1,0.6-0.1,0.8l0,0c-0.3,0.3-0.3,0.7,0,1l1.9,1.9c0.3,0.3,0.7,0.3,1,0
		l0,0c0.2-0.2,0.6-0.3,0.8-0.1c0.6,0.3,1.2,0.6,1.9,0.8c0.3,0.1,0.5,0.4,0.5,0.7v0c0,0.4,0.3,0.7,0.7,0.7h2.7c0.4,0,0.7-0.3,0.7-0.7
		v0c0-0.3,0.2-0.6,0.5-0.7c0.7-0.2,1.3-0.5,1.9-0.8c0.3-0.1,0.6-0.1,0.8,0.1l0,0c0.3,0.3,0.7,0.3,1,0l1.9-1.9c0.3-0.3,0.3-0.7,0-1
		l0,0c-0.2-0.2-0.3-0.6-0.1-0.8c0.3-0.6,0.6-1.2,0.8-1.9c0.1-0.3,0.4-0.5,0.7-0.5h0C811,74.4,811.3,74.1,811.3,73.7z"/>
	<circle class="st17" cx="801.1" cy="72.4" r="4.1"/>
	<path class="st13" d="M793.3,44.9l-0.8,2h-7.8c-0.5,0-0.9,0.4-0.9,0.9v11.6l-1,0.7l-1-1.5V47.8c0-0.5-0.4-0.9-0.9-0.9h-4.3
		c-0.5,0-0.9,0.4-0.9,0.9v8l-1,0.8l-1-1.7v-7.2c0-0.5-0.4-0.9-0.9-0.9h-4.3c-0.5,0-0.9,0.4-0.9,0.9v4.5l-1,1l-1-1.8v-3.6
		c0-0.5-0.4-0.9-0.9-0.9h-6.4l-2.6-0.6c0-0.2,0.1-0.5,0.3-0.6l3.3-0.7H793.3z"/>
	<path class="st11" d="M813.9,33.7l-22.4,0c-0.3,0-0.7,0.2-0.8,0.5l-3.6,7.1c-0.2,0.3-0.5,0.5-0.8,0.5h3.9c0.3,0,0.7-0.2,0.8-0.5
		l3.6-7.1c0.2-0.3,0.5-0.5,0.8-0.5L813.9,33.7C813.9,33.7,813.9,33.7,813.9,33.7L813.9,33.7z"/>
	<g>
		<path class="st9" d="M781.8,60.3l2,0.9v-1.7l-2-0.9V60.3z"/>
		<path class="st9" d="M758.2,46.3c0-0.2,0.1-0.5,0.3-0.6l0.7-0.7h-3.9l-0.7,0.7c-0.2,0.2-0.3,0.4-0.3,0.6v0.6h3.9V46.3z"/>
		<path class="st9" d="M773.7,55v1.7l2,0.9v-1.7L773.7,55z"/>
		<path class="st9" d="M765.5,51.4v1.7l2,0.9v-1.7L765.5,51.4z"/>
	</g>
</g>
<g>
	<path class="st9" d="M976.3,62.2l-1.3,4.1l1.3,4.1l2,1.3l2-1.3v-8.1l-2-1.3L976.3,62.2z"/>
	<path class="st10" d="M982.4,60.1v1.2c0,0.5-0.4,0.9-0.9,0.9h-8.5l-5.4-2.8h-10.7l6.7-16.3l2-1.3h8c0.4,0,0.7,0.3,0.9,0.6l3.8,11.4
		c0,0.1,0,0.2,0,0.3v3c0,0.5,0.4,0.9,0.9,0.9L982.4,60.1z"/>
	<path class="st11" d="M962.1,42.4l-6.5,15.7l1.3,1.3l2-1.3l6.7-16.3h-2.7C962.6,41.9,962.2,42.1,962.1,42.4L962.1,42.4z"/>
	<path class="st12" d="M962.1,52.8l2.6-6.3c0.1-0.3,0.5-0.6,0.8-0.6h5.1c0.4,0,0.8,0.3,0.9,0.6l2,6.3c0.2,0.6-0.2,1.2-0.9,1.2h-9.8
		C962.3,54.1,961.8,53.4,962.1,52.8L962.1,52.8z"/>
	<g>
		<path class="st13" d="M982.4,59.1v1h-12.7c-0.5,0-1-0.4-1-1s0.4-1,1-1h11.8C982,58.1,982.4,58.5,982.4,59.1z"/>
	</g>
	<path class="st14" d="M976.3,62.2v8.1l-2,0.9l-19.7,1.9h-17.7l-11.5-10.2l0-3.8l1.3-1l-1.3-1l0-7.1h6.1l19.2,8.3l4.8-0.2h14.2
		c0.2,0,0.5,0.1,0.6,0.3l3.5,3.5c0.2,0.2,0.4,0.3,0.6,0.3L976.3,62.2L976.3,62.2z"/>
	<g>
		<path class="st15" d="M943.4,58.1c0,0.5-0.4,1-1,1h-17l0-2h17C943,57.2,943.4,57.6,943.4,58.1L943.4,58.1z"/>
	</g>
	<path class="st15" d="M981.5,74.4h-8.6v-4.1h8.6c0.5,0,0.9,0.4,0.9,0.9v2.2C982.4,74,982,74.4,981.5,74.4z"/>
	<path class="st15" d="M948.2,70.3h7.6v4.1h-7.6V70.3z"/>
	<path class="st15" d="M935.6,70.3h7.6v4.1h-7.6V70.3z"/>
	<path class="st10" d="M977.7,35l-1.1,2.2c-0.2,0.3-0.5,0.5-0.8,0.5l-15.8,0c-0.4,0-0.7,0.2-0.8,0.6l-2.7,6.6l-1.7,1l0.9,1
		l-5.8,13.8c0,0-1,0.6-1.5,0.4l-1.5-0.6l-2-0.8l-6.2-2.6l-2-0.8l-6.2-2.6l-2-0.8l-6.6-2.8c-0.1-0.1-0.1-0.1-0.2-0.1l-2.2-0.3
		c-0.5,0-0.9-0.1-0.9-0.7v-2.8c0-0.2,0.1-0.5,0.3-0.6l0.7-0.7l2.8-2.8c0.2-0.2,0.4-0.1,0.7-0.1l2.6-0.1h23.6c0.3,0,0.7-0.2,0.8-0.5
		l3.6-7.1c0.2-0.3,0.5-0.5,0.8-0.5l22.4,0C977.5,33.7,978,34.4,977.7,35L977.7,35z"/>
	<g>
		<path class="st11" d="M925.4,50.1c-0.1-0.1-0.2-0.1-0.4-0.1l-2.9,0c-0.5,0-0.9-0.4-0.9-0.9v-2.8c0-0.2,0.1-0.5,0.3-0.6l3.5-3.5
			c0.2-0.2,0.4-0.3,0.6-0.3h-3.9c-0.2,0-0.5,0.1-0.6,0.3l-2.8,2.8l0.6,0.7c-0.2,0.2-0.3,0.4-0.3,0.6l-1.3,0.6v2.2
			c0,0.5,0.4,0.9,0.9,0.9l2.9,0c0.1,0,0.3,0,0.4,0.1l7,3.1l1-0.9l1,1.7l6.2,2.7l1-0.9l1,1.7l6.2,2.7l1-0.9l1,1.7l1.5,0.7
			c0.5,0.2,1,0,1.2-0.5l0.2-0.6L925.4,50.1z"/>
		<path class="st11" d="M954,41.3l3.6-7.1c0.2-0.3,0.5-0.5,0.8-0.5l18.5,0c0,0,0,0,0,0l-22.4,0c-0.3,0-0.7,0.2-0.8,0.5l-3.6,7.1
			c-0.2,0.3-0.5,0.5-0.8,0.5h3.9C953.5,41.9,953.9,41.7,954,41.3z"/>
	</g>
	<path class="st10" d="M948.9,78.5h-3.3l-2.6-1.3v-9.6l2.6-1.3h3.3c0.5,0,0.9,0.4,0.9,0.9v10.4C949.8,78.1,949.4,78.5,948.9,78.5z"
		/>
	<path class="st13" d="M941.7,67.2v10.4c0,0.5,0.4,0.9,0.9,0.9h3V66.3h-3C942.1,66.3,941.7,66.7,941.7,67.2z"/>
	<path class="st16" d="M937.6,73.7V71c0-0.4-0.3-0.7-0.7-0.7h0c-0.3,0-0.6-0.2-0.7-0.5c-0.2-0.7-0.5-1.3-0.8-1.9
		c-0.1-0.3-0.1-0.6,0.1-0.8l0,0c0.3-0.3,0.3-0.7,0-1l-1.9-1.9c-0.3-0.3-0.7-0.3-1,0l0,0c-0.2,0.2-0.6,0.3-0.8,0.1
		c-0.6-0.3-1.2-0.6-1.9-0.8c-0.3-0.1-0.5-0.4-0.5-0.7v0c0-0.4-0.3-0.7-0.7-0.7h-2.7c-0.4,0-0.7,0.3-0.7,0.7v0c0,0.3-0.2,0.6-0.5,0.7
		c-0.7,0.2-1.3,0.5-1.9,0.8c-0.3,0.1-0.6,0.1-0.8-0.1l0,0c-0.3-0.3-0.7-0.3-1,0l-1.9,1.9c-0.3,0.3-0.3,0.7,0,1l0,0
		c0.2,0.2,0.3,0.6,0.1,0.8c-0.3,0.6-0.6,1.2-0.8,1.9c-0.1,0.3-0.4,0.5-0.7,0.5h0c-0.4,0-0.7,0.3-0.7,0.7v2.7c0,0.4,0.3,0.7,0.7,0.7
		h0c0.3,0,0.6,0.2,0.7,0.5c0.2,0.7,0.5,1.3,0.8,1.9c0.1,0.3,0.1,0.6-0.1,0.8l0,0c-0.3,0.3-0.3,0.7,0,1l1.9,1.9c0.3,0.3,0.7,0.3,1,0
		l0,0c0.2-0.2,0.6-0.3,0.8-0.1c0.6,0.3,1.2,0.6,1.9,0.8c0.3,0.1,0.5,0.4,0.5,0.7v0c0,0.4,0.3,0.7,0.7,0.7h2.7c0.4,0,0.7-0.3,0.7-0.7
		v0c0-0.3,0.2-0.6,0.5-0.7c0.7-0.2,1.3-0.5,1.9-0.8c0.3-0.1,0.6-0.1,0.8,0.1l0,0c0.3,0.3,0.7,0.3,1,0l1.9-1.9c0.3-0.3,0.3-0.7,0-1
		l0,0c-0.2-0.2-0.3-0.6-0.1-0.8c0.3-0.6,0.6-1.2,0.8-1.9c0.1-0.3,0.4-0.5,0.7-0.5h0C937.3,74.4,937.6,74.1,937.6,73.7L937.6,73.7z"
		/>
	<circle class="st17" cx="927.4" cy="72.4" r="4.1"/>
	<path class="st16" d="M974.3,73.7V71c0-0.4-0.3-0.7-0.7-0.7h0c-0.3,0-0.6-0.2-0.7-0.5c-0.2-0.7-0.5-1.3-0.8-1.9
		c-0.1-0.3-0.1-0.6,0.1-0.8l0,0c0.3-0.3,0.3-0.7,0-1l-1.9-1.9c-0.3-0.3-0.7-0.3-1,0l0,0c-0.2,0.2-0.6,0.3-0.8,0.1
		c-0.6-0.3-1.2-0.6-1.9-0.8c-0.3-0.1-0.5-0.4-0.5-0.7v0c0-0.4-0.3-0.7-0.7-0.7h-2.7c-0.4,0-0.7,0.3-0.7,0.7v0c0,0.3-0.2,0.6-0.5,0.7
		c-0.7,0.2-1.3,0.5-1.9,0.8c-0.3,0.1-0.6,0.1-0.8-0.1l0,0c-0.3-0.3-0.7-0.3-1,0l-1.9,1.9c-0.3,0.3-0.3,0.7,0,1l0,0
		c0.2,0.2,0.3,0.6,0.1,0.8c-0.3,0.6-0.6,1.2-0.8,1.9c-0.1,0.3-0.4,0.5-0.7,0.5h0c-0.4,0-0.7,0.3-0.7,0.7v2.7c0,0.4,0.3,0.7,0.7,0.7
		h0c0.3,0,0.6,0.2,0.7,0.5c0.2,0.7,0.5,1.3,0.8,1.9c0.1,0.3,0.1,0.6-0.1,0.8l0,0c-0.3,0.3-0.3,0.7,0,1l1.9,1.9c0.3,0.3,0.7,0.3,1,0
		l0,0c0.2-0.2,0.6-0.3,0.8-0.1c0.6,0.3,1.2,0.6,1.9,0.8c0.3,0.1,0.5,0.4,0.5,0.7v0c0,0.4,0.3,0.7,0.7,0.7h2.7c0.4,0,0.7-0.3,0.7-0.7
		v0c0-0.3,0.2-0.6,0.5-0.7c0.7-0.2,1.3-0.5,1.9-0.8c0.3-0.1,0.6-0.1,0.8,0.1l0,0c0.3,0.3,0.7,0.3,1,0l1.9-1.9c0.3-0.3,0.3-0.7,0-1
		l0,0c-0.2-0.2-0.3-0.6-0.1-0.8c0.3-0.6,0.6-1.2,0.8-1.9c0.1-0.3,0.4-0.5,0.7-0.5h0C973.9,74.4,974.3,74.1,974.3,73.7z"/>
	<circle class="st17" cx="964.1" cy="72.4" r="4.1"/>
	<path class="st13" d="M956.3,44.9l-0.8,2h-7.8c-0.5,0-0.9,0.4-0.9,0.9v11.6l-1,0.7l-1-1.5V47.8c0-0.5-0.4-0.9-0.9-0.9h-4.3
		c-0.5,0-0.9,0.4-0.9,0.9v8l-1,0.8l-1-1.7v-7.2c0-0.5-0.4-0.9-0.9-0.9h-4.3c-0.5,0-0.9,0.4-0.9,0.9v4.5l-1,1l-1-1.8v-3.6
		c0-0.5-0.4-0.9-0.9-0.9h-6.4l-2.6-0.6c0-0.2,0.1-0.5,0.3-0.6l3.3-0.7H956.3z"/>
	<path class="st11" d="M976.8,33.7l-22.4,0c-0.3,0-0.7,0.2-0.8,0.5l-3.6,7.1c-0.2,0.3-0.5,0.5-0.8,0.5h3.9c0.3,0,0.7-0.2,0.8-0.5
		l3.6-7.1c0.2-0.3,0.5-0.5,0.8-0.5L976.8,33.7C976.9,33.7,976.8,33.7,976.8,33.7L976.8,33.7z"/>
	<g>
		<path class="st9" d="M944.8,60.3l2,0.9v-1.7l-2-0.9V60.3z"/>
		<path class="st9" d="M921.2,46.3c0-0.2,0.1-0.5,0.3-0.6l0.7-0.7h-3.9l-0.7,0.7c-0.2,0.2-0.3,0.4-0.3,0.6v0.6h3.9V46.3z"/>
		<path class="st9" d="M936.6,55v1.7l2,0.9v-1.7L936.6,55z"/>
		<path class="st9" d="M928.5,51.4v1.7l2,0.9v-1.7L928.5,51.4z"/>
	</g>
</g>
</svg>
