<?xml version="1.0" encoding="utf-8"?>
<!-- Generator: Adobe Illustrator 26.5.0, SVG Export Plug-In . SVG Version: 6.00 Build 0)  -->
<svg version="1.1" id="Capa_1" xmlns="http://www.w3.org/2000/svg" xmlns:xlink="http://www.w3.org/1999/xlink" x="0px" y="0px"
	 viewBox="0 0 612.1 462.8" style="enable-background:new 0 0 612.1 462.8;" xml:space="preserve">
<style type="text/css">
	.st0{fill:none;}
	.st1{fill:#211915;}
	.st2{font-family:'Roboto-Light';}
	.st3{font-size:18px;}
	.st4{fill:#324483;}
	.st5{fill:#13254A;}
	.st6{fill:#1E3266;}
	.st7{fill:#DCAB31;}
	.st8{fill:#243971;}
	.st9{fill:#1B1A2E;}
	.st10{fill:#E5CA5E;}
	.st11{fill:#ADA39B;}
</style>
<g>
	<rect x="388.8" y="14.6" class="st0" width="198.2" height="221.4"/>
	<text transform="matrix(1 0 0 1 388.8066 28.0776)"><tspan x="0" y="0" class="st1 st2 st3">En la ruta de bajada </tspan><tspan x="0" y="21.6" class="st1 st2 st3">desde la superficie al </tspan><tspan x="0" y="43.2" class="st1 st2 st3">interior de la mina, el </tspan><tspan x="0" y="64.8" class="st1 st2 st3">empleo de frenos </tspan><tspan x="0" y="86.4" class="st1 st2 st3">regenerativos permite </tspan><tspan x="0" y="108" class="st1 st2 st3">generar energía eléctrica </tspan><tspan x="0" y="129.6" class="st1 st2 st3">y almacenarla en las </tspan><tspan x="0" y="151.2" class="st1 st2 st3">baterías.</tspan></text>
</g>
<g>
	<rect x="388.8" y="251.6" class="st0" width="198.2" height="193.5"/>
	<text transform="matrix(1 0 0 1 388.8066 265.1492)"><tspan x="0" y="0" class="st1 st2 st3">Para retornar a la </tspan><tspan x="0" y="21.6" class="st1 st2 st3">superficie, el camión </tspan><tspan x="0" y="43.2" class="st1 st2 st3">CAEX deberá obtener su </tspan><tspan x="0" y="64.8" class="st1 st2 st3">energía, ya sea desde el </tspan><tspan x="0" y="86.4" class="st1 st2 st3">hidrógeno o de la energía </tspan><tspan x="0" y="108" class="st1 st2 st3">eléctrica almacenada en </tspan><tspan x="0" y="129.6" class="st1 st2 st3">las baterías. </tspan></text>
</g>
<g>
	<path class="st4" d="M194.7,73.8c0,0-31.7-59.4-56-64.5C114.4,4.1,68,52.4,68.2,56.3C68.5,65.9,203.8,86.1,194.7,73.8z"/>
	<path class="st5" d="M216.9,78.4c0,0-22.6-42.3-39.9-45.9c-17.3-3.7-50.3,30.7-50.2,33.5C127.1,72.8,223.3,87.2,216.9,78.4z"/>
	<path class="st6" d="M119.2,111.2l172.7,28.5c1.6,0.3,3.2-0.8,3.5-2.5l1.8-10.7c0.3-1.6-0.8-3.2-2.5-3.5L121.9,94.5
		c-1.6-0.3-3.2,0.8-3.5,2.5l-1.8,10.7C116.4,109.3,117.5,110.9,119.2,111.2z"/>
	
		<rect x="183.2" y="96" transform="matrix(-0.9867 -0.1627 0.1627 -0.9867 389.8634 240.8021)" class="st4" width="43.2" height="16.9"/>
	<path class="st4" d="M109.7,91.1c-0.3,2.4,1.6,4.5,4,4.5c2.5-0.1,5.1,0.1,7.6,0.5c22.4,3.7,37.5,24.8,33.8,47.2l0,0
		c-0.1,0.6,0.3,1.2,0.9,1.3l55.7,9.2c0.9,0.2,1.8-0.5,2-1.4l0,0c3.7-22.5,25-37.7,47.5-34c22.5,3.7,37.7,25,34,47.5
		c-0.1,0.6-0.2,1.1-0.3,1.7l11.9,2l3.6-21.7l-3.2-33.8l-83.9-13.8l-24.8,22l-14.7-2.4l-45.3-25.2l1.7-6.6l-28.3-13.4L109.7,91.1z"/>
	<path class="st7" d="M291.2,111.4l-5.9-28.6c-0.5-2.2-2.1-3.9-4.1-4.2l-21-3.5c-2.5-0.4-4.8,1.6-5.3,4.4l-4.2,25.2L291.2,111.4z"/>
	<path class="st4" d="M270,80.5l-6.4-1.1c-1.3-0.2-2.6,0.7-2.8,2l-2.8,17c-0.2,1.3,0.7,2.6,2,2.8l21.2,3.5c1.7,0.3,3.2-1.3,2.8-3
		l-2.2-10.2C280.5,85.9,275.9,81.5,270,80.5z"/>
	<g>
		<path class="st7" d="M308.4,150l8.1-1.2l-4.9-33.8c-0.4-2.7-2.5-4.9-5.2-5.3L224,96.2c-1.4-0.2-2.9,0.3-3.8,1.4l-21.7,24.7
			l6.1,5.4l20.2-23l78.7,13L308.4,150z"/>
	</g>
	<path class="st6" d="M161.7,159.3l38,6.3c3.2,0.5,6.2-1.6,6.7-4.8l3.4-20.7c0.5-3.2-1.6-6.2-4.8-6.7l-38-6.3
		c-3.2-0.5-6.2,1.6-6.7,4.8l-3.4,20.7C156.4,155.8,158.5,158.7,161.7,159.3z"/>
	<path class="st7" d="M55.2,62.6l120,49c7.7,3.1,16.4,1.3,22.1-4.7l43.7-45.8l46.6,7.7c3.5,0.6,6.8-1.8,7.4-5.3l1.3-7.8
		c0.2-1.2-1.2-2.1-2.2-1.3l-0.8,0.6c-1.9,1.5-4.4,2.1-6.8,1.7L234.3,48c-1.2-0.2-2.5,0.2-3.4,1l-20.9,20.3L68.5,45.4l-11,7.2l-3.1,2
		C51.4,56.7,51.8,61.2,55.2,62.6z"/>
	<polygon class="st8" points="57.5,52.6 201.7,76.4 210.1,69.4 68.5,45.4 	"/>
	<g>
		
			<ellipse transform="matrix(0.4664 -0.8846 0.8846 0.4664 -59.1893 174.0829)" class="st5" cx="114.7" cy="136.1" rx="39.3" ry="39.3"/>
		<circle class="st4" cx="114.7" cy="136.1" r="31.4"/>
		
			<ellipse transform="matrix(7.972431e-03 -1 1 7.972431e-03 -22.3134 249.7124)" class="st5" cx="114.7" cy="136.1" rx="21.2" ry="21.2"/>
		<g>
			<path class="st4" d="M98.2,133.4c1.5-9.1,10.2-15.3,19.3-13.8c9.1,1.5,15.3,10.2,13.8,19.3c-1.5,9.1-10.2,15.3-19.3,13.8
				C102.8,151.1,96.6,142.5,98.2,133.4z M99.7,133.6c-1.4,8.3,4.3,16.1,12.5,17.5c8.3,1.4,16.1-4.3,17.5-12.5
				c1.4-8.3-4.3-16.1-12.5-17.5C108.9,119.8,101.1,125.4,99.7,133.6z"/>
			<path class="st4" d="M109.5,135.2c0.5-2.9,3.2-4.8,6-4.3c2.9,0.5,4.8,3.2,4.3,6c-0.5,2.9-3.2,4.8-6,4.3
				C111,140.8,109,138.1,109.5,135.2z"/>
			<polygon class="st4" points="114.5,132 114.6,120.5 119.8,121.3 116.1,132.3 			"/>
			<polygon class="st4" points="111.2,133.3 103.7,124.5 108.2,121.7 112.6,132.4 			"/>
			<polygon class="st4" points="109.9,137 98.4,136.1 99.6,130.9 110.3,135.4 			"/>
			<polygon class="st4" points="118.9,134.5 128.8,128.7 125.4,124.6 117.9,133.3 			"/>
			<polygon class="st4" points="113.2,140.3 109.5,151.3 114.7,152.2 114.7,140.6 			"/>
			<polygon class="st4" points="110.4,138.1 100.5,143.9 103.9,148.1 111.5,139.3 			"/>
			<polygon class="st4" points="118.1,139.4 125.6,148.1 121.1,150.9 116.7,140.2 			"/>
			<polygon class="st4" points="119,138.5 130.2,141.3 130.7,136 119.1,136.9 			"/>
		</g>
		<path class="st9" d="M119,136.2c0.3-0.2,0.4-0.5,0.2-0.8c-0.2-0.3-0.5-0.4-0.8-0.2c-0.3,0.2-0.4,0.5-0.2,0.8
			C118.4,136.2,118.7,136.3,119,136.2z"/>
		<path class="st9" d="M115.7,132.4c0.3-0.2,0.4-0.5,0.2-0.8c-0.2-0.3-0.5-0.4-0.8-0.2c-0.3,0.2-0.4,0.5-0.2,0.8
			C115.1,132.5,115.4,132.6,115.7,132.4z"/>
		<path class="st9" d="M117.1,139.9c0.3-0.2,0.4-0.5,0.2-0.8c-0.2-0.3-0.5-0.4-0.8-0.2c-0.3,0.2-0.4,0.5-0.2,0.8
			C116.5,140,116.9,140,117.1,139.9z"/>
		<path class="st9" d="M111.8,139c0.3-0.2,0.4-0.5,0.2-0.8c-0.2-0.3-0.5-0.4-0.8-0.2c-0.3,0.2-0.4,0.5-0.2,0.8
			C111.2,139.1,111.5,139.2,111.8,139z"/>
		<path class="st9" d="M111.3,134.9c0.3-0.2,0.4-0.5,0.2-0.8c-0.2-0.3-0.5-0.4-0.8-0.2c-0.3,0.2-0.4,0.5-0.2,0.8
			C110.7,135,111,135.1,111.3,134.9z"/>
	</g>
	<g>
		
			<ellipse transform="matrix(0.9413 -0.3375 0.3375 0.9413 -38.7829 95.2671)" class="st5" cx="254.6" cy="159.2" rx="39.3" ry="39.3"/>
		
			<ellipse transform="matrix(0.3498 -0.9368 0.9368 0.3498 16.4241 342.0248)" class="st4" cx="254.6" cy="159.2" rx="31.4" ry="31.4"/>
		
			<ellipse transform="matrix(0.9819 -0.1895 0.1895 0.9819 -25.5478 51.1248)" class="st5" cx="254.6" cy="159.2" rx="21.2" ry="21.2"/>
		<g>
			<path class="st4" d="M238.1,156.5c1.5-9.1,10.2-15.3,19.3-13.8c9.1,1.5,15.3,10.2,13.8,19.3c-1.5,9.1-10.2,15.3-19.3,13.8
				C242.8,174.2,236.6,165.6,238.1,156.5z M239.6,156.7c-1.4,8.3,4.3,16.1,12.5,17.5c8.3,1.4,16.1-4.3,17.5-12.5
				c1.4-8.3-4.3-16.1-12.5-17.5C248.8,142.8,241,148.4,239.6,156.7z"/>
			<path class="st4" d="M249.4,158.3c0.5-2.9,3.2-4.8,6-4.3c2.9,0.5,4.8,3.2,4.3,6c-0.5,2.9-3.2,4.8-6,4.3
				C250.9,163.9,249,161.2,249.4,158.3z"/>
			<polygon class="st4" points="254.4,155.1 254.5,143.5 259.7,144.4 256,155.4 			"/>
			<polygon class="st4" points="251.1,156.4 243.6,147.6 248.2,144.8 252.5,155.5 			"/>
			<polygon class="st4" points="249.8,160.1 238.3,159.2 239.5,154 250.2,158.5 			"/>
			<polygon class="st4" points="258.8,157.6 268.8,151.7 265.3,147.6 257.8,156.4 			"/>
			<polygon class="st4" points="253.1,163.4 249.4,174.4 254.7,175.2 254.7,163.7 			"/>
			<polygon class="st4" points="250.4,161.1 240.4,167 243.8,171.2 251.4,162.4 			"/>
			<polygon class="st4" points="258,162.4 265.5,171.2 261,174 256.6,163.3 			"/>
			<polygon class="st4" points="258.9,161.5 270.1,164.4 270.6,159.1 259,159.9 			"/>
		</g>
		<path class="st9" d="M258.9,159.2c0.3-0.2,0.4-0.5,0.2-0.8c-0.2-0.3-0.5-0.4-0.8-0.2c-0.3,0.2-0.4,0.5-0.2,0.8
			C258.3,159.3,258.6,159.4,258.9,159.2z"/>
		<path class="st9" d="M255.6,155.5c0.3-0.2,0.4-0.5,0.2-0.8c-0.2-0.3-0.5-0.4-0.8-0.2c-0.3,0.2-0.4,0.5-0.2,0.8
			C255,155.6,255.3,155.7,255.6,155.5z"/>
		<path class="st9" d="M257.1,163c0.3-0.2,0.4-0.5,0.2-0.8c-0.2-0.3-0.5-0.4-0.8-0.2c-0.3,0.2-0.4,0.5-0.2,0.8
			C256.4,163,256.8,163.1,257.1,163z"/>
		<path class="st9" d="M251.7,162.1c0.3-0.2,0.4-0.5,0.2-0.8c-0.2-0.3-0.5-0.4-0.8-0.2c-0.3,0.2-0.4,0.5-0.2,0.8
			C251.1,162.1,251.4,162.2,251.7,162.1z"/>
		<path class="st9" d="M251.2,158c0.3-0.2,0.4-0.5,0.2-0.8c-0.2-0.3-0.5-0.4-0.8-0.2c-0.3,0.2-0.4,0.5-0.2,0.8
			C250.6,158,251,158.1,251.2,158z"/>
	</g>
	<polygon class="st7" points="308.9,125.4 296.7,123.4 282.9,117.1 220.4,106.8 223.3,100.2 307.2,114.1 	"/>
	
		<rect x="306.5" y="148.1" transform="matrix(-0.9867 -0.1627 0.1627 -0.9867 590.3389 371.3462)" class="st7" width="7.8" height="26.9"/>
	<path class="st7" d="M306.4,180.9l7.9,1.3c1.7,0.3,3.4-0.9,3.6-2.6l0,0c0.3-1.7-0.9-3.4-2.6-3.6l-11-1.8l-0.5,3.1
		C303.5,179,304.7,180.6,306.4,180.9z"/>
	<g>
		<polygon class="st10" points="184.1,73.5 192.6,74.9 200.4,67.8 191.9,66.3 		"/>
		<polygon class="st10" points="164.7,70.3 173.2,71.7 181,64.5 172.6,63.1 		"/>
		<polygon class="st10" points="145.3,67.1 153.7,68.5 161.7,61.2 153.3,59.8 		"/>
		<polygon class="st10" points="125.9,63.9 134.3,65.3 142.3,57.9 133.9,56.5 133.9,56.5 		"/>
		<polygon class="st10" points="106.5,60.7 114.9,62.1 123,54.7 114.6,53.2 		"/>
		<polygon class="st10" points="87,57.5 95.5,58.9 103.7,51.4 95.2,50 		"/>
		<polygon class="st10" points="67.6,54.3 76.1,55.7 84.3,48.1 75.9,46.7 		"/>
	</g>
	
		<rect x="197.9" y="122.8" transform="matrix(-0.9867 -0.1627 0.1627 -0.9867 379.5586 283.5092)" class="st7" width="6.9" height="6.9"/>
	<polygon class="st7" points="254.2,83.7 238.4,98.6 251.3,100.7 	"/>
	<path class="st7" d="M68,44.8l146.1,24.1c0.1,0,0.2,0.1,0.2,0.3l-0.1,0.9c0,0.1-0.1,0.2-0.3,0.2L67.8,46.1c-0.1,0-0.2-0.1-0.2-0.3
		l0.1-0.9C67.7,44.8,67.8,44.8,68,44.8z"/>
</g>
<polygon class="st11" points="1.1,158.9 1.1,219.4 375.4,219.4 "/>
<g>
	<path class="st4" d="M161.9,306.3c0,0-49.2-46-73.8-43c-24.6,3-52.9,63.7-51.5,67.3C40,339.6,174.5,315,161.9,306.3z"/>
	<path class="st5" d="M184.4,303.5c0,0-35-32.7-52.6-30.6c-17.5,2.1-37.7,45.3-36.7,47.9C97.6,327.2,193.4,309.7,184.4,303.5z"/>
	<path class="st6" d="M102.5,366l172.7-28.8c1.6-0.3,2.7-1.8,2.5-3.5l-1.8-10.7c-0.3-1.6-1.8-2.7-3.5-2.5L99.7,349.4
		c-1.6,0.3-2.7,1.8-2.5,3.5l1.8,10.7C99.3,365.2,100.9,366.3,102.5,366z"/>
	
		<rect x="159.8" y="323.6" transform="matrix(-0.9864 0.1645 -0.1645 -0.9864 414.9356 629.6852)" class="st4" width="43.2" height="16.9"/>
	<path class="st4" d="M87.1,350.1c0.5,2.4,2.9,3.8,5.2,2.9c2.4-0.9,4.8-1.5,7.4-2c22.4-3.7,43.5,11.4,47.3,33.7l0,0
		c0.1,0.6,0.7,1,1.3,0.9l55.7-9.3c0.9-0.2,1.5-1,1.4-2l0,0c-3.8-22.5,11.4-43.8,33.9-47.5c22.5-3.8,43.8,11.4,47.5,33.9
		c0.1,0.6,0.2,1.1,0.2,1.7l11.9-2l-3.6-21.6l-13.9-31l-83.9,14l-16.3,28.8l-14.7,2.4l-51-9.2l-0.5-6.8l-31.1-3.6L87.1,350.1z"/>
	<path class="st7" d="M265.4,310.8l-14.8-25.2c-1.2-2-3.2-3-5.2-2.7l-21,3.5c-2.5,0.4-4.1,3-3.6,5.8l4.2,25.2L265.4,310.8z"/>
	<path class="st4" d="M235.4,288.3l-6.4,1.1c-1.3,0.2-2.3,1.5-2,2.8l2.8,17c0.2,1.3,1.5,2.3,2.8,2l21.2-3.5c1.7-0.3,2.6-2.2,1.7-3.7
		l-5.4-8.9C247.1,290,241.2,287.3,235.4,288.3z"/>
	<g>
		<path class="st7" d="M294.1,341.8l7.2-3.7l-15.6-30.4c-1.2-2.4-3.9-3.8-6.6-3.3L196.9,318c-1.4,0.2-2.6,1.2-3.2,2.5l-12.6,30.3
			l7.5,3.1l11.7-28.3l78.7-13.1L294.1,341.8z"/>
	</g>
	<path class="st6" d="M158.3,397.8l38-6.3c3.2-0.5,5.3-3.5,4.8-6.7l-3.4-20.7c-0.5-3.2-3.5-5.3-6.7-4.8l-38,6.3
		c-3.2,0.5-5.3,3.5-4.8,6.7l3.4,20.7C152.2,396.2,155.2,398.4,158.3,397.8z"/>
	<path class="st7" d="M26.3,340.7l129.4,7.6c8.2,0.5,16-4.1,19.4-11.6l26.6-57.5l46.6-7.8c3.5-0.6,5.9-3.9,5.3-7.4l-1.3-7.8
		c-0.2-1.2-1.8-1.6-2.5-0.6l-0.6,0.9c-1.4,2-3.5,3.4-5.9,3.8l-52.2,8.7c-1.2,0.2-2.3,1-2.8,2.1l-13.2,26l-141.7,23l-8.1,10.3
		l-2.3,2.9C20.8,336.3,22.7,340.5,26.3,340.7z"/>
	<polygon class="st8" points="25.3,330.5 169.4,306.5 175.1,297.2 33.4,320.2 	"/>
	<g>
		
			<ellipse transform="matrix(0.1558 -0.9878 0.9878 0.1558 -296.5412 435.1933)" class="st5" cx="106.3" cy="391.1" rx="39.3" ry="39.3"/>
		<circle class="st4" cx="106.3" cy="391.1" r="31.4"/>
		
			<ellipse transform="matrix(0.949 -0.3153 0.3153 0.949 -117.8916 53.482)" class="st5" cx="106.3" cy="391.1" rx="21.2" ry="21.2"/>
		<g>
			<path class="st4" d="M89.8,393.9c-1.5-9.1,4.7-17.8,13.8-19.3c9.1-1.5,17.8,4.7,19.3,13.8c1.5,9.1-4.7,17.8-13.8,19.3
				C100,409.2,91.3,403,89.8,393.9z M91.4,393.6c1.4,8.3,9.2,13.9,17.5,12.5c8.3-1.4,13.9-9.2,12.5-17.5
				c-1.4-8.3-9.2-13.9-17.5-12.5C95.6,377.5,90,385.3,91.4,393.6z"/>
			<path class="st4" d="M101.2,392c-0.5-2.9,1.5-5.6,4.3-6c2.9-0.5,5.6,1.5,6,4.3c0.5,2.9-1.5,5.6-4.3,6
				C104.3,396.7,101.6,394.8,101.2,392z"/>
			<polygon class="st4" points="104.9,387.3 101.2,376.3 106.4,375.5 106.4,387 			"/>
			<polygon class="st4" points="102.2,389.5 92.2,383.7 95.6,379.6 103.2,388.3 			"/>
			<polygon class="st4" points="102.1,393.5 90.9,396.4 90.4,391.1 101.9,391.9 			"/>
			<polygon class="st4" points="109.8,388.3 117.3,379.5 112.8,376.7 108.4,387.4 			"/>
			<polygon class="st4" points="106.2,395.6 106.3,407.2 111.6,406.3 107.8,395.3 			"/>
			<polygon class="st4" points="102.9,394.3 95.4,403.1 100,405.9 104.3,395.2 			"/>
			<polygon class="st4" points="110.6,393.1 120.6,398.9 117.2,403 109.6,394.3 			"/>
			<polygon class="st4" points="111.1,392 122.7,391.1 121.4,385.9 110.8,390.4 			"/>
		</g>
		<path class="st9" d="M110.4,389.8c0.2-0.2,0.2-0.6-0.1-0.8c-0.2-0.2-0.6-0.2-0.8,0.1c-0.2,0.2-0.2,0.6,0.1,0.8
			C109.9,390,110.2,390,110.4,389.8z"/>
		<path class="st9" d="M106.1,387.3c0.2-0.2,0.2-0.6-0.1-0.8c-0.2-0.2-0.6-0.2-0.8,0.1c-0.2,0.2-0.2,0.6,0.1,0.8
			C105.5,387.6,105.9,387.5,106.1,387.3z"/>
		<path class="st9" d="M109.9,393.9c0.2-0.2,0.2-0.6-0.1-0.8c-0.2-0.2-0.6-0.2-0.8,0.1c-0.2,0.2-0.2,0.6,0.1,0.8
			C109.3,394.1,109.7,394.1,109.9,393.9z"/>
		<path class="st9" d="M104.5,394.8c0.2-0.2,0.2-0.6-0.1-0.8c-0.2-0.2-0.6-0.2-0.8,0.1c-0.2,0.2-0.2,0.6,0.1,0.8
			C103.9,395,104.3,395,104.5,394.8z"/>
		<path class="st9" d="M102.7,391c0.2-0.2,0.2-0.6-0.1-0.8c-0.2-0.2-0.6-0.2-0.8,0.1c-0.2,0.2-0.2,0.6,0.1,0.8
			C102.2,391.3,102.5,391.3,102.7,391z"/>
	</g>
	<g>
		
			<ellipse transform="matrix(0.782 -0.6233 0.6233 0.782 -175.5507 233.6641)" class="st5" cx="246.2" cy="367.8" rx="39.3" ry="39.3"/>
		
			<ellipse transform="matrix(2.860577e-02 -0.9996 0.9996 2.860577e-02 -128.4346 603.3534)" class="st4" cx="246.2" cy="367.8" rx="31.4" ry="31.4"/>
		
			<ellipse transform="matrix(0.8681 -0.4963 0.4963 0.8681 -150.0649 170.7054)" class="st5" cx="246.2" cy="367.8" rx="21.2" ry="21.2"/>
		<g>
			<path class="st4" d="M229.7,370.5c-1.5-9.1,4.7-17.8,13.8-19.3c9.1-1.5,17.8,4.7,19.3,13.8c1.5,9.1-4.7,17.8-13.8,19.3
				C239.9,385.8,231.2,379.6,229.7,370.5z M231.2,370.3c1.4,8.3,9.2,13.9,17.5,12.5c8.3-1.4,13.9-9.2,12.5-17.5
				c-1.4-8.3-9.2-13.9-17.5-12.5C235.5,354.2,229.9,362,231.2,370.3z"/>
			<path class="st4" d="M241,368.6c-0.5-2.9,1.5-5.6,4.3-6c2.9-0.5,5.6,1.5,6,4.3c0.5,2.9-1.5,5.6-4.3,6
				C244.2,373.4,241.5,371.5,241,368.6z"/>
			<polygon class="st4" points="244.7,364 241.1,353 246.3,352.1 246.3,363.7 			"/>
			<polygon class="st4" points="242,366.2 232.1,360.3 235.5,356.2 243.1,365 			"/>
			<polygon class="st4" points="242,370.1 230.8,373 230.3,367.7 241.8,368.5 			"/>
			<polygon class="st4" points="249.7,364.9 257.2,356.1 252.6,353.4 248.3,364.1 			"/>
			<polygon class="st4" points="246.1,372.3 246.2,383.8 251.5,383 247.7,372 			"/>
			<polygon class="st4" points="242.8,371 235.3,379.8 239.9,382.6 244.2,371.9 			"/>
			<polygon class="st4" points="250.5,369.7 260.4,375.6 257,379.7 249.5,371 			"/>
			<polygon class="st4" points="251,368.6 262.5,367.7 261.3,362.5 250.6,367.1 			"/>
		</g>
		<path class="st9" d="M250.3,366.4c0.2-0.2,0.2-0.6-0.1-0.8c-0.2-0.2-0.6-0.2-0.8,0.1c-0.2,0.2-0.2,0.6,0.1,0.8
			C249.7,366.7,250.1,366.7,250.3,366.4z"/>
		<path class="st9" d="M246,364c0.2-0.2,0.2-0.6-0.1-0.8c-0.2-0.2-0.6-0.2-0.8,0.1c-0.2,0.2-0.2,0.6,0.1,0.8
			C245.4,364.2,245.8,364.2,246,364z"/>
		<path class="st9" d="M249.8,370.5c0.2-0.2,0.2-0.6-0.1-0.8c-0.2-0.2-0.6-0.2-0.8,0.1c-0.2,0.2-0.2,0.6,0.1,0.8
			C249.2,370.8,249.5,370.8,249.8,370.5z"/>
		<path class="st9" d="M244.4,371.4c0.2-0.2,0.2-0.6-0.1-0.8c-0.2-0.2-0.6-0.2-0.8,0.1c-0.2,0.2-0.2,0.6,0.1,0.8
			C243.8,371.7,244.2,371.7,244.4,371.4z"/>
		<path class="st9" d="M242.6,367.7c0.2-0.2,0.2-0.6-0.1-0.8c-0.2-0.2-0.6-0.2-0.8,0.1c-0.2,0.2-0.2,0.6,0.1,0.8
			C242.1,368,242.4,368,242.6,367.7z"/>
	</g>
	<polygon class="st7" points="286.7,318.2 274.5,320.3 259.4,318.8 196.9,329.2 197.6,322.1 281.4,308.1 	"/>
	
		<rect x="295.8" y="338.5" transform="matrix(-0.9864 0.1645 -0.1645 -0.9864 653.3055 649.7695)" class="st7" width="7.8" height="26.9"/>
	<path class="st7" d="M302.3,371.6l7.9-1.3c1.7-0.3,2.9-1.9,2.6-3.6l0,0c-0.3-1.7-1.9-2.9-3.6-2.6l-11,1.8l0.5,3.1
		C298.9,370.7,300.5,371.8,302.3,371.6z"/>
	<g>
		<polygon class="st10" points="151.8,309.4 160.3,308 165.4,298.7 156.9,300.1 		"/>
		<polygon class="st10" points="132.4,312.7 140.9,311.3 146,301.9 137.6,303.3 		"/>
		<polygon class="st10" points="113,315.9 121.5,314.5 126.6,305 118.2,306.4 		"/>
		<polygon class="st10" points="93.6,319.1 102.1,317.7 107.3,308.2 98.8,309.6 98.8,309.6 		"/>
		<polygon class="st10" points="74.2,322.4 82.6,321 87.9,311.3 79.5,312.7 		"/>
		<polygon class="st10" points="54.8,325.6 63.2,324.2 68.6,314.5 60.1,315.8 		"/>
		<polygon class="st10" points="35.4,328.9 43.8,327.4 49.2,317.6 40.8,319 		"/>
	</g>
	
		<rect x="181.7" y="350.3" transform="matrix(-0.9864 0.1645 -0.1645 -0.9864 426.075 672.1789)" class="st7" width="6.9" height="6.9"/>
	<polygon class="st7" points="221.4,296.5 211.3,315.7 224.3,313.5 	"/>
	<path class="st7" d="M32.6,319.7l146.1-24.4c0.1,0,0.3,0.1,0.3,0.2l0.1,0.9c0,0.1-0.1,0.3-0.2,0.3L32.9,321.1
		c-0.1,0-0.3-0.1-0.3-0.2l-0.1-0.9C32.4,319.9,32.5,319.8,32.6,319.7z"/>
</g>
<polygon class="st11" points="375.4,387.7 375.4,448.3 1.1,448.3 "/>
</svg>
